<?xml version="1.0" encoding="utf-8"?>
<!-- Generator: Adobe Illustrator 26.3.1, SVG Export Plug-In . SVG Version: 6.00 Build 0)  -->
<svg version="1.1" xmlns="http://www.w3.org/2000/svg" xmlns:xlink="http://www.w3.org/1999/xlink" x="0px" y="0px"
	 viewBox="0 0 2500 2000" enable-background="new 0 0 2500 2000" xml:space="preserve">
<g id="Layer_1">
</g>
<g id="Layer_2">
	<g>
		<g>
			<path fill="#F4F3FE" d="M2145.9,1641.8c-0.2,1.4-0.3,2.7-0.5,4.1c-2.1,15.4-5.2,31.3-9.3,48c-0.3,1.3-0.7,2.7-1,4.1
				c-1.2,4.8-2.6,9.7-3.9,14.7H325.9c0,0-2.2-5.3-5.5-14.7c-0.5-1.3-0.9-2.6-1.4-4.1c-3.9-11.6-9.1-28.1-13.9-48
				c-0.3-1.3-0.7-2.7-1-4.1c-3.4-14.5-6.6-30.7-9.1-48c-0.2-1.3-0.4-2.7-0.6-4.1c-2.1-15.3-3.5-31.4-4-48
				c-0.5-15.9-0.1-32.2,1.5-48.6c0.1-1.2,0.2-2.3,0.4-3.4c0.1-1.4,0.3-2.7,0.5-4.1c1.9-16.1,5.1-32.2,9.7-48
				c0.4-1.4,0.8-2.7,1.2-4.1c5.1-16.5,12-32.6,20.8-48c0.8-1.4,1.6-2.7,2.4-4.1c9.8-16.3,21.9-31.7,36.7-45.9
				c2.2-2.1,4.4-4.1,6.7-6.2c0.2-0.2,0.4-0.3,0.5-0.5c17.7-15.5,31.4-31.3,41.8-47.5c0.4-0.7,0.9-1.4,1.3-2c0.4-0.7,0.8-1.4,1.2-2
				c11.9-19.6,19.1-39.9,23-60.9c3.8-20.6,4.4-42,2.9-64.4c-0.3-5-0.7-10-1.2-15c-1-10.1-2.4-20.3-4-30.8
				c-2.1-14.1-4.7-28.5-7.4-43.3c-13.6-73.9-31.2-157.7-20.9-255.9c8.7-82.9,37.9-187,99.9-287.4c0.9-1.5,1.8-2.9,2.7-4.4
				c31.2-49.6,70.4-98.3,119.2-142.8c1-0.9,1.9-1.8,2.9-2.6c28.3-25.6,59.8-49.7,94.7-72c1.4-0.9,2.9-1.8,4.3-2.8
				c83.6-52.4,186.6-93.6,313-116.1h0c1.7-0.3,3.3-0.6,5-0.9c66.6-11.5,139.7-17.8,219.7-17.8c142.1,0,260.4,23.5,358.8,62.3h0
				c2.2,0.9,4.4,1.8,6.6,2.7c158.6,64.2,264.3,168.6,333,278.1c1.2,2,2.5,3.9,3.6,5.9c77,125.3,106,256.4,110.5,341.1
				c4.5,84.7-20.6,151.3-44.1,212.6c-5.6,14.7-11.2,29.1-16.2,43.3c-3.6,10.3-7,20.5-9.9,30.8c-1.4,5-2.8,10-3.9,15
				c-5.1,21.1-7.9,42.4-7.2,64.4c0.6,19.6,4.1,39.8,11.5,60.9c0.2,0.7,0.5,1.4,0.7,2c0.2,0.7,0.5,1.4,0.7,2
				c1.9,5.2,4.1,10.4,6.5,15.8c1.5,3.3,3,6.6,4.7,9.9c3.7,7.3,7.8,14.7,12.5,22.3c0.8,1.3,1.6,2.6,2.5,4c0,0,0,0.1,0.1,0.1
				c10.7,16.9,20.5,32.8,29.4,48c0.8,1.4,1.6,2.7,2.4,4.1c9.9,16.9,18.8,32.9,26.7,48c1,1.9,2,3.8,2.9,5.7
				c8.3,16.3,15.4,31.7,21.4,46.4c0.6,1.4,1.1,2.7,1.6,4.1c14.4,36.1,21.9,68.2,23.8,100c0.1,1.4,0.2,2.7,0.2,4.1
				C2148.6,1609.6,2147.9,1625.5,2145.9,1641.8z"/>
			<ellipse fill="#F4F3FE" cx="2074.4" cy="1204.5" rx="56.6" ry="112.1"/>
			<ellipse fill="#F4F3FE" cx="383.7" cy="1170.1" rx="43.8" ry="108.3"/>
			<g>
				<path opacity="0.64" fill="#EAE5FD" d="M2012.5,1279.5H413.9c0.4-0.7,0.8-1.4,1.2-2c11.9-19.6,19.1-39.9,23-60.9h1562.2
					c0.6,19.6,4.1,39.8,11.5,60.9C2012.1,1278.1,2012.3,1278.8,2012.5,1279.5z"/>
				<path fill="#D3C5F9" d="M405.5,1693.8v4.1h39.2v14.7h4.7v-14.7h15.1v-4.1H405.5z M464.5,1693.8v4.1h35.6v-4.1H464.5z
					 M464.5,1537.7v4.1h35.6v-4.1H464.5z M464.5,1381.5v4.1h35.6v-4.1H464.5z M2024.5,1593.8h123.4c0-1.4-0.1-2.7-0.2-4.1h-46.8v-48
					h37.3c-0.4-1.4-0.7-2.7-1-4.1h-112.7v-48h99.5c-0.5-1.3-1.1-2.7-1.6-4.1h-21.4v-46.4c-1-1.9-1.9-3.8-2.9-5.7h-73.5v-48h46.8
					c-0.8-1.3-1.6-2.7-2.4-4.1h-125.5v-48h96.1c0,0,0-0.1-0.1-0.1c-0.8-1.3-1.7-2.7-2.5-4h-12.5v-22.3c-1.7-3.3-3.2-6.6-4.7-9.9
					v32.2H1867v-48h146.3c-0.3-0.7-0.5-1.4-0.7-2c-0.2-0.7-0.5-1.4-0.7-2H415.1c-0.4,0.7-0.8,1.4-1.2,2c-0.4,0.7-0.9,1.4-1.3,2h32.1
					v48h-74.4c-2.3,2-4.5,4.1-6.7,6.2v45.9h-36.7c-0.8,1.3-1.6,2.7-2.4,4.1h120.2v48h-141c-0.4,1.4-0.8,2.7-1.2,4.1h61.1v48h-70.9
					c-0.2,1.4-0.3,2.7-0.5,4.1h152.5v48H291.9v-44.5c-1.6,16.4-2,32.7-1.5,48.6h73.2v48h-69.2c0.2,1.4,0.4,2.7,0.6,4.1h149.7v48
					H304.1c0.3,1.4,0.7,2.7,1,4.1h58.5v48H319c0.5,1.4,1,2.8,1.4,4.1h124.3v14.7h4.7v-14.7h152.8v14.7h4.7v-14.7h152.8v14.7h4.7
					v-14.7h152.8v14.7h4.7v-14.7h152.8v14.7h4.7v-14.7h152.8v14.7h4.7v-14.7h152.8v14.7h4.7v-14.7h152.8v14.7h4.7v-14.7h152.8v14.7
					h4.7v-14.7h152.8v14.7h4.7v-14.7h152.8v14.7h4.7v-14.7H2135c0.3-1.4,0.7-2.7,1-4.1h-35.1v-48h44.5c0.2-1.4,0.4-2.7,0.5-4.1
					h-121.4V1593.8z M2096.2,1541.7v48h-152.8v-48H2096.2z M525.8,1589.7v-48h152.8v48H525.8z M602.2,1593.8v48H449.4v-48H602.2z
					 M525.8,1333.6h152.8v48H525.8V1333.6z M449.4,1329.5v-48h152.8v48H449.4z M1781.2,1333.6v48h-152.8v-48H1781.2z M1709.5,1329.5
					v-48h152.8v48H1709.5z M1938.7,1485.6h-152.8v-48h152.8V1485.6z M2019.8,1489.7v48H1867v-48H2019.8z M683.3,1485.6v-48h152.8v48
					H683.3z M759.7,1489.7v48H606.9v-48H759.7z M606.9,1433.6v-48h152.8v48H606.9z M764.4,1433.6v-48h152.8v48H764.4z M764.4,1489.7
					h152.8v48H764.4V1489.7z M840.8,1485.6v-48h152.8v48H840.8z M921.9,1433.6v-48h152.8v48H921.9z M921.9,1489.7h152.8v48H921.9
					V1489.7z M998.3,1485.6v-48h152.8v48H998.3z M1079.4,1433.6v-48h152.8v48H1079.4z M1079.4,1489.7h152.8v48h-152.8V1489.7z
					 M1155.8,1485.6v-48h152.8v48H1155.8z M1236.9,1433.6v-48h152.8v48H1236.9z M1236.9,1489.7h152.8v48h-152.8V1489.7z
					 M1313.3,1485.6v-48h152.8v48H1313.3z M1394.4,1433.6v-48h152.8v48H1394.4z M1394.4,1489.7h152.8v48h-152.8V1489.7z
					 M1470.8,1485.6v-48h152.8v48H1470.8z M1551.9,1433.6v-48h152.8v48H1551.9z M1551.9,1489.7h152.8v48h-152.8V1489.7z
					 M1628.4,1485.6v-48h152.8v48H1628.4z M1709.5,1489.7h152.8v48h-152.8V1489.7z M1862.3,1433.6h-152.8v-48h152.8V1433.6z
					 M1704.8,1329.5h-152.8v-48h152.8V1329.5z M1623.6,1333.6v48h-152.8v-48H1623.6z M1547.2,1329.5h-152.8v-48h152.8V1329.5z
					 M1466.1,1333.6v48h-152.8v-48H1466.1z M1389.7,1329.5h-152.8v-48h152.8V1329.5z M1308.6,1333.6v48h-152.8v-48H1308.6z
					 M1232.2,1329.5h-152.8v-48h152.8V1329.5z M1151.1,1333.6v48H998.3v-48H1151.1z M1074.7,1329.5H921.9v-48h152.8V1329.5z
					 M993.6,1333.6v48H840.8v-48H993.6z M917.2,1329.5H764.4v-48h152.8V1329.5z M836.1,1333.6v48H683.3v-48H836.1z M759.7,1329.5
					H606.9v-48h152.8V1329.5z M602.2,1385.6v48H449.4v-48H602.2z M525.8,1437.7h152.8v48H525.8V1437.7z M602.2,1489.7v48H449.4v-48
					H602.2z M606.9,1593.8h152.8v48H606.9V1593.8z M683.3,1589.7v-48h152.8v48H683.3z M764.4,1593.8h152.8v48H764.4V1593.8z
					 M840.8,1589.7v-48h152.8v48H840.8z M921.9,1593.8h152.8v48H921.9V1593.8z M998.3,1589.7v-48h152.8v48H998.3z M1079.4,1593.8
					h152.8v48h-152.8V1593.8z M1155.8,1589.7v-48h152.8v48H1155.8z M1236.9,1593.8h152.8v48h-152.8V1593.8z M1313.3,1589.7v-48
					h152.8v48H1313.3z M1394.4,1593.8h152.8v48h-152.8V1593.8z M1470.8,1589.7v-48h152.8v48H1470.8z M1551.9,1593.8h152.8v48h-152.8
					V1593.8z M1628.4,1589.7v-48h152.8v48H1628.4z M1709.5,1593.8h152.8v48h-152.8V1593.8z M1785.9,1589.7v-48h152.8v48H1785.9z
					 M1867,1593.8h152.8v48H1867V1593.8z M2096.2,1437.7v48h-152.8v-48H2096.2z M2019.8,1385.6v48H1867v-48H2019.8z M1938.7,1333.6
					v48h-152.8v-48H1938.7z M368.3,1381.5v-48h152.8v48H368.3z M368.3,1485.6v-48h152.8v48H368.3z M368.3,1589.7v-48h152.8v48H368.3
					z M521.1,1693.8H368.3v-48h152.8V1693.8z M678.6,1693.8H525.8v-48h152.8V1693.8z M836.1,1693.8H683.3v-48h152.8V1693.8z
					 M993.6,1693.8H840.8v-48h152.8V1693.8z M1151.1,1693.8H998.3v-48h152.8V1693.8z M1308.6,1693.8h-152.8v-48h152.8V1693.8z
					 M1466.1,1693.8h-152.8v-48h152.8V1693.8z M1623.6,1693.8h-152.8v-48h152.8V1693.8z M1781.2,1693.8h-152.8v-48h152.8V1693.8z
					 M1938.7,1693.8h-152.8v-48h152.8V1693.8z M2096.2,1645.8v48h-152.8v-48H2096.2z"/>
			</g>
			<g>
				<path fill="#EAE5FD" d="M2037.6,1063c-5.6,14.7-11.2,29.1-16.2,43.3H435.8c-2.1-14.1-4.7-28.5-7.4-43.3H2037.6z"/>
				<path fill="#EAE5FD" d="M2011.5,1137.1c-1.4,5-2.8,10-3.9,15H441c-0.3-5-0.7-10-1.2-15H2011.5z"/>
			</g>
		</g>
		<g>
			<path fill="#00AE42" d="M658.2,1469.5c0,0-9.6-16.1-7.9-33.4c1.8-17.3,6.5-24.5,6.5-24.5S683,1441.5,658.2,1469.5z"/>
			<path fill="#00AE42" d="M653.6,1503.3c0,0-3.7-16.6-18.2-26.1c-14.5-9.6-27.5-9.7-27.5-9.7S608.9,1493.5,653.6,1503.3z"/>
			<path fill="#0C7684" d="M658.8,1535c0.2-6.7,0.1-13.5-0.2-20.2c0.1-0.2,0.1-0.5,0.1-0.8c0-0.1-0.1-0.2-0.1-0.3
				c-0.2-4.2-0.5-8.4-1-12.5c-0.6-5.6-1.4-11.1-2.4-16.7c0,0,0.1-0.1,0.1-0.1c5.3-13.3,7.3-27.8,6-42.1c-0.4-4-1-8-1.9-11.9
				c-0.2-0.9-1.7-0.6-1.5,0.3c3.2,13.7,3,28.2-0.4,41.9c-0.8,3.1-1.7,6.2-2.8,9.1c-0.8-3.7-1.6-7.5-2.6-11.2
				c-2.5-9.5-5.9-18.7-10.1-27.6c-4.2-8.8-9.3-17.2-15.3-24.9c-0.8-1-1.5-1.9-2.3-2.9c-0.6-0.7-1.7,0.2-1.1,1
				c6.2,7.5,11.5,15.7,15.9,24.4c4.4,8.7,7.9,17.8,10.6,27.1c2.8,9.7,4.8,19.7,6,29.7c0.5,3.9,0.9,7.9,1.1,11.9
				c-1.9-4.3-4.3-8.3-7.1-12.1c-3.8-5.1-8.4-9.7-13.6-13.4c-2.9-2.1-6-4-9.2-5.6c-0.9-0.4-1.3,1-0.5,1.4
				c11.2,5.5,20.6,14.6,26.6,25.4c1.6,2.9,2.9,5.8,4.1,8.9c0.3,5.7,0.4,11.4,0.3,17c-0.1,11.2-0.8,22.3-1.9,33.4
				c-0.1,1.4-0.3,2.8-0.4,4.2c-0.1,1,1.4,1.1,1.5,0.1C657.7,1557.6,658.6,1546.4,658.8,1535z"/>
			<g>
				<g>
					<g>
						<path fill="#FCBCBF" d="M626.9,1407.9c1.2-11.7,2.4-23.9-1.6-34.9c-1-2.7-2.3-5.4-4.5-7.2c-2.2-1.8-5.3-2.7-8-1.6
							c-2.3,1-3.9,3.3-4.5,5.8c-0.6,2.5-0.4,5.1,0,7.6c0.9,5.8,2.8,11.5,5.8,16.1c-4.2-4.4-7.2-10-10.8-14.9
							c-3.7-4.9-8.4-9.5-14.3-10.8c-6-1.3-13.2,1.8-14.8,7.9c-1.5,5.8,2.4,11.5,6.6,15.5c6.4,6.1,14.1,10.6,20.9,15.1
							c-7-3.9-14.9-6.2-22.9-6.8c-4.8-0.4-10.7,0.6-12.3,5.2c-1.7,4.7,2.6,9.4,7,11.5c7.9,3.7,17,3.6,25.7,2.7s17.5-2.5,26.1-1.5
							C625.2,1414.9,626.4,1412.6,626.9,1407.9z"/>
					</g>
					<g>
						<g>
							<g>
								<path fill="#F97D85" d="M612.1,1410.3c-9.9-9-19.6-18.2-29.4-27.3c-0.4-0.4-0.2-0.6,0.2-0.2c10.3,8.6,20.6,17,30.9,25.6
									C617.3,1411.3,615.5,1413.4,612.1,1410.3z"/>
							</g>
						</g>
						<g>
							<g>
								<path fill="#F97D85" d="M614.2,1404.6c-9.4-12.3-19.7-24-31-34.6c-0.5-0.5-0.3-0.7,0.2-0.2c11.8,10.1,22.8,21.2,32.8,33.2
									C619.5,1407.2,617.4,1408.9,614.2,1404.6z"/>
							</g>
						</g>
						<g>
							<g>
								<path fill="#F97D85" d="M612.5,1406.8c-9.3-8.8-18.5-17.8-27.7-26.6c-0.4-0.4-0.2-0.6,0.2-0.2c9.7,8.3,19.5,16.6,29.2,25
									C617.5,1407.8,615.7,1409.8,612.5,1406.8z"/>
							</g>
						</g>
						<g>
							<g>
								<path fill="#F97D85" d="M610.1,1408.8c-10.1-5.3-19.1-12.2-27-20.3c-0.3-0.4-0.1-0.6,0.2-0.2c8.3,7.5,17.9,13.6,27.9,18.2
									C614.7,1408.1,613.6,1410.6,610.1,1408.8z"/>
							</g>
						</g>
						<g>
							<g>
								<path fill="#F97D85" d="M613,1406.6c-7.6-11.3-17.2-21.3-28.4-29.3c-0.5-0.4-0.3-0.6,0.2-0.3c11.6,7.3,22,16.8,30.3,28
									C617.9,1409,615.6,1410.5,613,1406.6z"/>
							</g>
						</g>
						<g>
							<g>
								<path fill="#F97D85" d="M608.6,1413.6c-11.8-0.1-23.5-2.2-34.7-5.7c-0.5-0.2-0.4-0.4,0.1-0.3c11.3,2.9,23,3.9,34.6,3.5
									C612.5,1410.9,612.6,1413.6,608.6,1413.6z"/>
							</g>
						</g>
						<g>
							<g>
								<path fill="#F97D85" d="M606.6,1414.6c-11.3,1.1-22.7,0-33.5-2.9c-0.5-0.1-0.4-0.4,0.1-0.3c10.9,2.2,22.2,2.3,33.2,0.7
									C610,1411.5,610.4,1414.2,606.6,1414.6z"/>
							</g>
						</g>
						<g>
							<g>
								<path fill="#F97D85" d="M605.1,1410.6c-9.7-3.1-19.7-5.6-29.8-6.8c-0.4-0.1-0.4-0.4,0-0.3c10.3,0.6,20.5,2.1,30.5,4.7
									C609.3,1409.1,608.4,1411.7,605.1,1410.6z"/>
							</g>
						</g>
					</g>
					<g>
						<path fill="#F97D85" d="M624.5,1418.1c5.9-9.7,11.9-19.6,14.1-30.7c0.6-2.9,0.9-6,0-8.9c-0.8-2.9-3-5.4-5.8-6.1
							c-3.6-0.8-7.3,1.7-9.6,4.7c-4.3,5.4-5.9,12.9-4.1,20.4c-3.9-8.6-8.3-17.7-16.3-22.5c-2-1.2-4.3-2.1-6.6-2.1
							c-2.4,0-4.8,1.2-6,3.2c-1.7,2.9-0.5,6.7,1,9.7c3.9,7.6,9.9,14.1,17.8,19.4c-5-3.5-11-5.4-17.1-5.5c-2.1,0-4.3,0.2-6.2,1.1
							c-1.9,1-3.5,2.8-3.8,5c-0.4,3.5,2.7,6.3,5.8,7.9C599,1419.8,612.7,1418.7,624.5,1418.1z"/>
					</g>
					<g>
						<path fill="#FCBCBF" d="M624.1,1418.2c-6.3-9.8-13-20-23.3-25.4c-1.7-0.9-3.6-1.7-5.6-1.8c-2-0.1-4.1,0.5-5.4,2
							c-1.5,1.7-1.8,4.3-1.1,6.5c0.7,2.2,2.1,4,3.8,5.5C600.6,1412.9,612.3,1415.3,624.1,1418.2z"/>
					</g>
					<g>
						<path fill="#FCBCBF" d="M624.5,1418.2c-3.1-7.8-6.1-15.7-7.2-24c-0.3-2.6-0.5-5.2,0.2-7.7c0.7-2.5,2.4-4.8,4.9-5.6
							c3.6-1.2,7.6,1.3,9.2,4.7c1.6,3.5,1.4,7.5,0.8,11.3C631.2,1404.1,628.7,1411,624.5,1418.2z"/>
					</g>
					<g>
						<path fill="#FCBCBF" d="M623.6,1418c-10.2,7.3-21.2,14.8-33.6,14.8c-2.3,0-4.7-0.3-6.8-1.4c-2-1.1-3.7-3.1-3.9-5.5
							c-0.2-2.3,1.1-4.7,2.9-6.2c1.8-1.5,4-2.4,6.2-3.2C600.2,1412.7,613,1412.9,623.6,1418z"/>
					</g>
				</g>
				<g>
					<g>
						<g>
							<path fill="#F97D85" d="M616.7,1413.8c-3.2-5.5-7-10.8-11.6-15.4c-0.2-0.2,0-0.4,0.2-0.2c5,4.1,9.7,8.8,13.5,14.2
								C620.1,1414.3,617.8,1415.7,616.7,1413.8z"/>
						</g>
					</g>
					<g>
						<g>
							<path fill="#F97D85" d="M617,1414.9c-5.7-4.4-11.6-8.8-17.7-12.7c-0.3-0.2-0.1-0.4,0.2-0.3c6.5,3.4,12.9,6.9,19,10.9
								C620.5,1414.2,618.9,1416.4,617,1414.9z"/>
						</g>
					</g>
					<g>
						<g>
							<path fill="#F97D85" d="M616.6,1416.5c-4.1-2.3-8.2-4.8-12.3-7.1c-0.2-0.1-0.1-0.4,0.1-0.3c4.4,1.7,8.8,3.3,13.2,5.1
								C619.2,1414.8,618,1417.3,616.6,1416.5z"/>
						</g>
					</g>
					<g>
						<g>
							<path fill="#F97D85" d="M617.7,1418c-8.3,0.5-16.7,0.8-25,1.2c-0.4,0-0.4-0.3,0-0.3c8.3-1.1,16.6-2.4,24.8-3.4
								C620.4,1415.1,620.6,1417.8,617.7,1418z"/>
						</g>
					</g>
					<g>
						<g>
							<path fill="#F97D85" d="M616.8,1419.2c-6.9,2.4-14.1,3.8-21.3,4.5c-0.3,0-0.4-0.3,0-0.3c7.1-1.3,14-3.6,20.5-6.5
								C618.2,1415.8,619.2,1418.3,616.8,1419.2z"/>
						</g>
					</g>
					<g>
						<g>
							<path fill="#F97D85" d="M618.3,1419.5c-5.1,3.6-10.9,6.1-16.8,7.6c-0.3,0.1-0.3-0.2-0.1-0.3c5.7-2.1,10.8-5.4,15.4-9.3
								C618.4,1416.2,620.1,1418.3,618.3,1419.5z"/>
						</g>
					</g>
					<g>
						<g>
							<path fill="#F97D85" d="M622.1,1412.1c0-6.8-0.4-13.7-1.6-20.5c-0.1-0.3,0.2-0.4,0.3-0.1c1.9,6.6,3.2,13.5,3.8,20.4
								C624.7,1414.4,622.1,1414.4,622.1,1412.1z"/>
						</g>
					</g>
					<g>
						<g>
							<path fill="#F97D85" d="M623.7,1411.8c0.7-6,1.6-12,2.3-18c0-0.3,0.3-0.2,0.3,0c-0.1,6,0,12.1-0.1,18.1
								C626.2,1414,623.5,1413.9,623.7,1411.8z"/>
						</g>
					</g>
					<g>
						<g>
							<path fill="#F97D85" d="M624.7,1410.9c2-5.5,4.2-10.9,6.2-16.3c0.1-0.2,0.4-0.2,0.3,0.1c-1.4,5.6-2.7,11.3-4.1,17
								C626.6,1413.6,624,1412.8,624.7,1410.9z"/>
						</g>
					</g>
				</g>
				<g>
					<g>
						<path fill="#0C7684" d="M627,1418.8c0.7-4,1-8.1,1-12.2c0-0.9-0.1-2.1-1-2.4c-0.9-0.4-1.9,0.5-2.4,1.3c-1.5,2.3-2,5.3-1.2,7.9
							c-1.7-2.3-4.1-4.1-6.8-4.9c-0.8-0.3-1.9-0.4-2.5,0.2c-0.8,0.9-0.1,2.3,0.7,3.3c1.7,1.9,3.7,3.5,5.9,4.8c-2.8-1-6-0.8-8.7,0.5
							c-0.7,0.4-1.5,0.9-1.7,1.7c-0.3,1,0.5,2.1,1.5,2.4c1,0.4,2.1,0.2,3.1,0.1C618.8,1421,622.8,1420.2,627,1418.8z"/>
					</g>
				</g>
			</g>
		</g>
		<g>
			<path fill="#00AE42" d="M1879.9,1421.3c0,0,6.4-27.2-3.9-51c-10.3-23.8-20.3-31.8-20.3-31.8S1832,1392.8,1879.9,1421.3z"/>
			<path fill="#00AE42" d="M1901.7,1467.2c0,0-2.2-25.2,14-45.4s34.7-26.3,34.7-26.3S1960.8,1433.1,1901.7,1467.2z"/>
			<path fill="#0C7684" d="M1908.7,1514.7c-3.3-9.5-6.2-19.1-8.8-28.8c-0.3-0.2-0.4-0.6-0.4-1.1c0-0.1,0-0.3,0-0.4
				c-1.6-6-3-12.1-4.3-18.2c-1.7-8.2-3.1-16.5-4.1-24.8c-0.1,0-0.1-0.1-0.2-0.2c-13.5-16.5-22.9-36.2-27.5-57
				c-1.3-5.9-2.2-11.8-2.7-17.8c-0.1-1.4,2.1-1.7,2.2-0.2c1.7,21,8.5,41.5,19.5,59.4c2.5,4.1,5.2,8,8.1,11.7
				c-0.6-5.7-1.1-11.4-1.3-17.1c-0.7-14.6-0.1-29.3,1.9-43.8c2-14.4,5.4-28.7,10.5-42.3c0.6-1.7,1.3-3.4,2-5.1
				c0.5-1.3,2.6-0.4,2,0.9c-5.4,13.5-9.2,27.5-11.5,41.8c-2.3,14.3-3.2,28.8-2.8,43.3c0.4,15.1,2.1,30.1,4.9,45
				c1.1,5.8,2.4,11.6,3.8,17.3c0.8-6.9,2.3-13.8,4.6-20.4c3.1-9,7.6-17.5,13.2-25.2c3.2-4.3,6.7-8.3,10.6-12.1c1-1,2.4,0.8,1.3,1.8
				c-13.4,12.9-22.6,30-26.3,48.2c-1,4.8-1.5,9.6-1.7,14.5c2.2,8.2,4.6,16.3,7.3,24.4c5.2,15.8,11.3,31.3,17.9,46.7
				c0.8,1.9,1.7,3.9,2.5,5.8c0.6,1.3-1.5,2.1-2.1,0.8C1920.5,1546.3,1914.2,1530.7,1908.7,1514.7z"/>
			<g>
				<g>
					<g>
						<path fill="#FCBCBF" d="M1896.5,1319.7c-7.1-16.1-14.3-32.9-13.6-50.3c0.2-4.3,0.9-8.7,3.1-12.3c2.3-3.6,6.3-6.3,10.6-5.9
							c3.7,0.3,7,3,9,6.2c2,3.2,2.9,7,3.5,10.7c1.3,8.7,1.2,17.6-0.9,25.5c4-8.2,5.7-17.4,8.7-26.1c3-8.7,7.6-17.3,15.5-21.8
							c7.9-4.5,19.6-3.4,24.6,4.4c4.8,7.5,1.9,17.4-2.4,25.1c-6.4,11.5-15.3,21.4-22.9,30.9c8.2-8.7,18.4-15.6,29.5-20.1
							c6.6-2.7,15.5-3.9,19.9,1.9c4.5,5.9,0.6,14.5-4.7,19.4c-9.5,8.9-22.5,12.8-35.3,15.4s-26,4.3-37.8,9.7
							C1902,1328.8,1899.3,1326.1,1896.5,1319.7z"/>
					</g>
					<g>
						<g>
							<g>
								<path fill="#F97D85" d="M1918.6,1316.3c9.9-17.3,19.6-34.8,29.5-52.1c0.4-0.8,0.1-1-0.4-0.3c-10.7,16.8-21.6,33.5-32.3,50.4
									C1911.8,1320.1,1915.2,1322.2,1918.6,1316.3z"/>
							</g>
						</g>
						<g>
							<g>
								<path fill="#F97D85" d="M1913.1,1309.2c7.8-21.7,17.2-43,28.5-63.2c0.5-0.9,0.1-1.1-0.4-0.3c-12.1,19.7-22.9,40.4-31.5,62.1
									C1906.6,1315.3,1910.4,1316.7,1913.1,1309.2z"/>
							</g>
						</g>
						<g>
							<g>
								<path fill="#F97D85" d="M1916.4,1311.5c9.2-16.7,18.2-33.6,27.4-50.4c0.4-0.7,0-1-0.4-0.3c-10,16.2-20.3,32.4-30.2,48.7
									C1909.8,1315.2,1913.2,1317.3,1916.4,1311.5z"/>
							</g>
						</g>
						<g>
							<g>
								<path fill="#F97D85" d="M1920.7,1313.4c11.9-12,21.6-26.1,29.2-41.1c0.3-0.7,0-0.9-0.4-0.2c-8.4,14.5-19.2,27.4-31.4,38.5
									C1913.9,1314.4,1916.6,1317.5,1920.7,1313.4z"/>
							</g>
						</g>
						<g>
							<g>
								<path fill="#F97D85" d="M1915.6,1311.5c5.7-19.5,14.8-38.1,27.1-54.4c0.5-0.7,0.2-1-0.4-0.3c-13.1,15.7-23.7,33.8-30.3,53.5
									C1909.9,1317.1,1913.7,1318.2,1915.6,1311.5z"/>
							</g>
						</g>
						<g>
							<g>
								<path fill="#F97D85" d="M1925.2,1319.5c16.8-5.5,32.5-13.7,46.7-23.8c0.6-0.4,0.4-0.8-0.3-0.4c-14.8,9.2-30.9,16-47.6,20.6
									C1918.3,1317.4,1919.4,1321.3,1925.2,1319.5z"/>
							</g>
						</g>
						<g>
							<g>
								<path fill="#F97D85" d="M1928.5,1320c16.6-3.6,32.2-10.3,46.3-19.2c0.6-0.4,0.4-0.8-0.3-0.4c-14.6,8-30.5,13.3-46.8,15.9
									C1922.1,1317.1,1922.7,1321.1,1928.5,1320z"/>
							</g>
						</g>
						<g>
							<g>
								<path fill="#F97D85" d="M1928.7,1313.6c12.3-8.8,25.4-16.8,39.3-23.2c0.6-0.3,0.4-0.7-0.2-0.4
									c-14.3,5.5-28.3,12.2-41.3,20.5C1922.1,1313.3,1924.5,1316.6,1928.7,1313.6z"/>
							</g>
						</g>
					</g>
					<g>
						<path fill="#F97D85" d="M1904.5,1333c-12.7-11-25.8-22.4-33.9-37.2c-2.1-3.9-4-8.2-4.1-12.6c-0.1-4.4,1.8-9.1,5.6-11.2
							c4.8-2.8,11.1-0.8,15.8,2.4c8.5,5.8,14.2,15.7,15.1,27.2c1.7-14,3.8-28.9,13-39.4c2.3-2.6,5.1-5,8.5-6c3.4-1,7.3-0.5,10,1.9
							c3.8,3.4,3.7,9.3,2.9,14.2c-2.1,12.6-7.8,24.5-16.5,35.6c5.5-7.2,13.2-12.7,21.8-15.5c3-1,6.2-1.7,9.4-1.2
							c3.2,0.5,6.3,2.4,7.6,5.3c2.1,4.8-1.1,10.1-4.7,13.8C1941.5,1323.9,1921.5,1328.5,1904.5,1333z"/>
					</g>
					<g>
						<path fill="#FCBCBF" d="M1905.2,1332.9c4.5-16.8,9.5-34.3,21.6-46.6c2.1-2.1,4.4-4.1,7.1-5.1c2.8-1.1,6-1.1,8.6,0.4
							c2.9,1.8,4.4,5.3,4.5,8.7c0,3.4-1.2,6.6-2.8,9.6C1936.1,1314.8,1920.5,1323.6,1905.2,1332.9z"/>
					</g>
					<g>
						<path fill="#FCBCBF" d="M1904.6,1333.2c0.8-12.4,1.6-25-0.6-37.4c-0.7-3.8-1.7-7.6-3.8-10.8c-2.1-3.2-5.6-5.7-9.5-5.8
							c-5.7-0.1-10.2,5.2-11,10.9c-0.8,5.6,1.4,11.3,4,16.5C1888.7,1316.1,1895.3,1324.8,1904.6,1333.2z"/>
					</g>
					<g>
						<path fill="#FCBCBF" d="M1905.7,1332.5c17.7,5.7,36.9,11.5,54.4,5.9c3.3-1.1,6.6-2.6,9-5.1c2.4-2.5,3.8-6.1,3-9.6
							c-0.8-3.4-3.6-6.1-6.9-7.5c-3.2-1.4-6.8-1.7-10.3-1.7C1936.6,1314.3,1918.5,1320.4,1905.7,1332.5z"/>
					</g>
				</g>
				<g>
					<g>
						<g>
							<path fill="#F97D85" d="M1913.6,1323.4c2.1-9.3,5.1-18.5,9.6-27.1c0.2-0.4-0.2-0.6-0.4-0.3c-5.3,8.1-9.8,16.9-12.7,26.3
								C1909.1,1325.6,1913,1326.6,1913.6,1323.4z"/>
						</g>
					</g>
					<g>
						<g>
							<path fill="#F97D85" d="M1913.8,1325c6.1-8.9,12.5-17.7,19.4-26.1c0.3-0.4,0-0.7-0.4-0.3c-7.7,7.7-15.1,15.6-22,24.1
								C1908.4,1325.6,1911.7,1328.1,1913.8,1325z"/>
						</g>
					</g>
					<g>
						<g>
							<path fill="#F97D85" d="M1915,1327.2c4.8-5.1,9.4-10.5,14.2-15.6c0.2-0.2-0.1-0.6-0.3-0.4c-5.5,4.4-11.1,8.7-16.5,13.2
								C1910.6,1325.9,1913.4,1328.9,1915,1327.2z"/>
						</g>
					</g>
					<g>
						<g>
							<path fill="#F97D85" d="M1914.2,1329.8c12.1-3.1,24-6.4,36.1-9.6c0.5-0.1,0.4-0.6-0.1-0.5c-12.3,2.2-24.6,4.1-36.8,6.4
								C1909.1,1326.9,1910,1330.9,1914.2,1329.8z"/>
						</g>
					</g>
					<g>
						<g>
							<path fill="#F97D85" d="M1915.9,1331.1c10.9,0.3,21.8-1,32.3-3.3c0.5-0.1,0.4-0.5-0.1-0.5c-10.7,1.3-21.5,1.1-32.1,0
								C1912.4,1326.9,1912.1,1330.9,1915.9,1331.1z"/>
						</g>
					</g>
					<g>
						<g>
							<path fill="#F97D85" d="M1913.9,1332.3c8.9,2.8,18.2,3.7,27.3,3.2c0.4,0,0.4-0.5,0-0.5c-9-0.5-17.9-2.8-26-6.3
								C1912.4,1327.5,1910.9,1331.2,1913.9,1332.3z"/>
						</g>
					</g>
					<g>
						<g>
							<path fill="#F97D85" d="M1905.3,1323.4c-3.1-9.7-5.7-19.6-7-29.8c-0.1-0.4-0.5-0.4-0.5,0c0.4,10.2,1.5,20.6,3.9,30.7
								C1902.5,1327.8,1906.4,1326.7,1905.3,1323.4z"/>
						</g>
					</g>
					<g>
						<g>
							<path fill="#F97D85" d="M1902.8,1323.7c-3.7-8.2-7.7-16.4-11.4-24.6c-0.2-0.4-0.6-0.2-0.4,0.2c2.8,8.6,5.5,17.2,8.4,25.7
								C1900.3,1328,1904,1326.5,1902.8,1323.7z"/>
						</g>
					</g>
					<g>
						<g>
							<path fill="#F97D85" d="M1901,1323c-5.3-6.9-10.9-13.6-16.2-20.4c-0.2-0.3-0.6-0.1-0.4,0.3c4.6,7.4,8.9,14.9,13.6,22.2
								C1899.5,1327.6,1902.8,1325.3,1901,1323z"/>
						</g>
					</g>
				</g>
				<g>
					<g>
						<path fill="#0C7684" d="M1901.3,1335.2c-2.8-5.4-5.1-11.1-7-16.9c-0.4-1.3-0.7-3,0.3-3.9c1.1-0.9,2.9-0.2,4,0.8
							c3.2,2.6,5.2,6.6,5.3,10.7c1.3-4.1,4-7.6,7.5-10.1c1.1-0.7,2.5-1.4,3.6-0.8c1.6,0.9,1.2,3.3,0.5,4.9c-1.5,3.5-3.6,6.7-6.2,9.5
							c3.5-2.7,8.2-3.9,12.7-3.2c1.2,0.2,2.5,0.6,3.2,1.7c0.8,1.3,0.2,3.2-1,4.2c-1.2,1-2.8,1.3-4.3,1.5
							C1913.9,1334.6,1907.9,1335.3,1901.3,1335.2z"/>
					</g>
				</g>
			</g>
		</g>
		<path fill="#0D3D82" d="M766.9,1549.5c-27.1-7.2-25.2,18-24.9,20.2c-0.2-1.8-2.6-18.6-21.1-22.5c-19.6-4.2-20.8,19.2-20.8,19.2
			s-0.8-21.9-9.1-20.4c-3.9,0.7-4.9,7.3-4.8,14c-6.5-0.4-9.1,12-9.1,12s-0.8-23.8-21.1-29.3c-20.4-5.5-24.5,29.7-24.5,29.7
			s2.3-23.8-15.1-29.7c-17.4-5.9-24.5,20.6-24.5,20.6s1.5-14.7-9.8-14.7c-7.4,0-6.7,16.4-5.4,27.6c-0.7-0.6-1.5-1.2-2.6-1.6
			c-7.2-2.6-10.9,12-10.9,12s2.6-25.9-12.1-30.8c-14.7-4.9-25.7,17.7-25.7,17.7s3.4-11.3-3-15.7c-6.4-4.4-9.1,8.5-9.1,8.5
			s-1.5-17.7-14.9-17.7c-13.4,0-16.1,49.8-16.1,49.8s-10.5-38.1-45.5-35.1c-35,3-36,66.4-36,66.4s-6-11.3-23-10.9
			c-16.9,0.4-17,27.2-17,27.2s-19.3-29.1-32.8-16.2c-13.6,12.8,6.8,38.1,6.8,38.1s-14-0.8-19.5,13.9c-5.6,14.7,10.8,30.6,10.8,30.6
			l462.5-108C788.4,1604.7,795.2,1557.1,766.9,1549.5z"/>
		<path fill="#0C7684" d="M885.5,1538.4c-27.1-7.2-25.2,18-24.9,20.2c-0.2-1.8-2.6-18.6-21.1-22.5c-19.6-4.2-20.8,19.2-20.8,19.2
			s-0.8-21.9-9.1-20.4c-3.9,0.7-4.9,7.3-4.8,14c-6.5-0.4-9.1,12-9.1,12s-0.8-23.8-21.1-29.3c-20.4-5.5-24.5,29.7-24.5,29.7
			s2.3-23.8-15.1-29.7c-17.4-5.9-24.5,20.6-24.5,20.6s1.5-14.7-9.8-14.7c-7.4,0-6.7,16.4-5.4,27.6c-0.7-0.6-1.5-1.2-2.6-1.6
			c-7.2-2.6-10.9,12-10.9,12s2.6-25.9-12.1-30.8c-14.7-4.9-25.7,17.7-25.7,17.7s3.4-11.3-3-15.7c-6.4-4.4-9.1,8.5-9.1,8.5
			s-1.5-17.7-14.9-17.7s-16.1,49.8-16.1,49.8s-10.5-38.1-45.5-35.1s-36,66.4-36,66.4s-6-11.3-23-10.9c-16.9,0.4-17,27.2-17,27.2
			s-19.3-29.1-32.8-16.2c-13.6,12.8,6.8,38.1,6.8,38.1s-14-0.8-19.5,13.9c-5.6,14.7,10.8,30.6,10.8,30.6l462.5-108
			C907.1,1593.5,913.9,1546,885.5,1538.4z"/>
		<path fill="#00AE42" d="M913.7,1537.2c-18.5-4.8-17.2,12-17,13.5c-0.1-1.2-1.8-12.4-14.4-15c-13.4-2.8-14.2,12.8-14.2,12.8
			s-0.5-14.6-6.2-13.6c-2.7,0.5-3.3,4.9-3.3,9.4c-4.4-0.3-6.2,8-6.2,8s-0.5-15.9-14.4-19.5c-13.9-3.7-16.8,19.8-16.8,19.8
			s1.5-15.9-10.3-19.8c-11.9-3.9-16.8,13.8-16.8,13.8s1-9.8-6.7-9.8c-5.1,0-4.6,10.9-3.7,18.4c-0.5-0.4-1-0.8-1.7-1.1
			c-4.9-1.8-7.5,8-7.5,8s1.8-17.3-8.2-20.6c-10.1-3.3-17.5,11.8-17.5,11.8s2.3-7.6-2.1-10.5c-4.4-2.9-6.2,5.7-6.2,5.7
			s-1-11.8-10.2-11.8c-9.2,0-11,33.2-11,33.2s-7.2-25.4-31.1-23.4c-23.9,2-24.5,44.3-24.5,44.3s-4.1-7.6-15.7-7.3
			c-11.6,0.3-11.6,18.1-11.6,18.1s-13.1-19.4-22.4-10.8c-9.3,8.6,4.6,25.4,4.6,25.4s-9.5-0.5-13.3,9.3c-3.8,9.8,7.4,20.4,7.4,20.4
			l315.7-72C928.3,1574,933,1542.3,913.7,1537.2z"/>
		<path fill="#0D3D82" d="M1685.2,1549.5c27.1-7.2,25.2,18,24.9,20.2c0.2-1.8,2.6-18.6,21.1-22.5c19.6-4.2,20.8,19.2,20.8,19.2
			s0.8-21.9,9.1-20.4c3.9,0.7,4.9,7.3,4.8,14c6.5-0.4,9.1,12,9.1,12s0.8-23.8,21.1-29.3c20.4-5.5,24.5,29.7,24.5,29.7
			s-2.3-23.8,15.1-29.7c17.4-5.9,24.5,20.6,24.5,20.6s-1.5-14.7,9.8-14.7c7.4,0,6.7,16.4,5.4,27.6c0.7-0.6,1.5-1.2,2.6-1.6
			c7.2-2.6,10.9,12,10.9,12s-2.6-25.9,12.1-30.8c14.7-4.9,25.7,17.7,25.7,17.7s-3.4-11.3,3-15.7c6.4-4.4,9.1,8.5,9.1,8.5
			s1.5-17.7,14.9-17.7c13.4,0,16.1,49.8,16.1,49.8s10.5-38.1,45.5-35.1c35,3,36,66.4,36,66.4s6-11.3,23-10.9
			c16.9,0.4,17,27.2,17,27.2s19.3-29.1,32.8-16.2s-6.8,38.1-6.8,38.1s14-0.8,19.5,13.9c5.6,14.7-10.8,30.6-10.8,30.6l-462.5-108
			C1663.7,1604.7,1656.9,1557.1,1685.2,1549.5z"/>
		<path fill="#0C7684" d="M1681.4,1564.8c22.5-6.5,20.9,16.3,20.7,18.3c0.2-1.7,2.1-16.8,17.5-20.4c16.3-3.8,17.2,17.4,17.2,17.4
			s0.6-19.8,7.6-18.5c3.3,0.6,4.1,6.6,4,12.7c5.4-0.4,7.5,10.9,7.5,10.9s0.6-21.6,17.5-26.6c16.9-5,20.4,26.9,20.4,26.9
			s-1.9-21.6,12.5-26.9c14.4-5.3,20.4,18.7,20.4,18.7s-1.3-13.3,8.1-13.3c6.2,0,5.6,14.8,4.5,25.1c0.5-0.6,1.2-1.1,2.1-1.4
			c6-2.4,9.1,10.8,9.1,10.8s-2.2-23.5,10-28c12.2-4.4,21.3,16.1,21.3,16.1s-2.8-10.3,2.5-14.3c5.3-4,7.5,7.7,7.5,7.7
			s1.3-16.1,12.4-16.1s13.4,45.1,13.4,45.1s8.7-34.5,37.8-31.8c29.1,2.7,29.8,60.2,29.8,60.2s5-10.3,19.1-9.9
			c14.1,0.3,14.1,24.6,14.1,24.6s16-26.4,27.2-14.7c11.3,11.6-5.6,34.6-5.6,34.6s11.6-0.7,16.2,12.6c4.6,13.3-8.9,27.8-8.9,27.8
			l-383.8-97.9C1663.6,1614.7,1657.9,1571.6,1681.4,1564.8z"/>
		<path fill="#00AE42" d="M1495.3,1545.7c22.5-6.5,20.9,16.3,20.7,18.3c0.2-1.7,2.1-16.8,17.5-20.4c16.3-3.8,17.2,17.4,17.2,17.4
			s0.6-19.8,7.6-18.5c3.3,0.6,4.1,6.6,4,12.7c5.4-0.4,7.5,10.9,7.5,10.9s0.6-21.6,17.5-26.6c16.9-5,20.4,26.9,20.4,26.9
			s-1.9-21.6,12.5-26.9c14.4-5.3,20.4,18.7,20.4,18.7s-1.3-13.3,8.1-13.3c6.2,0,5.6,14.8,4.5,25.1c0.5-0.6,1.2-1.1,2.1-1.4
			c6-2.4,9.1,10.8,9.1,10.8s-2.2-23.5,10-28c12.2-4.4,21.3,16.1,21.3,16.1s-2.8-10.3,2.5-14.3s7.5,7.7,7.5,7.7s1.3-16.1,12.4-16.1
			c11.1,0,13.4,45.1,13.4,45.1s8.7-34.5,37.8-31.8c29.1,2.7,29.8,60.2,29.8,60.2s5-10.3,19.1-9.9c14.1,0.3,14.1,24.6,14.1,24.6
			s16-26.4,27.2-14.7c11.3,11.6-5.6,34.6-5.6,34.6s11.6-0.7,16.2,12.6c4.6,13.3-8.9,27.8-8.9,27.8l-383.8-97.9
			C1477.5,1595.6,1471.8,1552.5,1495.3,1545.7z"/>
		<g>
			<g>
				<g>
					<path fill="#0C7684" d="M398.7,1660.4c17.7,12.6,23.5,16.2,23.5,16.2l8.6-22.4c0,0,7.4-23.1,6.5-41.1
						c-0.2-3.7-0.7-7.1-1.7-10.2c-5.9-17.7-10.2-25.9-10.2-25.9l-17.8-0.9l10.6-12c0,0-3.9-14.5-27.5-38.2
						c-23.6-23.7-77.6-47.6-77.6-47.6l1.1,9c0,0,0,0,0,0l6.7,54l9.4,1.3l0.5,0.1l-0.4,0.3l-8.9,7.5c0,0-1.3,10,11.2,27.6
						s22.7,28.1,22.7,28.1s17.7,3,15.6,3.4c-2.1,0.3-13.1,9.1-13.1,9.1S381,1647.7,398.7,1660.4z"/>
					<path fill="#0D3D82" d="M422.4,1677.7c0.3,0,0.5-0.2,0.7-0.4c0.2-0.2,0.3-0.5,0.3-0.9c0-0.2-2-16.6-10.7-41.3
						c2.6-9.3,11.6-42.1,9.4-36.1c-2.1,5.5-9,22.3-11.9,29.2c-3.3-8.7-7.4-18.2-12.5-28.3c-8.7-17.2-20.5-36.3-31.6-53.1
						c0,0,3.7-26.2,3.6-28.8c-0.2-2.6-7.3,23.2-7.3,23.2c-15.1-22.6-28-39.9-28.3-40.2c-0.4-0.5-1.1-0.6-1.6-0.2
						c-0.5,0.4-0.6,1.1-0.2,1.6c0.4,0.5,32.5,43.4,54.9,82.9c0,0-50-12.4-45.9-9.9c4.1,2.5,49.6,16.6,49.6,16.6c1.6,3,3.2,6,4.7,9
						c5.5,10.9,9.8,21.1,13.3,30.3l0,0c10.1,27,12.3,45.2,12.3,45.4C421.2,1677.3,421.8,1677.7,422.4,1677.7z"/>
					<path fill="#0D3D82" d="M330.3,1542.5c-6.1-17.6-11.6-37.5-16.1-55.3l6.7,54L330.3,1542.5z"/>
					<path opacity="0.61" fill="#0D3D82" d="M398.7,1660.4c17.7,12.6,23.5,16.2,23.5,16.2l8.6-22.4c0,0,7.4-23.1,6.5-41.1
						c-18.7,0.1-69.5-2.5-89.3-31.8c-6.2-9.1-12.1-22.9-17.5-38.4l-8.9,7.5c0,0-1.3,10,11.2,27.6s22.7,28.1,22.7,28.1
						s17.7,3,15.6,3.4c-2.1,0.3-13.1,9.1-13.1,9.1S381,1647.7,398.7,1660.4z"/>
				</g>
				<g>
					<path fill="#00AE42" d="M410.4,1636.8c13.7,27.9,18.6,36.3,18.6,36.3l26-22.4c0,0,24.9-24,36-47.2c2.3-4.7,4-9.5,4.7-13.9
						c4.6-26.3,4.8-39.4,4.8-39.4l-21.7-13.2l21.5-8c0,0,4.9-20.8-8.7-66.6c-13.6-45.8-65.3-112.4-65.3-112.4l-4.7,12.1c0,0,0,0,0,0
						l-28.2,72.4l10.9,7.9l0.6,0.4l-0.7,0.1l-16.3,3.4c0,0-8.4,11.7-4.6,42.3c3.8,30.6,9.5,50.7,9.5,50.7s20.2,15.8,17.3,14.8
						c-2.9-1-22.6,2.5-22.6,2.5S396.7,1608.8,410.4,1636.8z"/>
					<path fill="#0C7684" d="M428.4,1674.6c0.4,0.2,0.8,0.1,1.1,0c0.4-0.1,0.7-0.5,0.9-0.9c0.1-0.3,8.8-22.2,14.5-59.2
						c9.6-10,43.2-45.1,36.2-39c-6.4,5.6-26.5,22-34.7,28.7c1.7-13.2,3-28,3.4-44.1c0.7-27.5-1.2-59.5-3.7-88.2
						c0,0,22.4-30.3,24-33.7c1.6-3.4-24.8,24.2-24.8,24.2c-3.7-38.7-8.2-69.1-8.3-69.7c-0.1-0.9-0.9-1.5-1.8-1.3
						c-0.9,0.1-1.5,0.9-1.3,1.8c0.1,0.9,11.4,76.6,12.9,141.4c0,0-54.4-49.5-50.9-43.6c3.5,5.9,51.1,54.4,51.1,54.4
						c0,4.9,0,9.8-0.2,14.5c-0.5,17.4-1.9,33.2-3.8,47.1l0,0c-5.6,40.7-15.2,65.1-15.4,65.4C427.2,1673.3,427.6,1674.2,428.4,1674.6
						z"/>
					<path fill="#0C7684" d="M404.3,1442.3c4.2-26.3,10.8-55,17.3-80.3l-28.2,72.4L404.3,1442.3z"/>
					<path opacity="0.61" fill="#0C7684" d="M410.4,1636.8c13.7,27.9,18.6,36.3,18.6,36.3l26-22.4c0,0,24.9-24,36-47.2
						c-23.5-12.6-85.6-50.2-90.8-100.5c-1.6-15.6,0.3-36.9,3.9-60.1l-16.3,3.4c0,0-8.4,11.7-4.6,42.3c3.8,30.6,9.5,50.7,9.5,50.7
						s20.2,15.8,17.3,14.8c-2.9-1-22.6,2.5-22.6,2.5S396.7,1608.8,410.4,1636.8z"/>
				</g>
			</g>
			<g>
				<g>
					<path fill="#0C7684" d="M1960,1628.6c3,21.6,3.5,28.4,3.5,28.4l-23.9-2.8c0,0-23.9-4.1-39.4-13.3c-3.2-1.9-6-3.9-8.2-6.2
						c-13-13.5-18.2-21-18.2-21l7.4-16.2l-15.6,3.8c0,0-11-10.1-21.1-42.1c-10.1-31.9-6.3-90.8-6.3-90.8l7.5,5.1c0,0,0,0,0,0
						l44.8,30.9l-3.2,8.9l-0.2,0.5l0.4-0.2l10.8-4.4c0,0,9.5,3.5,19.3,22.7c9.8,19.2,14.4,33.1,14.4,33.1s-5.5,17.1-4.2,15.3
						c1.3-1.7,14.1-7.4,14.1-7.4S1957,1607,1960,1628.6z"/>
					<path fill="#0D3D82" d="M1964.4,1657.5c-0.2,0.2-0.4,0.4-0.7,0.5c-0.3,0.1-0.6,0-0.9-0.2c-0.2-0.1-13.8-9.5-31.6-28.6
						c-9.5-2-42.7-9.2-36.3-8.4c5.9,0.7,24,2.3,31.4,3c-6.2-7-12.7-15-19.3-24.2c-11.2-15.6-22.7-35-32.5-52.6
						c0,0-24.9-8.8-27.1-10.2c-2.2-1.4,23.9,4.3,23.9,4.3c-13.1-23.9-22.4-43.3-22.5-43.7c-0.3-0.6,0-1.2,0.5-1.5
						c0.6-0.3,1.2,0,1.5,0.5c0.3,0.6,23.4,48.9,48.1,87.1c0,0,12.2-50.1,12.4-45.3c0.3,4.8-8.3,51.6-8.3,51.6
						c1.9,2.9,3.8,5.7,5.8,8.3c7.1,9.9,14.1,18.5,20.7,25.8l0,0c19.3,21.4,34.4,31.8,34.6,31.9
						C1964.6,1656.3,1964.8,1657,1964.4,1657.5z"/>
					<path fill="#0D3D82" d="M1887.3,1513.4c-12.8-13.6-27.8-27.7-41.5-39.8l44.8,30.9L1887.3,1513.4z"/>
					<path opacity="0.61" fill="#0D3D82" d="M1960,1628.6c3,21.6,3.5,28.4,3.5,28.4l-23.9-2.8c0,0-23.9-4.1-39.4-13.3
						c8.7-16.5,29.9-62.7,13.2-93.9c-5.2-9.7-14.7-21.3-25.9-33.3l10.8-4.4c0,0,9.5,3.5,19.3,22.7c9.8,19.2,14.4,33.1,14.4,33.1
						s-5.5,17.1-4.2,15.3c1.3-1.7,14.1-7.4,14.1-7.4S1957,1607,1960,1628.6z"/>
				</g>
				<g>
					<path fill="#00AE42" d="M2007.6,1640.7c-18.1,25.3-24.2,32.8-24.2,32.8l-22-26.3c0,0-20.7-27.7-27.9-52.4
						c-1.5-5-2.4-10-2.4-14.5c-0.2-26.7,1.7-39.7,1.7-39.7l23.6-9.5l-19.9-11.3c0,0-1.5-21.3,19.3-64.3s82.6-100.4,82.6-100.4
						l2.7,12.7c0,0,0,0,0,0l16.1,76l-12.1,6.1l-0.6,0.3l0.6,0.2l15.5,6c0,0,6.4,12.9-2.3,42.5c-8.7,29.6-17.6,48.5-17.6,48.5
						s-22.5,12.3-19.4,11.8c3-0.5,21.9,6.2,21.9,6.2S2025.7,1615.4,2007.6,1640.7z"/>
					<path fill="#0C7684" d="M1983.8,1675.1c-0.4,0.1-0.8,0-1.1-0.2c-0.4-0.2-0.7-0.6-0.8-1c-0.1-0.3-5-23.4-4.8-60.7
						c-7.8-11.4-35.3-51.4-29.4-44.4c5.4,6.5,22.6,25.9,29.7,33.9c0.4-13.3,1.6-28.1,3.7-44.1c3.7-27.2,10.8-58.5,17.9-86.4
						c0,0-17.2-33.6-18.2-37.2c-1-3.6,20.6,27.9,20.6,27.9c9.9-37.6,19.3-66.9,19.5-67.4c0.3-0.8,1.2-1.3,2-1c0.8,0.3,1.3,1.2,1,2
						c-0.3,0.8-23.7,73.7-35.5,137.5c0,0,61.7-40,57.3-34.8c-4.4,5.3-59.2,45.4-59.2,45.4c-0.8,4.9-1.6,9.6-2.2,14.3
						c-2.4,17.2-3.5,33.1-3.8,47.1l0,0c-1,41.1,4.5,66.7,4.6,67C1985.2,1674,1984.6,1674.9,1983.8,1675.1z"/>
					<path fill="#0C7684" d="M2045.1,1449.8c0.1-26.7-1.8-56-4.1-82.1l16.1,76L2045.1,1449.8z"/>
					<path opacity="0.61" fill="#0C7684" d="M2007.6,1640.7c-18.1,25.3-24.2,32.8-24.2,32.8l-22-26.3c0,0-20.7-27.7-27.9-52.4
						c25.2-8.6,92.6-35.8,105.8-84.5c4.1-15.2,5.7-36.5,5.8-59.9l15.5,6c0,0,6.4,12.9-2.3,42.5c-8.7,29.6-17.6,48.5-17.6,48.5
						s-22.5,12.3-19.4,11.8c3-0.5,21.9,6.2,21.9,6.2S2025.7,1615.4,2007.6,1640.7z"/>
				</g>
			</g>
		</g>
		<g>
			<path fill="#D3C5F9" d="M1664.3,605.1c-31.5-14.2-51.2-33.7-63.7-52c-1.4-2-2.9-3.9-4.5-5.4v-60.3
				c0-183.5-107.1-214.9-216.9-264.4c-43.9-19.8-71.4-47-88.7-72.6c-15.7-23-42-23-57.7,0c-17.3,25.5-44.9,52.8-88.7,72.6
				c-109.7,49.6-216.9,81-216.9,264.4v59.3c-2,1.8-4,3.9-5.7,6.5c-12.4,18.3-32.2,37.8-63.7,52c-78.7,35.6-155.5,58.1-155.5,189.6
				v713.5c0,13.1,7.6,23.7,16.9,23.7h446c7.6,0,14-7.1,16.1-16.8h159.5c2.1,9.7,8.5,16.8,16.1,16.8h446c9.3,0,16.9-10.6,16.9-23.7
				V794.8C1819.8,663.2,1742.9,640.7,1664.3,605.1z"/>
			<path fill="#221E54" d="M1782.9,794.8V1495h-408.8l-3.6-16.8h-218.9l-3.6,16.8H739.2V794.8c0-97.1,45.7-117.2,115-147.7
				c6.3-2.7,12.5-5.5,18.9-8.4c33.2-15,59.8-36.8,78.8-64.6c3.9-3.3,7-7.5,9-12c2.1-4.5,3.2-9.5,3.2-14.7v-60.1
				c0-145,70.9-176.1,169-219.2c8.7-3.8,17.4-7.7,26.2-11.6c43.1-19.5,77.6-47.4,102.4-83.1c24.8,35.6,59.3,63.6,102.4,83.1
				c8.7,4,17.5,7.8,26.2,11.6c98.1,43.1,169,74.3,169,219.2v61.1c0,9.6,4,18.8,11,25.5v0c15.5,22.8,35.9,41.4,61,55.7
				c5.7,3.3,11.7,6.3,17.9,9.1c6.3,2.9,12.6,5.6,18.8,8.4C1737.2,677.5,1782.9,697.6,1782.9,794.8z"/>
			<path fill="#473F8B" d="M1782.9,794.8V1495h-408.8l-3.6-16.8h-218.9l-3.6,16.8H739.1V794.8c0-97.1,45.7-117.2,115-147.7
				c6.3-2.7,12.5-5.5,18.9-8.4c33.2-15,59.8-36.8,78.8-64.6c3.9-3.3,7-7.5,9-12c2.1-4.5,3.2-9.5,3.2-14.7v-15.6
				c90-39.6,189.6-61.6,294.3-61.6c107.3,0,209.1,23.1,300.9,64.5v13.7c0,9.6,4,18.8,11,25.5v0.1c15.5,22.8,35.9,41.4,61,55.7
				c5.7,3.3,11.7,6.3,17.9,9.1c6.3,2.9,12.6,5.6,18.8,8.4C1737.2,677.5,1782.9,697.6,1782.9,794.8z"/>
			<path opacity="0.39" fill="#221E54" d="M1559.2,548.4c0,2.2,0.2,4.3,0.6,6.4c-67.7-20.7-139.6-31.8-214.1-31.8
				c-104.7,0-204.2,22-294.3,61.6v15.6c0,5.1-1.2,10.1-3.2,14.7c-2,4.5-5.1,8.6-9,12c-19,27.9-45.5,49.6-78.8,64.6
				c-6.4,2.9-12.7,5.6-18.9,8.4c-69.3,30.5-115,50.6-115,147.7V1495h-87.4V794.8c0-97.1,45.7-117.2,115-147.7
				c6.3-2.7,12.5-5.5,18.9-8.4c33.2-15,59.8-36.8,78.8-64.6c3.9-3.3,7-7.5,9-12c2.1-4.5,3.2-9.5,3.2-14.7v-15.6
				c90-39.6,189.6-61.6,294.3-61.6c107.3,0,209.1,23.1,300.9,64.5V548.4z"/>
			<path fill="#473F8B" d="M1754.8,699.6c-6-2.7-12.1-5.3-18.2-8.1c-6.2-2.8-12.2-5.8-17.9-9.1c-15.2-8.7-28.8-19-40.5-30.8
				C1710.1,665.7,1736.5,678.6,1754.8,699.6z"/>
			<g>
				<polygon opacity="0.45" fill="#FFFFFF" points="808.5,715.5 811.7,708.9 814.8,715.5 820.6,719 814.8,722.6 811.7,729.2 
					808.5,722.6 802.8,719 				"/>
				<polygon opacity="0.45" fill="#FFFFFF" points="1208,289.6 1211.1,283.1 1214.3,289.6 1220,293.2 1214.3,296.8 1211.1,303.3 
					1208,296.8 1202.3,293.2 				"/>
				<polygon opacity="0.45" fill="#FFFFFF" points="1318.2,497.4 1321.3,490.9 1324.5,497.4 1330.2,501 1324.5,504.6 1321.3,511.1 
					1318.2,504.6 1312.5,501 				"/>
				<polygon opacity="0.45" fill="#FFFFFF" points="1216.9,693.2 1220,686.7 1223.2,693.2 1228.9,696.8 1223.2,700.4 1220,706.9 
					1216.9,700.4 1211.1,696.8 				"/>
				<polygon opacity="0.45" fill="#FFFFFF" points="1026.8,616.4 1029.8,609.8 1033.3,616.7 1039.4,620.7 1033.6,624.1 
					1030.5,630.8 1027,623.9 1020.9,619.9 				"/>
				<polygon fill="#FFFFFF" points="1002.9,892.5 1006.1,885.9 1009.2,892.5 1015,896.1 1009.2,899.7 1006.1,906.2 1002.9,899.7 
					997.2,896.1 				"/>
				<polygon fill="#FFFFFF" points="1349.5,354.7 1355.2,342.7 1361,354.7 1371.6,361.3 1361,367.9 1355.2,379.9 1349.5,367.9 
					1338.9,361.3 				"/>
				<polygon fill="#FFFFFF" points="1020.7,469.6 1025.6,459.4 1030.5,469.6 1039.4,475.2 1030.5,480.7 1025.6,490.9 1020.7,480.7 
					1011.8,475.2 				"/>
				<polygon fill="#FFFFFF" points="1688.5,792.7 1691.6,786.1 1694.7,792.7 1700.5,796.3 1694.7,799.8 1691.6,806.4 1688.5,799.8 
					1682.7,796.3 				"/>
				<polygon fill="#FFFFFF" points="906.3,671.5 909.5,664.9 912.6,671.5 918.4,675.1 912.6,678.6 909.5,685.2 906.3,678.6 
					900.6,675.1 				"/>
				<polygon fill="#FFFFFF" points="1135.7,619.3 1138.8,612.7 1142,619.3 1147.7,622.9 1142,626.4 1138.8,633 1135.7,626.4 
					1129.9,622.9 				"/>
				<polygon fill="#FFFFFF" points="1125.9,811.3 1129.1,804.7 1132.2,811.3 1137.9,814.8 1132.2,818.4 1129.1,825 1125.9,818.4 
					1120.2,814.8 				"/>
				<polygon fill="#FFFFFF" points="983.8,725.6 986.9,719 990.1,725.6 995.8,729.2 990.1,732.7 986.9,739.3 983.8,732.7 978,729.2 
									"/>
				<g>
					<polygon opacity="0.47" fill="#FFFFFF" points="1578.4,717.9 1581.5,711.3 1584.6,717.9 1590.4,721.4 1584.6,725 1581.5,731.6 
						1578.4,725 1572.6,721.4 					"/>
					<polygon opacity="0.47" fill="#FFFFFF" points="1497.2,643.9 1500.3,637.4 1503.4,643.9 1509.2,647.5 1503.4,651.1 
						1500.3,657.6 1497.2,651.1 1491.4,647.5 					"/>
				</g>
				<path fill="#FFDE05" d="M1243.3,499.7c-65.2,0-118.2-56.9-118.1-126.6c0-19.9,4.4-38.7,12.1-55.4c1.5-3.3-1.9-6.7-4.9-4.8
					c-34.3,22.4-57.2,63-56.7,109.2c0.7,69.3,54.1,125.4,118.9,124.9c37.7-0.3,71.1-19.4,92.6-49.1c2.1-2.9-0.6-7-3.9-5.7
					C1270.9,497,1257.4,499.7,1243.3,499.7z"/>
				<path fill="#FFB305" d="M1275.2,512.2c-21,21.4-49.3,34.6-80.5,34.8c-64.8,0.5-118.2-55.6-118.9-124.9
					c-0.5-46.3,22.4-86.9,56.7-109.2c0.1-0.1,0.2-0.1,0.3-0.2c-22.9,23.3-37,56.3-36.6,92.8c0.7,69.3,54.1,125.4,118.9,124.9
					C1237.1,530.2,1257.6,523.6,1275.2,512.2z"/>
			</g>
			<path fill="#5A5499" d="M1768.2,1214.4V1495H1372l-3.5-16.8h-65v-21.5h29.5v-430.5L1439.5,901h224.8V799.7h103.9v357.6
				c1.1,4.3,2,8.8,2.7,13.3C1773.7,1188.3,1771.9,1202.8,1768.2,1214.4z"/>
			<g>
				<rect x="1705.9" y="843.3" fill="#473F8B" width="39.1" height="50.4"/>
				<rect x="1705.9" y="929" fill="#473F8B" width="39.1" height="50.4"/>
				<rect x="1705.9" y="1013.4" fill="#473F8B" width="39.1" height="50.4"/>
			</g>
			<g>
				<path fill="#6E68A8" d="M1768.2,1214.4c3.7-11.6,5.5-26.1,2.7-43.7c-0.7-4.5-1.6-9-2.7-13.3c-12-48.8-45.4-85.5-88.2-110.6
					c-0.8-0.5-1.6-0.9-2.3-1.4c-0.4-0.2-0.7-0.4-1-0.6c-0.4-0.2-0.9-0.5-1.3-0.7c-0.4-0.2-0.7-0.4-1.1-0.6c-0.4-0.3-0.8-0.5-1.3-0.7
					c-0.3-0.2-0.7-0.4-1-0.5c-0.5-0.3-1-0.5-1.5-0.8c-0.2-0.1-0.5-0.2-0.7-0.4c-18.1-9.5-31.8-13.8-42.7-17.5
					c-0.4-0.2-0.9-0.3-1.3-0.5c-0.2-0.1-0.4-0.2-0.7-0.2c-0.5-0.2-1-0.4-1.5-0.5c-0.1-0.1-0.2-0.1-0.3-0.1c-0.5-0.2-0.9-0.3-1.4-0.5
					c-0.1,0-0.2-0.1-0.4-0.1c-0.5-0.2-1-0.4-1.5-0.6c-0.1,0-0.2-0.1-0.4-0.1c-0.5-0.2-1-0.4-1.5-0.6c-0.1,0-0.2-0.1-0.2-0.1
					c-0.5-0.2-1-0.4-1.4-0.6c-0.1,0-0.1,0-0.2-0.1c-0.5-0.2-1-0.4-1.4-0.7c-0.1,0-0.2-0.1-0.3-0.1c-0.5-0.2-0.9-0.5-1.4-0.7
					c-0.1,0-0.2-0.1-0.3-0.1c-0.9-0.5-1.8-1-2.7-1.6c-0.1,0-0.1-0.1-0.2-0.2c-0.4-0.2-0.8-0.5-1.3-0.8c-0.1-0.1-0.1-0.1-0.2-0.2
					c-0.4-0.3-0.8-0.6-1.2-0.9c0,0-0.1-0.1-0.1-0.1c-0.4-0.3-0.8-0.6-1.2-0.9c-0.1-0.1-0.1-0.1-0.1-0.1c-0.4-0.3-0.8-0.6-1.2-1
					c-0.1,0-0.1-0.1-0.2-0.2c-0.4-0.4-0.7-0.7-1.1-1.1c-0.1,0-0.1-0.1-0.2-0.2c-0.4-0.4-0.7-0.8-1-1.1c0,0-0.1-0.1-0.1-0.1
					c-0.4-0.4-0.7-0.8-1.1-1.3c-0.1-0.1-0.1-0.1-0.2-0.2c-0.3-0.4-0.7-0.9-1-1.3c-0.1-0.1-0.1-0.2-0.2-0.3c-0.3-0.5-0.7-1-1-1.5
					c-3.3-5-6.7-10.1-10-15.2c-0.3-0.5-0.7-1-1-1.5c-0.4-0.4-0.7-0.8-1.2-1.1V960c1.7,0.5,3.4,0.9,5.2,0.9
					c5.6,0.3,10.8-1.8,14.9-5.5c1-0.9,0.3-2.7-0.9-2.5c-1.2,0.2-2.5,0.3-3.8,0.3c-12.3-0.4-22.3-12.4-22.6-27
					c-0.1-5.4,1.1-10.5,3.3-14.8c0.6-1.3-0.5-2.7-1.6-2c-7.2,4.9-12,14.3-11.7,24.9c0.2,8.7,3.9,16.4,9.5,21.2v31.5
					c-0.5,0.4-0.9,0.8-1.3,1.3c-0.3,0.4-0.5,0.8-0.8,1.2c-3.3,5.2-6.8,10.2-10.1,15.4c-13.9,21.3-34.6,14.5-81.3,41.9
					c-46.6,27.3-82.1,68.4-90.9,123.9c-4.6,28.8,3,49.2,11.4,62.2c3.7,5.7,7.6,10,10.6,12.8h-47.3c-2,0-3.7,1.9-3.7,4.3v10.2
					c0,2.4,1.6,4.3,3.7,4.3h9.7v10.3h0.5V1495h104v-75.8c0-33.2,22.8-60.2,51-60.2h19c28.1,0,50.9,26.9,50.9,60.2v75.8h163.7v-249.3
					h-19.3C1754.6,1240.2,1763.2,1230,1768.2,1214.4z"/>
				<path fill="#6E68A8" d="M1582.8,1245.6C1582.8,1245.7,1582.9,1245.7,1582.8,1245.6L1582.8,1245.6L1582.8,1245.6z"/>
			</g>
			<path fill="#6E68A8" d="M1151.2,1110.6c13.2-12.2,38.3-43.2,29.4-96.8c-11.9-71.6-59.2-124.5-121.6-159.8
				c-1.1-0.6-2.1-1.2-3.1-1.8c-0.5-0.3-0.9-0.5-1.4-0.8c-0.6-0.3-1.2-0.6-1.7-0.9c-0.5-0.3-1-0.5-1.5-0.8c-0.5-0.3-1.1-0.6-1.7-0.9
				c-0.4-0.2-0.9-0.5-1.3-0.7c-0.7-0.3-1.3-0.7-2-1c-0.3-0.2-0.6-0.3-0.9-0.5c-24.2-12.3-42.6-17.8-57-22.5
				c-0.6-0.2-1.2-0.4-1.8-0.6c-0.3-0.1-0.6-0.2-0.9-0.3c-0.7-0.2-1.4-0.5-2-0.7c-0.2-0.1-0.3-0.1-0.4-0.2c-0.6-0.2-1.3-0.4-1.9-0.7
				c-0.2,0-0.3-0.1-0.5-0.2c-0.7-0.3-1.4-0.5-2-0.8c-0.2,0-0.3-0.1-0.5-0.2c-0.7-0.2-1.4-0.5-2-0.8c-0.1,0-0.2-0.1-0.3-0.1
				c-0.6-0.2-1.3-0.5-1.9-0.8c-0.1,0-0.1,0-0.2-0.1c-0.7-0.3-1.3-0.6-2-0.9c-0.1-0.1-0.2-0.1-0.4-0.2c-0.6-0.3-1.2-0.6-1.8-0.9
				c-0.1,0-0.2-0.1-0.3-0.1c-1.2-0.7-2.5-1.3-3.6-2c-0.1,0-0.2-0.1-0.3-0.2c-0.6-0.3-1.1-0.7-1.7-1.1c-0.1-0.1-0.2-0.1-0.3-0.2
				c-0.6-0.4-1.1-0.8-1.7-1.1c0-0.1-0.1-0.1-0.1-0.1c-0.5-0.4-1-0.8-1.6-1.2c-0.1-0.1-0.1-0.1-0.2-0.2c-0.5-0.4-1-0.8-1.6-1.3
				c-0.1-0.1-0.2-0.2-0.3-0.2c-0.5-0.5-1-0.9-1.5-1.4c-0.1-0.1-0.1-0.2-0.2-0.2c-0.5-0.5-0.9-1-1.4-1.5c0-0.1-0.1-0.1-0.1-0.1
				c-0.5-0.5-0.9-1.1-1.4-1.7c-0.1-0.1-0.2-0.2-0.3-0.3c-0.5-0.5-0.9-1.1-1.4-1.7c-0.1-0.1-0.1-0.2-0.2-0.3
				c-0.4-0.6-0.9-1.2-1.4-1.9c-4.4-6.5-8.9-13.1-13.3-19.6c-0.4-0.6-0.9-1.3-1.3-1.9c-0.5-0.5-1-1-1.6-1.4v-35
				c2.2,0.7,4.5,1.1,6.9,1.2c7.5,0.3,14.4-2.4,19.9-7.1c1.3-1.1,0.4-3.5-1.2-3.3c-1.6,0.3-3.3,0.4-5,0.3
				c-16.5-0.5-29.9-15.9-30.2-34.8c-0.2-7,1.5-13.5,4.4-19.1c0.8-1.6-0.7-3.4-2.1-2.5c-9.7,6.3-16.1,18.4-15.6,32.2
				c0.3,11.2,5.3,21.1,12.7,27.3v40.6c-0.6,0.5-1.2,1-1.7,1.6c-0.4,0.5-0.7,1-1,1.5c-4.4,6.7-9,13.2-13.5,19.8
				c-18.6,27.5-46.3,18.7-108.6,54c-22.2,12.6-42.6,27.4-60.1,44.6V1495h57.5v-160.5c0-42.9,30.5-77.6,68.1-77.6h25.4
				c37.6,0,68.1,34.7,68.1,77.6V1495H1148l3.6-16.8h41.1v-367.6H1151.2z M929.1,1110.6v-0.1c0.1,0.1,0.1,0.1,0.1,0.1H929.1z"/>
			<path fill="#6E68A8" d="M1327.2,1051.4v6.9c0,2.4-1.7,4.3-3.8,4.3h-5.7v86l-14.3,10.6v319h-73.3V1463l-6.2-6.3l-0.2-0.2v-9.9h6.3
				v-92.3l-6.3-6.5v-9.9h6.3v-75.5l-6.3-6.5v-9.9h6.3v-86.9l-10.7-10.6v-86h-4.8c-2.1,0-3.8-2-3.8-4.3v-6.9c0-2.4,1.7-4.3,3.8-4.3
				h7.2c-0.8-1-1.7-2.4-2.6-4.2c-0.3-0.6-0.6-1.2-0.8-1.8c-1.9-4.6-3.4-11.4-2.3-20.5c2.4-19.9,12.1-34.7,24.8-44.5
				c12.7-9.8,18.3-7.4,22.1-15c0.9-1.8,1.8-3.6,2.7-5.5h0c0.1-0.2,0.1-0.3,0.2-0.4c0.4-0.6,0.8-1,1.4-1c0.2,0,0.4,0.1,0.6,0.2
				c0.3,0.1,0.5,0.4,0.7,0.7c0.1,0.2,0.2,0.4,0.3,0.5c0.9,1.8,1.8,3.6,2.7,5.5c3.8,7.7,9.4,5.2,22.1,15
				c12.7,9.8,22.3,24.5,24.8,44.5c0.1,0.5,0.1,1.1,0.1,1.6c0,0.2,0,0.3,0,0.4c0,0.4,0.1,0.7,0.1,1.1c0,0.1,0,0.3,0,0.4
				c0,0.4,0,0.7,0.1,1.1v0.4c0,0.4,0,0.8,0,1.3v0.2c0,0.5,0,0.9,0,1.4v0.1c0,0.4-0.1,0.8-0.1,1.3c0,0.1,0,0.2,0,0.3
				c0,0.3-0.1,0.7-0.1,1c0,0.1,0,0.2,0,0.3c0,0.3-0.1,0.7-0.1,1c0,0.1,0,0.1,0,0.2c-0.1,0.8-0.2,1.6-0.4,2.3c0,0.1,0,0.1,0,0.1
				c-0.1,0.3-0.2,0.7-0.2,1c0,0.1,0,0.1-0.1,0.2c-0.1,0.3-0.1,0.6-0.2,0.9c0,0.1,0,0.1,0,0.2c-0.1,0.3-0.2,0.6-0.3,1c0,0,0,0,0,0
				c-0.2,0.7-0.4,1.3-0.7,1.9c0,0,0,0,0,0c-0.1,0.3-0.2,0.6-0.3,0.9c0,0,0,0,0,0c-0.3,0.7-0.6,1.4-0.9,2c0,0,0,0-0.1,0.1
				c-0.1,0.3-0.3,0.6-0.5,0.8c0,0,0,0.1,0,0.1c-0.1,0.3-0.3,0.5-0.4,0.7c0,0,0,0.1-0.1,0.1c-0.1,0.2-0.3,0.5-0.4,0.7
				c0,0-0.1,0.1-0.1,0.1c-0.1,0.2-0.2,0.4-0.4,0.6c0,0,0,0.1-0.1,0.1c-0.1,0.2-0.3,0.4-0.4,0.6c0,0-0.1,0.1-0.1,0.1c0,0,0,0,0,0.1
				h10.4C1325.5,1047,1327.2,1049,1327.2,1051.4z"/>
			<g>
				<path fill="#473F8B" d="M783.2,1155v37.4h-26.9V1155c0-11.2,6-20.3,13.4-20.3c3.7,0,7.1,2.3,9.5,5.9
					C781.7,1144.4,783.2,1149.4,783.2,1155z"/>
				<path fill="#473F8B" d="M831.1,1155v37.4h-26.9V1155c0-11.2,6-20.3,13.4-20.3c3.7,0,7.1,2.3,9.5,5.9
					C829.6,1144.4,831.1,1149.4,831.1,1155z"/>
				<path fill="#473F8B" d="M879,1155v37.4h-26.9V1155c0-11.2,6-20.3,13.4-20.3c3.7,0,7.1,2.3,9.5,5.9
					C877.5,1144.4,879,1149.4,879,1155z"/>
				<path fill="#473F8B" d="M926.9,1155v37.4h-26.9V1155c0-11.2,6-20.3,13.4-20.3c3.7,0,7.1,2.3,9.5,5.9
					C925.4,1144.4,926.9,1149.4,926.9,1155z"/>
				<path fill="#473F8B" d="M974.9,1155v37.4H948V1155c0-11.2,6-20.3,13.4-20.3c3.7,0,7.1,2.3,9.5,5.9
					C973.4,1144.4,974.9,1149.4,974.9,1155z"/>
				<path fill="#473F8B" d="M1022.8,1155v37.4h-26.9V1155c0-11.2,6-20.3,13.4-20.3c3.7,0,7.1,2.3,9.5,5.9
					C1021.3,1144.4,1022.8,1149.4,1022.8,1155z"/>
			</g>
			<g>
				<path fill="#473F8B" d="M1073.2,1155v37.4h-26.9V1155c0-11.2,6-20.3,13.4-20.3c3.7,0,7.1,2.3,9.5,5.9
					C1071.7,1144.4,1073.2,1149.4,1073.2,1155z"/>
				<path fill="#473F8B" d="M1121.2,1155v37.4h-26.9V1155c0-11.2,6-20.3,13.4-20.3c3.7,0,7.1,2.3,9.5,5.9
					C1119.6,1144.4,1121.2,1149.4,1121.2,1155z"/>
				<path fill="#473F8B" d="M1169.1,1155v37.4h-26.9V1155c0-11.2,6-20.3,13.4-20.3c3.7,0,7.1,2.3,9.5,5.9
					C1167.6,1144.4,1169.1,1149.4,1169.1,1155z"/>
			</g>
			<path fill="#473F8B" d="M1061.6,1315.8v80.6h-74.1v-80.6c0-20.4,16.6-37,37-37c10.2,0,19.5,4.1,26.2,10.8
				C1057.5,1296.3,1061.6,1305.5,1061.6,1315.8z"/>
			<path fill="#9592C5" d="M1151.2,1110.6H739.1v-212c17.5-17.2,37.8-32,60.1-44.6c10-5.6,19-10.1,27.3-13.9
				c43.6-19.5,65.7-17,81.3-40.2c4.4-6.6,9.1-13.1,13.5-19.8c0.3-0.5,0.7-1,1-1.5c0.5-0.6,1-1.2,1.7-1.6v-40.6l10.2,5.7v34.9
				c0.6,0.4,1.1,0.9,1.6,1.4c0.4,0.7,0.8,1.3,1.3,1.9c4.4,6.6,8.9,13.1,13.3,19.6c0.5,0.7,0.9,1.3,1.4,1.9c0.1,0.1,0.2,0.2,0.2,0.3
				c0.5,0.6,0.9,1.1,1.4,1.7c0.1,0.1,0.2,0.2,0.3,0.3c0.5,0.6,0.9,1.1,1.4,1.7c0,0,0.1,0.1,0.1,0.1c0.5,0.5,0.9,1,1.4,1.4
				c0.1,0.1,0.1,0.2,0.2,0.2c0.5,0.5,1,0.9,1.5,1.4c0.1,0.1,0.2,0.2,0.3,0.2c0.5,0.5,1,0.9,1.6,1.3c0.1,0.1,0.1,0.1,0.2,0.2
				c0.5,0.4,1,0.8,1.6,1.2c0.1,0,0.1,0.1,0.1,0.1c0.5,0.4,1.1,0.8,1.7,1.1c0.1,0.1,0.2,0.1,0.3,0.2c0.6,0.3,1.1,0.7,1.7,1.1
				c0.1,0.1,0.2,0.1,0.3,0.2c1.2,0.7,2.4,1.4,3.6,2c0.1,0,0.2,0.1,0.3,0.1c0.6,0.3,1.2,0.6,1.8,0.9c0.1,0.1,0.3,0.1,0.4,0.2
				c0.6,0.3,1.3,0.6,2,0.9c0.1,0.1,0.1,0.1,0.2,0.1c0.6,0.3,1.3,0.5,1.9,0.8c0.1,0,0.2,0.1,0.3,0.1c0.7,0.3,1.4,0.5,2,0.8
				c0.1,0.1,0.3,0.1,0.5,0.2c0.7,0.3,1.3,0.5,2,0.8c0.2,0.1,0.3,0.1,0.5,0.2c0.6,0.2,1.2,0.4,1.9,0.7c0.1,0.1,0.3,0.1,0.4,0.2
				c0.7,0.2,1.4,0.5,2,0.7c0.3,0.1,0.6,0.2,0.9,0.3c0.6,0.2,1.2,0.4,1.8,0.6c14.5,4.8,32.8,10.3,57,22.5c0.3,0.2,0.6,0.3,0.9,0.5
				c0.7,0.3,1.3,0.7,2,1c0.5,0.2,0.9,0.5,1.3,0.7c0.6,0.3,1.1,0.6,1.7,0.9c0.5,0.2,1,0.5,1.5,0.8c0.6,0.3,1.2,0.6,1.7,0.9
				c0.5,0.3,0.9,0.5,1.4,0.8c1,0.6,2.1,1.2,3.1,1.8c62.3,35.2,109.7,88.2,121.6,159.8C1189.5,1067.4,1164.4,1098.4,1151.2,1110.6z"
				/>
			<path opacity="0.62" fill="#6E68A8" d="M826.6,840.2v270.4h-87.4v-212c17.5-17.2,37.8-32,60.1-44.6
				C809.2,848.5,818.3,844,826.6,840.2z"/>
			<path fill="#9592C5" d="M1327.2,1051.4v6.9c0,2.4-1.7,4.3-3.8,4.3h-5.7v48h-98.3v-48h-4.8c-2.1,0-3.8-2-3.8-4.3v-6.9
				c0-2.4,1.7-4.3,3.8-4.3h7.2c-0.8-1-1.7-2.4-2.6-4.2c-0.3-0.6-0.6-1.2-0.8-1.8c-1.9-4.6-3.4-11.4-2.3-20.5
				c2.4-19.9,12.1-34.7,24.8-44.5c12.7-9.8,18.3-7.4,22.1-15c0.9-1.8,1.8-3.6,2.7-5.5h0c0.1-0.2,0.1-0.3,0.2-0.4
				c0.4-0.6,0.8-1,1.4-1c0.2,0,0.4,0.1,0.6,0.2c0.3,0.1,0.5,0.4,0.7,0.7c0.1,0.2,0.2,0.4,0.3,0.5c0.9,1.8,1.8,3.6,2.7,5.5
				c3.8,7.7,9.4,5.2,22.1,15c12.7,9.8,22.3,24.5,24.8,44.5c0.1,0.5,0.1,1.1,0.1,1.6c0,0.2,0,0.3,0,0.4c0,0.4,0.1,0.7,0.1,1.1
				c0,0.1,0,0.3,0,0.4c0,0.4,0,0.7,0.1,1.1v0.4c0,0.4,0,0.8,0,1.3v0.2c0,0.5,0,0.9,0,1.4v0.1c0,0.4-0.1,0.8-0.1,1.3
				c0,0.1,0,0.2,0,0.3c0,0.3-0.1,0.7-0.1,1c0,0.1,0,0.2,0,0.3c0,0.3-0.1,0.7-0.1,1c0,0.1,0,0.1,0,0.2c-0.1,0.8-0.2,1.6-0.4,2.3
				c0,0.1,0,0.1,0,0.1c-0.1,0.3-0.2,0.7-0.2,1c0,0.1,0,0.1-0.1,0.2c-0.1,0.3-0.1,0.6-0.2,0.9c0,0.1,0,0.1,0,0.2
				c-0.1,0.3-0.2,0.6-0.3,1c0,0,0,0,0,0c-0.2,0.7-0.4,1.3-0.7,1.9c0,0,0,0,0,0c-0.1,0.3-0.2,0.6-0.3,0.9c0,0,0,0,0,0
				c-0.3,0.7-0.6,1.4-0.9,2c0,0,0,0-0.1,0.1c-0.1,0.3-0.3,0.6-0.5,0.8c0,0,0,0.1,0,0.1c-0.1,0.3-0.3,0.5-0.4,0.7c0,0,0,0.1-0.1,0.1
				c-0.1,0.2-0.3,0.5-0.4,0.7c0,0-0.1,0.1-0.1,0.1c-0.1,0.2-0.2,0.4-0.4,0.6c0,0,0,0.1-0.1,0.1c-0.1,0.2-0.3,0.4-0.4,0.6
				c0,0-0.1,0.1-0.1,0.1c0,0,0,0,0,0.1h10.4C1325.5,1047,1327.2,1049,1327.2,1051.4z"/>
			<path fill="#6E68A8" d="M961.1,736.3c-5.5,4.7-12.4,7.4-19.9,7.1c-2.4-0.1-4.7-0.5-6.9-1.2l-10.2-5.7
				c-7.4-6.2-12.4-16.2-12.7-27.3c-0.5-13.8,5.9-25.8,15.6-32.2c1.4-0.9,2.9,0.9,2.1,2.5c-2.9,5.5-4.6,12.1-4.4,19.1
				c0.3,18.9,13.7,34.3,30.2,34.8c1.7,0,3.4-0.1,5-0.3C961.5,732.8,962.3,735.2,961.1,736.3z"/>
			<rect x="739.2" y="1210.7" fill="#9592C5" width="453.5" height="22.1"/>
			<rect x="739.2" y="1110.6" fill="#473F8B" width="453.5" height="9"/>
			<path fill="#473F8B" d="M1379.6,1265.3v9.6h0.5V1495H1488v-75.8c0-33.2,23.7-60.2,52.8-60.2h19.7c29.2,0,52.8,26.9,52.8,60.2
				v75.8h169.7v-229.7H1379.6z"/>
			<g>
				<path fill="#9592C5" d="M1446.7,1302.6v30.9h-33.5v-30.9c0-9.2,7.5-16.7,16.7-16.7c4.6,0,8.8,1.9,11.8,4.9
					C1444.8,1293.8,1446.7,1298,1446.7,1302.6z"/>
				<path fill="#9592C5" d="M1506.4,1302.6v30.9h-33.5v-30.9c0-9.2,7.5-16.7,16.7-16.7c4.6,0,8.8,1.9,11.8,4.9
					C1504.5,1293.8,1506.4,1298,1506.4,1302.6z"/>
				<path fill="#9592C5" d="M1566.1,1302.6v30.9h-33.5v-30.9c0-9.2,7.5-16.7,16.7-16.7c4.6,0,8.8,1.9,11.8,4.9
					C1564.2,1293.8,1566.1,1298,1566.1,1302.6z"/>
				<path fill="#9592C5" d="M1625.8,1302.6v30.9h-33.5v-30.9c0-9.2,7.5-16.7,16.7-16.7c4.6,0,8.8,1.9,11.8,4.9
					C1623.9,1293.8,1625.8,1298,1625.8,1302.6z"/>
				<path fill="#9592C5" d="M1685.5,1302.6v30.9H1652v-30.9c0-9.2,7.5-16.7,16.7-16.7c4.6,0,8.8,1.9,11.8,4.9
					C1683.6,1293.8,1685.5,1298,1685.5,1302.6z"/>
				<path fill="#9592C5" d="M1745.2,1302.6v30.9h-33.5v-30.9c0-9.2,7.5-16.7,16.7-16.7c4.6,0,8.8,1.9,11.8,4.9
					C1743.3,1293.8,1745.2,1298,1745.2,1302.6z"/>
			</g>
			<path fill="#5A5499" d="M1733.6,1430.2v64.8H1674v-64.8c0-16.4,13.3-29.8,29.8-29.8c8.2,0,15.7,3.3,21.1,8.7
				C1730.2,1414.6,1733.6,1422,1733.6,1430.2z"/>
			<polygon opacity="0.28" fill="#221E54" points="1782.9,1359.3 1782.9,1495 1374.2,1495 1370.6,1478.3 1151.6,1478.3 1148,1495 
				739.1,1495 739.1,1359.3 			"/>
		</g>
		<g>
			<ellipse fill="#E4DEFA" cx="1228.5" cy="1712.6" rx="902.6" ry="146.1"/>
			<path fill="#B293F1" d="M1228.5,1811.5c-228.6,0-443.5-11.7-605.2-32.9c-78.7-10.3-140.5-22.4-183.7-35.8
				c-45.6-14.2-68.8-29.6-68.8-45.8s23.1-31.7,68.8-45.8c43.2-13.4,105-25.5,183.7-35.8c161.7-21.2,376.6-32.9,605.2-32.9
				s443.5,11.7,605.2,32.9c78.7,10.3,140.5,22.4,183.7,35.8c45.6,14.2,68.8,29.6,68.8,45.8s-23.1,31.7-68.8,45.8
				c-43.2,13.4-105,25.5-183.7,35.8C1672,1799.8,1457,1811.5,1228.5,1811.5z M1228.5,1586.8c-228.4,0-443.1,11.7-604.6,32.9
				c-78.4,10.3-140,22.3-183,35.6c-54.3,16.8-65.7,31.9-65.7,41.6s11.4,24.8,65.7,41.6c43,13.3,104.5,25.3,183,35.6
				c161.5,21.2,376.2,32.9,604.6,32.9c228.4,0,443.1-11.7,604.6-32.9c78.4-10.3,140-22.3,183-35.6c54.3-16.8,65.7-31.9,65.7-41.6
				s-11.4-24.8-65.7-41.6c-43-13.3-104.5-25.3-183-35.6C1671.6,1598.5,1456.9,1586.8,1228.5,1586.8z"/>
			<path fill="#F4F3FE" d="M1956.5,1676.3c0,5.9-9.7,15-56,25.3c-36.7,8.1-89.2,15.4-156.1,21.6c-137.8,12.9-321,20-515.9,20
				s-378.1-7.1-515.9-20c-66.9-6.2-119.5-13.5-156.1-21.6c-46.3-10.2-56-19.4-56-25.3c0-5.9,9.7-15,56-25.3
				c36.7-8.1,89.2-15.4,156.1-21.6c137.8-12.9,321-20,515.9-20s378.1,7.1,515.9,20c66.9,6.3,119.5,13.5,156.1,21.6
				C1946.8,1661.3,1956.5,1670.4,1956.5,1676.3z"/>
			<ellipse opacity="0.71" fill="#B293F1" cx="1258.3" cy="1716.9" rx="511.9" ry="47.1"/>
		</g>
		<g>
			<g>
				<path fill="#221E54" d="M1606.2,602.7c0,0-2.1,9.9-7,23.1c-13.3,22-60.9,90.4-130.3,69.6c-7.3-2.2-13-3.1-17.5-3
					c-20.8-22.8-44.4-73-4.5-110.5C1495.5,536.2,1610.9,565.7,1606.2,602.7z"/>
				<g>
					<path fill="#FFB2A8" d="M1515.3,677.8c-8.3,9-31.3,10.1-31.3,10.1s-3.2,8.3-5.8,27.3c-2.5,19,5.8,44.9,5.8,44.9l-116.8,12.2
						c0,0,1.8-5.7,2.9-23.3c0-0.7,0.1-1.5,0.1-2.2c0.3-17.5-7.3-41.3-7.3-41.3s-1.7-0.6-4.5-1.6c-0.1,0-0.1,0-0.1,0
						c-10.8-4-37.4-14.5-42.5-23.9c-6.5-11.9,3.9-76.9,9-94.1c5-17.2,14-23,21.2-33.4c7.2-10.4,9-26.2,12.6-36.7
						c2-5.8,10.7-18.1,18-28c34.1,33.6,128.6,74.7,128.6,74.7s-35.2,74.4-35.6,77.6c-0.4,3.2,6.5,3.6,10.1,3.6
						c3.6,0,12.3-13.9,19.5-17.8c7.2-4,18-1.4,25.5,10.1C1532.3,647.4,1523.6,668.8,1515.3,677.8z"/>
				</g>
				<path fill="#F27C85" d="M1451.1,695.5c0,0.8-39.7,48.6-80.9,51.2c0.3-17.5-7.3-41.3-7.3-41.3s-1.7-0.6-4.5-1.6
					c1.8,0.5,26.3,6.7,52.2,3C1437.7,703,1451.1,694.7,1451.1,695.5z"/>
				<path fill="#FFFFFF" d="M1373.1,492.6c0,0,35.5-71.9,79.1-76.3c43.6-4.4,94.4,11.1,130,48.6c35.5,37.4,42.9,68.9,41.1,90.4
					c-1.7,21.5-24.3,73-26.1,73.7C1595.5,629.7,1396.5,532.7,1373.1,492.6z"/>
				<path fill="#221E54" d="M1392.4,571.9c-2.8,5.8-7.8,9.2-11.3,7.5c-3.5-1.7-4.1-7.7-1.3-13.6c2.8-5.8,7.8-9.2,11.3-7.5
					C1394.5,560.1,1395.1,566.1,1392.4,571.9z"/>
				<path fill="#221E54" d="M1353,551.1c-1.8,3.7-4.6,6.1-6.2,5.3s-1.6-4.5,0.2-8.2c1.8-3.7,4.6-6.1,6.2-5.3
					C1354.9,543.7,1354.8,547.4,1353,551.1z"/>
				<path fill="#F27C85" d="M1358.7,554c-4.5,6.2-10.3,11.4-16.8,15.4c-3.3,2-6.7,3.4-10.2,4.9c-3.6,1.6-6,4.5-6.1,8.6
					c-0.1,4.7,2.8,8.5,5.8,11.8c1.9,2.1,5-1,3.1-3.1c-2.5-2.7-6.2-7.2-3.8-11.1c1-1.7,3.2-2.3,4.9-3c2.2-0.9,4.3-1.9,6.3-3
					c8.1-4.4,15.1-10.7,20.5-18.1c0.7-1,0.2-2.5-0.8-3C1360.6,552.5,1359.4,553,1358.7,554L1358.7,554z"/>
				<path fill="#F27C85" d="M1319.9,627.4c8.5,6.3,18.6,10,29.1,10.9c2.8,0.2,2.8-4.2,0-4.4c-9.7-0.8-19-4.5-26.8-10.3
					c-1-0.7-2.5-0.2-3,0.8C1318.4,625.5,1318.9,626.7,1319.9,627.4L1319.9,627.4z"/>
				<path fill="#221E54" d="M1389.7,543.9c1.1,0.6,2.2,1.3,3.2,2c0.3,0.2,0.5,0.4,0.8,0.6c0.1,0.1,0.3,0.2,0.4,0.3
					c0.1,0,0.4,0.3,0.1,0.1c0.5,0.4,1,0.8,1.5,1.2c1.9,1.7,3.7,3.5,5.3,5.5c0.7,0.9,2.4,0.8,3.1,0c0.9-1,0.8-2.1,0-3.1
					c-3.3-4.2-7.5-7.7-12.2-10.4c-1-0.6-2.5-0.3-3,0.8C1388.4,541.9,1388.7,543.3,1389.7,543.9L1389.7,543.9z"/>
				<path fill="#221E54" d="M1356.4,532.8c0.7,0,1.3,0.1,2,0.2c0.2,0,0.3,0.1,0.5,0.1c0.1,0,0.2,0,0.3,0.1c0,0,0.3,0.1,0.1,0
					c0.3,0.1,0.7,0.2,1,0.2c1.3,0.4,2.6,0.9,3.8,1.5c0.6,0.3,1.3-0.2,1.4-0.7c0.1-0.7-0.2-1.2-0.8-1.5c-2.6-1.3-5.4-2.1-8.2-2.2
					c-0.6,0-1.2,0.4-1.2,1.1C1355.3,532.2,1355.7,532.8,1356.4,532.8L1356.4,532.8z"/>
				<path fill="#F27C85" d="M1517.3,648.2c-0.8-2.1-2.2-4.2-3.6-6c-1.5-1.9-3.3-3.7-5.6-4.5c-4.9-1.8-10.5,0.5-14.6,3.3
					c-1.8,1.2,0.3,3.9,2.1,2.6c3-2.1,7.4-4,11.1-2.9c2,0.6,3.5,2.2,4.7,3.9c1.2,1.6,2.4,3.4,3,5.3c1.5,4.5-0.3,9.3-3.5,12.8
					c0,0,0-0.1,0-0.1c0.1-1.7-1-2.9-2.2-3.9c-1.4-1.3-3-2.4-4.8-3c-3-1-6.5-0.4-8.5,2.2c-1.4,1.7,1.3,3.7,2.7,2
					c1.3-1.6,3.5-1.6,5.3-0.9c1.1,0.5,2,1.2,2.9,2c0.3,0.3,1,0.8,1.1,1.2c0.1,0.5-0.2,0.9-0.4,1.3c-1,1.5-2.2,2.8-3.7,3.8
					c-1.2,0.4-2.5,0.6-3.7,0.8c-1.9,0.3-4.4,0.3-5.5,2.2c-0.5,0.9-0.4,2.2,0.7,2.6c3.5,1.1,6.5-0.3,9.4-2.2c0.2-0.1,0.4-0.3,0.6-0.4
					c1.1-0.3,2.1-0.7,3.1-1.2c3.7-1.9,6.6-5,8.4-8.8C1518.3,656.6,1518.8,652.1,1517.3,648.2z"/>
				<path fill="#221E54" d="M1484.9,687.8l-2.5,10.6c0,0-23.9-4.1-26.3-4.1s-22.9,12.2-61.3,14.4c-38.4,2.3-69.2-8-74.8-14.1
					c-5.6-6.1-7.1-12.5-7.5-18.9c-0.1-1.9,0-3.7,0.2-5.3c0.4-3.7,1.5-6.2,2.3-6.1c0.9,0.2,2.4-3.2,3.1-5.6c0.4,3.7,1.3,7.6,3.1,10.1
					c-0.3,2.7-0.6,4.6-0.6,4.6s6.6,4,21.1,6.3c8,1.3,18.5,2.1,31.6,1.5c36.7-1.8,81.4-16.4,86.6-22.2c5.2-5.7,17.4-36,17.4-36
					l7.4,17.4c0,0-6.5,11.4-6.1,24.3C1478.6,677.4,1484.9,687.8,1484.9,687.8z"/>
				<path fill="#221E54" d="M1341.5,679.6c0,0-5.5,8.1-14.4,3.1c-9-5-14.4-12.3-14.4-12.3s0,0,0-0.1c0-1.2,0.1-13,0.8-17.3
					c0.8-4.5,2.3-6.3,3.4-4.6c0.6,0.9,0.6,5.4,1.1,10.1c0.4,3.7,1.3,7.6,3.1,10.1c0.2,0.3,0.5,0.6,0.7,0.9
					C1326.7,675,1341.5,679.6,1341.5,679.6z"/>
				<path fill="#FFFFFF" d="M1393.9,566.6c0,2.2-1.3,4-2.9,4s-2.9-1.8-2.9-4c0-2.2,1.3-4,2.9-4S1393.9,564.4,1393.9,566.6z"/>
			</g>
			<g>
				<g>
					<path fill="#F7958D" d="M1051.4,876c0,0-28.2-34.1-35.1-46.2c-6.9-12.1-17.3-34.4-21.2-44.1c-4-9.7-6.2-13.9-10.1-10
						c-4,3.9-8.6,10.5-8.6,17.1c0,6.6-2.1,29.7-2.1,29.7s-38.8-19.2-44.7-27.4c-5.9-8.1-30.8-43.3-40.5-52.2
						c-9.6-8.9-12.8,0-13.3,4.5c-0.5,4.5,1.2,8.4,1.2,8.4s-6.2-15.5-12.3-12.1c-6.2,3.4-5.9,10.5-5.4,14.4c0.5,3.9,1,5.5,1,5.5
						s-4,4.7-3.7,9.7s28.4,70.3,32.4,78.5c4,8.1,20.5,24.9,31.1,32.3c10.6,7.3,62.7,25.7,73.9,30.7c11.1,5,25.2,24.4,25.2,24.4
						L1051.4,876z"/>
				</g>
				<g>
					<path fill="#D35968" d="M874.1,752.8c11.3,20.6,22.1,42,36.8,60.2c4,5,8.4,9.7,13.1,14c1.4,1.3,3.5-0.9,2.1-2.2
						c-16.6-15.2-28.3-35.1-39.3-55c-3.4-6.2-6.8-12.4-10.2-18.6C875.7,749.5,873.2,751,874.1,752.8L874.1,752.8z"/>
					<path fill="#D35968" d="M858.9,763.6c5.3,10.3,10.7,20.6,16,31c2.6,5.1,5.3,10.2,7.9,15.2c2.5,4.8,5,9.6,8,14.1
						c3.2,4.9,6.8,9.5,10.7,13.7c1.3,1.4,3.4-0.8,2.1-2.2c-7.1-7.7-12.7-16.5-17.6-25.9c-5.2-10.1-10.4-20.2-15.6-30.3
						c-3-5.8-6-11.5-8.9-17.3C860.5,760.3,858,761.8,858.9,763.6L858.9,763.6z"/>
				</g>
				<g>
					<path fill="#D35968" d="M973.3,819.9c-4.8,17.6-2.3,36.8,6.8,52.5c1.1,1.9,3.9,0.2,2.9-1.7c-8.6-15-11-33.2-6.5-50
						C977.1,818.7,973.9,817.8,973.3,819.9L973.3,819.9z"/>
					<path fill="#D35968" d="M898.5,843.6c5.1-6.6,12.8-10.2,20.2-13.6c8.4-3.8,17.1-7.3,26.2-9c5.1-0.9,10.4-1.2,15.5-0.6
						c2.1,0.2,2.1-3.1,0-3.3c-9.5-1-19.1,0.8-28.1,3.8c-4.6,1.5-9,3.4-13.4,5.4c-4,1.8-8,3.6-11.8,5.8c-4.1,2.4-8,5.4-11,9.2
						C894.8,843,897.2,845.3,898.5,843.6L898.5,843.6z"/>
				</g>
				<path fill="#FF8705" d="M1398.5,892.4c-26.6,73-68.9,164-78.2,174.6c-14.1,15.9-31.7,19.2-45.3,19.2
					c-13.6,0-78.7-27.2-143.3-65.7c-20.3-12.1-41.2-25.7-60.3-38.8c-3.3-2.3-6.6-4.6-9.7-6.8c-5.1-3.6-10-7.1-14.7-10.6
					c-29.3-21.3-50-39-50-43.6c0-5.4,14.3-28.1,26.3-45.6c6.9-10,13.1-18.3,15.4-20.6c6.4-6.4,15.1,0.7,39.3,10.2
					c5.1,2,15.1,6.4,27.7,12.2c4.5,2,9.3,4.2,14.3,6.6c4,1.8,8.1,3.7,12.3,5.7c31.3,14.6,67.6,31.7,88.2,41.3
					c9.8,4.6,16.1,7.4,16.5,7.4c0.7,0,4.9-11.3,11.3-27.8c11.3-29.2,29.2-74.8,46.1-103.5c26.4-44.9,54.2-49,54.2-49
					s68.6,6.3,72,49.9C1421.6,822.3,1412.1,855,1398.5,892.4z"/>
				<path fill="#FFB305" d="M1105.6,877c-18.9,21.2-43.8,53-58.7,87.4c-29.3-21.3-50-39-50-43.6c0-8.5,35.3-59.8,41.7-66.2
					c6.4-6.4,15.1,0.8,39.3,10.2C1083,866.8,1093,871.2,1105.6,877z"/>
				<path fill="#FFB305" d="M1132.2,889.2c-17.7,16.8-40.5,45.5-60.8,92.5c-3.3-2.3-6.6-4.5-9.7-6.8c11.7-28.8,26.1-58,41.3-73.9
					c6.6-6.9,12.2-12.7,17-17.5C1123.9,885.4,1128,887.3,1132.2,889.2z"/>
				<path fill="#EF631D" d="M1398.5,892.4c-26.6,73-68.9,164-78.2,174.6c-14.1,15.9-31.7,19.2-45.3,19.2
					c-13.6,0-78.7-27.2-143.3-65.7c-20.3-12.1-41.2-25.7-60.3-38.8c-3.3-2.3-6.6-4.6-9.7-6.8c-5.1-3.6-10-7.1-14.7-10.6
					c-29.3-21.3-50-39-50-43.6c0-5.4,14.3-28.1,26.3-45.6c42.8,21.9,129.7,64.9,156.4,67.6c16.5,1.7,30.4-4.8,40.7-12.2
					c9.8,4.6,16.1,7.4,16.5,7.4c0.7,0,4.9-11.3,11.3-27.8C1274,906.5,1352.7,895.4,1398.5,892.4z"/>
				<path fill="#F27C85" d="M1651.2,1699.7c-4.1,3.7-136.9-8.3-136.9-8.3s-43.2-12.5-65.1-23.6c-21.8-11.2-59.2-20.8-72.9-21.1
					c-13.7-0.3-29.8,2.1-29.8,2.1s-5.7-46.9,2.5-70.7c1-2.8,4.1-4.5,7.4-4.1c12.4,1.6,43.4,5.2,58.5,3.1
					c19.2-2.6,46.3-19.7,66.2-10.3c20,9.4,20,27.1,26.7,37.7c6.7,10.6,31,32.7,55.6,38.5c24.6,5.8,33,11.5,38.5,18.4
					c5.4,6.9,15.7,19.7,21,21.6c5.4,2,17.2,0.9,21.9,3.8C1649.6,1689.7,1655.3,1696,1651.2,1699.7z"/>
				<path fill="#221E54" d="M1443,1616.3c-47.6,55.5-99.3,58.3-116.1,57.5c-3.6-0.2-5.6-0.5-5.6-0.5s0.2,28.6-4.8,32.3
					c-5.1,3.7-477.6-49-499.7-57.5c-22-8.5-52.6-34.1-58.3-61.6c-5.7-27.5-2.9-61.4,4.9-73.9c7.8-12.5,48.1-43.9,68.6-52.1
					c19.1-7.6,253.9-90.9,284-101.6c2.1-0.7,3.2-1.1,3.2-1.1s321.8-63.1,361.3,98.5C1480.6,1456.4,1500.8,1549,1443,1616.3z"/>
				<path fill="#473F8B" d="M1502,1621.8c-46.2,66.2-100.4,73.3-118.1,73.7c-3.8,0.1-5.9-0.1-5.9-0.1s2.3,32.3-2.8,36.8
					c-5.1,4.5-506.2-19.3-530-27.2c-23.8-7.9-57.8-34.5-65.7-65.1c-7.9-30.6-7.4-69.1,0-83.8c7.4-14.7,47.6-53.2,68.5-64
					c19.6-10.1,260.8-121.9,291.8-136.2c2.1-1,3.3-1.5,3.3-1.5s334.3-95.5,387.3,84C1530.3,1438.4,1558.1,1541.4,1502,1621.8z"/>
				<path fill="#221E54" d="M1502,1621.8c-46.2,66.2-100.4,73.3-118.1,73.7l-7.6-52.2c0,0,4.4-47.1,1.3-50.5c-3.2-3.4-6.7-7-29.4-15
					c-22.7-8-111.6-26-111.6-26s186.1,9.1,192.1-17.2c5.9-26.3-30.6-67.1-115.5-110.4c-44.2-22.5-115.3-48.5-173.4-68.3
					c2.1-1,3.3-1.5,3.3-1.5s334.3-95.5,387.3,84C1530.3,1438.4,1558.1,1541.4,1502,1621.8z"/>
				<path fill="#FFB305" d="M1556.1,920.8c-3.4,77.1-40.8,254.6-40.8,277.5c0,22.9,28.9,175.8,28.9,234.4c0,23.8-0.1,41.6-0.7,54.1
					c-0.8,18.4-2.6,25.5-6.1,24c-6-2.6-96.8-25.5-115.5-39.1c-18.7-13.6-20.4-14.4-20.4-22.1c0-7.6,7.7-68,3.4-66.3
					c-4.2,1.7-34.8,56.9-39.1,56.9c-4.2,0-124-65.4-172.4-76.4c-48.4-11-53.5-6.8-53.5-13.6c0-1.3,4-18.3,10.6-45.2
					c4.2-17,9.4-38,15.4-61.5c19.5-77.2,46.9-181.9,70.6-264.4c16.2-56.7,30.7-102.9,39.7-122.4c0,0,24.9-51.5,36.2-65.1
					c11.3-13.6,26-30,26-30l10.1-4c1.7-3.9,10.2-23.3,16-24.7c0,0,57.4-3.7,93.7-4.7c15.4-0.4,27-0.3,28.9,0.8
					c4.9,2.9,7.4,23.3,8.2,31.7c5.9,2.6,12,6.2,18.4,11C1536.6,788.9,1559.5,843.7,1556.1,920.8z"/>
				<path fill="#FF8705" d="M1523.4,920.8c0,0-72.9,246.4-146.5,309.8c-50.3,43.3-151.7,27.5-211,13.1
					c19.5-77.2,46.9-181.9,70.5-264.4c20.6,14.2,44.1,26.1,54.4,15.8c20.4-20.4,70.4-109.7,70.4-109.7L1523.4,920.8z"/>
				<g>
					<g>
						<path fill="#FFB2A8" d="M1034,908.8c0,0-28.2-34.1-35.1-46.2c-6.9-12.1-17.3-34.4-21.2-44.1c-4-9.7-6.2-13.9-10.1-10
							c-4,3.9-8.6,10.5-8.6,17.1c0,6.6,10.1,41.2,10.1,41.2s-51-30.7-56.9-38.8c-5.9-8.1-30.8-43.3-40.5-52.2
							c-9.6-8.9-12.8,0-13.3,4.5c-0.5,4.5,1.2,8.4,1.2,8.4s-6.2-15.5-12.3-12.1c-6.2,3.4-5.9,10.5-5.4,14.4c0.5,3.9,1,5.5,1,5.5
							s-4,4.7-3.7,9.7c0.2,5,28.4,70.3,32.4,78.5c4,8.1,20.5,24.9,31.1,32.3c10.6,7.3,62.7,25.7,73.9,30.7
							c11.1,5,25.2,24.4,25.2,24.4L1034,908.8z"/>
					</g>
					<g>
						<path fill="#F27C85" d="M856.7,785.6c11.3,20.6,22.1,42,36.8,60.2c4,5,8.4,9.7,13.1,14c1.4,1.3,3.5-0.9,2.1-2.2
							c-16.6-15.2-28.3-35.1-39.3-55c-3.4-6.2-6.8-12.4-10.2-18.6C858.3,782.3,855.8,783.8,856.7,785.6L856.7,785.6z"/>
						<path fill="#F27C85" d="M841.5,796.4c5.3,10.3,10.7,20.6,16,31c2.6,5.1,5.3,10.2,7.9,15.2c2.5,4.8,5,9.6,8,14.1
							c3.2,4.9,6.8,9.5,10.7,13.7c1.3,1.4,3.4-0.8,2.1-2.2c-7.1-7.7-12.7-16.5-17.6-25.9c-5.2-10.1-10.4-20.2-15.6-30.3
							c-3-5.8-6-11.5-8.9-17.3C843.2,793.1,840.6,794.6,841.5,796.4L841.5,796.4z"/>
					</g>
					<g>
						<path fill="#FFB305" d="M1519,933.3c-22.1,51.5-136.5,243.5-139.3,248c-2.8,4.5-20.9,32.3-54.9,24.9
							c-34-7.4-84.4-32.3-186.3-91.7c-29.7-17.3-55.7-35.1-77.6-51.8c-5.2-4-10.2-7.9-15-11.7c-4.9-3.9-9.6-7.8-14-11.5
							c-34.9-29.5-54-52-55.3-55.8c-2.1-6.3,36.2-76.3,47.3-88.8c0.8-0.9,1.5-1.5,1.9-1.8c7.4-4,28.3,0,57.8,20.4
							c1,0.7,2.2,1.5,3.5,2.3c0.4,0.3,0.9,0.6,1.4,0.9c0.7,0.5,1.5,0.9,2.3,1.4c0.3,0.2,0.5,0.3,0.8,0.5c1.1,0.7,2.3,1.4,3.5,2.2
							c0.8,0.5,1.6,1,2.4,1.5c2.2,1.3,4.5,2.7,7.1,4.2c0.5,0.3,1,0.6,1.5,0.9c1.4,0.8,2.8,1.6,4.2,2.5c1,0.6,2,1.2,3,1.8
							c1.1,0.6,2.2,1.3,3.3,1.9c0.1,0,0.1,0.1,0.2,0.1c1,0.6,2.1,1.2,3.2,1.9c0.5,0.3,0.9,0.5,1.4,0.8c0.7,0.4,1.4,0.8,2.1,1.2
							c1.7,1,3.3,1.9,5.1,2.9c0.1,0.1,0.2,0.1,0.3,0.2c2.5,1.4,5,2.8,7.5,4.3c6.9,3.9,14.1,8.1,21.6,12.3c0.9,0.5,1.7,1,2.6,1.5
							c4.9,2.8,10,5.6,15,8.5c1.2,0.7,2.4,1.3,3.6,2c1.2,0.7,2.4,1.3,3.6,2c1.2,0.7,2.4,1.3,3.5,2c6,3.4,12,6.7,18,10.1
							c1.2,0.7,2.4,1.3,3.6,2c0,0,0,0,0.1,0c2.8,1.6,5.7,3.2,8.5,4.7c3.5,2,7,3.9,10.4,5.8c0.7,0.4,1.4,0.8,2,1.1
							c3.4,1.9,6.8,3.7,10,5.6c1,0.6,2,1.1,3,1.7c3.7,2.1,7.4,4.1,10.9,6c1,0.6,2,1.1,3,1.6c0.6,0.3,1.1,0.6,1.7,1
							c5.3,2.9,10.2,5.6,14.7,8.1c0.5,0.3,1,0.6,1.5,0.8c1.5,0.9,3,1.7,4.4,2.5c0.4,0.2,0.8,0.4,1.2,0.6
							c12.9,7.1,20.8,11.5,20.8,11.5s45.3-131.9,75.9-176.1c30.6-44.2,94.6-40.8,94.6-40.8c9.8,0,18.8,3.3,26.6,9
							C1523.1,847.6,1536,893.6,1519,933.3z"/>
						<path fill="#FFB305" d="M1128.4,940.5c-2.5,2.4-5.4,5.4-8.6,8.9l-16.9-9.6c2.5-3.6,5-6.9,7.3-9.9c1,0.6,2,1.2,3,1.8
							c1.1,0.6,2.2,1.3,3.3,1.9c0.1,0,0.1,0.1,0.2,0.1c1,0.6,2.1,1.2,3.2,1.9c0.5,0.3,0.9,0.5,1.4,0.8c0.7,0.4,1.4,0.8,2.1,1.2
							C1125,938.5,1126.7,939.5,1128.4,940.5z"/>
						<path fill="#FF8705" d="M1106,927.4c1.4,0.8,2.8,1.6,4.2,2.5c-2.3,3-4.7,6.4-7.3,9.9l-15.3-8.7c2.5-3.6,4.9-7,7.4-10.3
							c0.8,0.5,1.6,1,2.4,1.5c2.2,1.3,4.5,2.7,7.1,4.2C1105,926.8,1105.5,927.1,1106,927.4z"/>
						<path fill="#FF8705" d="M1496.9,828.5c-35-6.8-82.3-7.9-106,26.4c-40.2,58.3-84.4,188.6-84.4,188.6s36.2,60,30,60.6
							c-6.2,0.6-36.2-58.3-36.2-58.3s9.1,28.3,2.8,31.1c-6.2,2.8-7.4-27.3-7.4-27.3l-176-100.1c3.2-3.5,6-6.5,8.6-8.9
							c0.1,0.1,0.2,0.1,0.3,0.2c2.5,1.4,5,2.8,7.5,4.3c6.9,3.9,14.1,8.1,21.6,12.3c0.9,0.5,1.7,1,2.6,1.5c4.9,2.8,10,5.6,15,8.5
							c1.2,0.7,2.4,1.3,3.6,2c1.2,0.7,2.4,1.3,3.6,2c1.2,0.7,2.4,1.3,3.5,2c6,3.4,12,6.7,18,10.1c1.2,0.7,2.4,1.3,3.6,2
							c0,0,0,0,0.1,0c2.8,1.6,5.7,3.2,8.5,4.7c3.5,2,7,3.9,10.4,5.8c0.7,0.4,1.4,0.8,2,1.1c3.4,1.9,6.8,3.7,10,5.6
							c1,0.6,2,1.1,3,1.7c3.7,2.1,7.4,4.1,10.9,6c1,0.6,2,1.1,3,1.6c0.6,0.3,1.1,0.6,1.7,1c5.3,2.9,10.2,5.6,14.7,8.1
							c0.5,0.3,1,0.6,1.5,0.8c1.5,0.9,3,1.7,4.4,2.5c0.4,0.2,0.8,0.4,1.2,0.6c12.9,7.1,20.8,11.5,20.8,11.5s45.3-131.9,75.9-176.1
							c30.6-44.2,94.6-40.8,94.6-40.8C1480.1,819.5,1489.1,822.8,1496.9,828.5z"/>
						<path fill="#FFB305" d="M1095,920.8c-2.4,3.3-4.9,6.8-7.4,10.3l-63.8-36.3c0.8-0.9,1.5-1.5,1.9-1.8c7.4-4,28.3,0,57.8,20.4
							c1.8,1.3,4.2,2.8,7.1,4.6c0.3,0.2,0.5,0.3,0.8,0.5C1092.6,919.3,1093.8,920,1095,920.8z"/>
						<path fill="#FFDE05" d="M1087.6,931.1c-19.6,28.3-40.1,64.6-55.8,108.4c-34.9-29.5-54-52-55.3-55.8
							c-2.1-6.3,36.2-76.3,47.3-88.8L1087.6,931.1z"/>
						<path fill="#FFDE05" d="M1119.8,949.4c-8.7,9.7-19.4,23.8-30.6,43.3c-9.9,17.4-19.9,43.8-28.4,70c-5.2-4-10.2-7.9-15-11.7
							c12.1-42.7,37.6-84,57-111.2L1119.8,949.4z"/>
					</g>
				</g>
				<path fill="#FFDE05" d="M1543.5,1486.8c-0.8,18.4-2.6,25.5-6.1,24c-6-2.6-96.8-25.5-115.5-39.1c-18.7-13.6-20.4-14.4-20.4-22.1
					c0-7.6,7.7-68,3.4-66.2c-4.2,1.7-34.8,56.9-39.1,56.9c-4.2,0-124-65.4-172.4-76.4c-48.4-11-53.5-6.8-53.5-13.6
					c0-1.3,4-18.3,10.6-45.2c52.2,17.7,122.8,44.1,155.6,67.5c55.5,39.6,54.9,38.5,65.1,31.7s40.2-52.7,44.7-44.2
					c4.5,8.5,2.3,73,5.1,77C1423.6,1440.7,1490.2,1476.8,1543.5,1486.8z"/>
				<path fill="#FF8705" d="M1466.1,754.9c0,0-31.1,15.6-69.1,15.3c-37.9-0.3-48.5-12.5-48.5-12.5l-10.1,4c0,0,26.9,25.5,73,18.7
					C1457.6,773.6,1466.1,754.9,1466.1,754.9z"/>
				<g>
					<path fill="#FFB2A8" d="M1685.6,1731.1c-3.8,3.9-137.1,0-137.1,0s-43.9-9.8-66.4-19.6c-19.9-8.7-51.8-15.4-68.4-16.6
						c-2.2-0.2-4.1-0.2-5.7-0.1c-13.7,0.5-29.6,3.9-29.6,3.9s-8.6-46.5-1.8-70.7c0.8-2.9,3.8-4.8,7.1-4.5c1.8,0.1,4.1,0.3,6.6,0.4
						c14.7,0.8,39.2,1.7,52-0.8c19-3.8,45-22.4,65.4-14.2c20.5,8.2,21.6,25.9,28.9,36c7.3,10.2,32.9,30.8,57.8,35
						c24.9,4.3,33.6,9.5,39.5,16c5.8,6.6,16.8,18.7,22.3,20.3c5.5,1.6,17.2-0.2,22.1,2.5C1683.4,1721.2,1689.5,1727.1,1685.6,1731.1
						z"/>
				</g>
				<path fill="#221E54" d="M1376.7,1629.1c-0.1,0-0.2,0-0.2,0c-0.6-0.1-1-0.7-0.9-1.3c0.1-0.3,5.8-27.3,2-34.8
					c-3.4-6.8-78.4-34.7-189.9-45.8c-106.8-10.6-201.5-0.1-202.5,0c-0.6,0.1-1.2-0.4-1.2-1c-0.1-0.6,0.4-1.2,1-1.2
					c0.9-0.1,95.9-10.6,202.9,0c108.3,10.8,187.3,38.3,191.7,47c4.1,8.2-1.6,35.1-1.8,36.3
					C1377.6,1628.7,1377.2,1629.1,1376.7,1629.1z"/>
				<path fill="#FFDE05" d="M1495.2,760.9c-118.8,27.4-146.7-3.2-146.7-3.2c1.7-3.9,10.2-23.3,16-24.7c0,0,57.4-3.7,93.7-4.7
					c15.4-0.4,27-0.3,28.9,0.8C1491.9,732.1,1494.4,752.4,1495.2,760.9z"/>
				<path fill="#F27C85" d="M1413.7,1694.9c-2.2-0.2-4.1-0.2-5.7-0.1c-13.7,0.5-29.6,3.9-29.6,3.9s-8.6-46.5-1.8-70.7
					c0.8-2.9,3.8-4.8,7.1-4.5c1.8,0.1,4.1,0.3,6.6,0.4c3.6,22.7,10.5,46.8,22.8,70C1413.4,1694.2,1413.6,1694.5,1413.7,1694.9z"/>
				<path opacity="0.55" fill="#221E54" d="M1384.3,1589.7c0,0-144.3-44.6-264.1-46.8c-119.8-2.1-139.2,2.1-139.2,2.1
					s49.5-18.3,123.6-22.5c74-4.1,220,13.6,259.2,29.8c39.1,16.2,22.6,36.4,22.6,36.4S1385.4,1590,1384.3,1589.7z"/>
			</g>
		</g>
		<g>
			<g>
				<g>
					
						<ellipse transform="matrix(0.7071 -0.7071 0.7071 0.7071 -504.8936 665.9839)" fill="#EAE5FD" cx="551.5" cy="942.5" rx="76" ry="76"/>
					
						<ellipse transform="matrix(0.9187 -0.3949 0.3949 0.9187 -415.6996 313.0266)" fill="#EAE5FD" cx="552.5" cy="1166.3" rx="51.3" ry="51.3"/>
					<path fill="#D3C5F9" d="M579.3,836.5c-0.8,5.2-2.9,9.9-5.9,13.7c-0.9,1.1-1.9,2.2-2.9,3.1h7.4c0.4-0.5,0.7-1,1.1-1.5
						c2.3-3.3,4-7,5-11C582.2,839.6,580.7,838.1,579.3,836.5z M584.5,826c-1.2-6.8-4.4-13-8.9-17.8c-1.5-1.6-3.1-3-4.9-4.2
						c-4.7-3.4-10.3-5.5-16.4-5.9c-0.1,0-0.1,0-0.2,0c-0.1,0-0.2,0-0.3,0c-0.1,0-0.2,0-0.4,0c-0.2,0-0.3,0-0.5,0c-0.3,0-0.7,0-1,0
						c-0.3,0-0.6,0-0.9,0c-0.2,0-0.3,0-0.5,0c-0.2,0-0.3,0-0.4,0H550c-0.1,0-0.2,0-0.2,0c-0.2,0-0.5,0-0.7,0.1
						c-14.6,1.3-26.4,12.5-29.3,27c-0.4,2.2-0.7,4.5-0.7,6.9c0,7,2,13.4,5.5,18.8c3.5,5.4,8.4,9.7,14.1,12.3h0
						c3.5,1.6,7.3,2.6,11.3,2.8c0.6,0,1.1,0.1,1.7,0.1h0.3c0.5,0,1,0,1.5,0c4.2-0.2,8.2-1.2,11.9-2.8h0c4.9-2.3,9.2-5.7,12.5-10
						c0.4-0.5,0.7-1,1.1-1.5c2.3-3.3,4-7,5-11c0.6-2.1,0.9-4.4,1-6.6c0.1-0.7,0.1-1.4,0.1-2.1C585,830.1,584.8,828,584.5,826z
						 M573.4,850.2c-0.9,1.1-1.9,2.2-2.9,3.1c-1.5,1.4-3.2,2.7-5.1,3.7c0,0,0,0,0,0c-2.9,1.7-6.2,2.8-9.6,3.3
						c-0.7,0.1-1.5,0.1-2.2,0.2c-0.5,0-1,0-1.5,0c-0.7,0-1.3,0-2-0.1c-4.1-0.3-7.9-1.5-11.3-3.5c0,0,0,0,0,0
						c-3.3-1.9-6.2-4.4-8.5-7.5c-3.6-4.8-5.7-10.8-5.7-17.4c0-2.8,0.4-5.5,1.1-8.1c3.1-10.8,12.3-19,23.5-20.2
						c0.2,0,0.5-0.1,0.7-0.1c0.1,0,0.2,0,0.2,0c0.2,0,0.4,0,0.6,0c0.5,0,0.9,0,1.4,0c0.5,0,1,0,1.5,0c0.1,0,0.1,0,0.2,0h0.1
						c0.1,0,0.3,0,0.4,0c6,0.5,11.5,3,15.8,6.8c2.5,2.2,4.6,4.8,6.1,7.8c1.1,2,1.9,4.1,2.5,6.3c0.2,0.5,0.3,1.1,0.4,1.6
						c0.4,1.9,0.6,3.8,0.6,5.8c0,1.5-0.1,2.9-0.3,4.3C578.5,841.7,576.4,846.4,573.4,850.2z M579.3,836.5c-0.8,5.2-2.9,9.9-5.9,13.7
						c-0.9,1.1-1.9,2.2-2.9,3.1h7.4c0.4-0.5,0.7-1,1.1-1.5c2.3-3.3,4-7,5-11C582.2,839.6,580.7,838.1,579.3,836.5z M579.3,836.5
						c-0.8,5.2-2.9,9.9-5.9,13.7c-0.9,1.1-1.9,2.2-2.9,3.1h7.4c0.4-0.5,0.7-1,1.1-1.5c2.3-3.3,4-7,5-11
						C582.2,839.6,580.7,838.1,579.3,836.5z"/>
					<path fill="#D3C5F9" d="M641.2,952.4v13.9c0,6.5-4.7,11.7-10.4,11.7H477.5c-5.8,0-10.4-5.3-10.4-11.7v-13.9
						c0-6.5,4.7-11.7,10.4-11.7h153.3C636.6,940.7,641.2,945.9,641.2,952.4z"/>
					<polygon fill="#D3C5F9" points="623.2,978 622.5,984.5 621.4,994.6 607.8,1121.8 605.3,1145.5 499.8,1145.5 497.2,1121.7 
						483.7,994.7 482.6,984.5 481.9,978 					"/>
					<path fill="#BEA6F4" d="M505.2,1121l-8,0.8l-13.6-127.1c12.8,0.7,23.4,12,24.6,26.7l6.8,86.5
						C515.5,1114.5,511.1,1120.4,505.2,1121z"/>
					<path fill="#BEA6F4" d="M621.4,994.6l-13.6,127.2l-9.1-0.9c-5.9-0.6-10.3-6.5-9.8-13.1l6.8-86.5
						C596.9,1006.2,608.1,994.7,621.4,994.6z"/>
					<polygon fill="#BEA6F4" points="623.2,978 622.5,984.5 482.6,984.5 481.9,978 					"/>
					<path fill="#CAB7F7" d="M641.2,962.6v3.7c0,6.5-4.7,11.7-10.4,11.7H477.5c-5.8,0-10.4-5.3-10.4-11.7v-3.7H641.2z"/>
					<path fill="#EAE5FD" d="M576.3,1025.5v86.7c0,3-2.4,5.4-5.4,5.4h-39.6c-3,0-5.4-2.4-5.4-5.4v-86.7c0-13.9,11.3-25.2,25.2-25.2
						c7,0,13.3,2.8,17.8,7.4C573.5,1012.3,576.3,1018.6,576.3,1025.5z"/>
					<path fill="#BEA6F4" d="M570.6,1030.8v73c0,2.5-1.9,4.5-4.2,4.5h-30.7c-2.3,0-4.2-2-4.2-4.5v-73c0-11.7,8.7-21.2,19.5-21.2
						c5.4,0,10.3,2.4,13.8,6.2C568.4,1019.6,570.6,1024.9,570.6,1030.8z"/>
				</g>
			</g>
			<g>
				<g>
					
						<ellipse transform="matrix(0.9281 -0.3724 0.3724 0.9281 -119.9326 295.6473)" fill="#EAE5FD" cx="705.5" cy="458.3" rx="45.2" ry="45.2"/>
					
						<ellipse transform="matrix(0.9268 -0.3757 0.3757 0.9268 -170.4594 308.5831)" fill="#EAE5FD" cx="706.1" cy="591.4" rx="30.5" ry="30.5"/>
					<path fill="#D3C5F9" d="M722,395.3c-0.4,3.1-1.7,5.9-3.5,8.2c-0.5,0.7-1.1,1.3-1.7,1.9h4.4c0.2-0.3,0.4-0.6,0.6-0.9
						c1.3-2,2.4-4.2,3-6.5C723.8,397.2,722.9,396.3,722,395.3z M725.1,389.1c-0.7-4.1-2.6-7.7-5.3-10.6c-0.9-0.9-1.9-1.8-2.9-2.5
						c-2.8-2-6.1-3.2-9.7-3.5c0,0-0.1,0-0.1,0c-0.1,0-0.1,0-0.2,0c-0.1,0-0.1,0-0.2,0c-0.1,0-0.2,0-0.3,0c-0.2,0-0.4,0-0.6,0
						c-0.2,0-0.4,0-0.5,0c-0.1,0-0.2,0-0.3,0c-0.1,0-0.2,0-0.3,0h-0.1c0,0-0.1,0-0.1,0c-0.1,0-0.3,0-0.4,0
						c-8.7,0.8-15.7,7.4-17.4,16.1c-0.3,1.3-0.4,2.7-0.4,4.1c0,4.2,1.2,8,3.3,11.2c2.1,3.2,5,5.7,8.4,7.3h0c2.1,0.9,4.4,1.5,6.7,1.7
						c0.3,0,0.7,0,1,0h0.2c0.3,0,0.6,0,0.9,0c2.5-0.1,4.9-0.7,7.1-1.7h0c2.9-1.3,5.5-3.4,7.4-5.9c0.2-0.3,0.4-0.6,0.6-0.9
						c1.3-2,2.4-4.2,3-6.5c0.3-1.3,0.5-2.6,0.6-3.9c0-0.4,0-0.8,0-1.2C725.4,391.5,725.3,390.3,725.1,389.1z M718.5,403.5
						c-0.5,0.7-1.1,1.3-1.7,1.9c-0.9,0.9-1.9,1.6-3,2.2c0,0,0,0,0,0c-1.7,1-3.7,1.7-5.7,2c-0.4,0-0.9,0.1-1.3,0.1
						c-0.3,0-0.6,0-0.9,0c-0.4,0-0.8,0-1.2,0c-2.4-0.2-4.7-0.9-6.7-2.1c0,0,0,0,0,0c-2-1.1-3.7-2.6-5.1-4.5
						c-2.1-2.9-3.4-6.4-3.4-10.3c0-1.7,0.2-3.3,0.7-4.8c1.8-6.4,7.3-11.3,14-12c0.1,0,0.3,0,0.4,0c0,0,0.1,0,0.1,0
						c0.1,0,0.2,0,0.4,0c0.3,0,0.6,0,0.8,0c0.3,0,0.6,0,0.9,0c0,0,0.1,0,0.1,0h0.1c0.1,0,0.2,0,0.3,0c3.6,0.3,6.8,1.8,9.4,4.1
						c1.5,1.3,2.7,2.9,3.6,4.6c0.6,1.2,1.1,2.4,1.5,3.7c0.1,0.3,0.2,0.7,0.2,1c0.2,1.1,0.4,2.3,0.4,3.5c0,0.9-0.1,1.7-0.2,2.6
						C721.6,398.4,720.3,401.2,718.5,403.5z M722,395.3c-0.4,3.1-1.7,5.9-3.5,8.2c-0.5,0.7-1.1,1.3-1.7,1.9h4.4
						c0.2-0.3,0.4-0.6,0.6-0.9c1.3-2,2.4-4.2,3-6.5C723.8,397.2,722.9,396.3,722,395.3z M722,395.3c-0.4,3.1-1.7,5.9-3.5,8.2
						c-0.5,0.7-1.1,1.3-1.7,1.9h4.4c0.2-0.3,0.4-0.6,0.6-0.9c1.3-2,2.4-4.2,3-6.5C723.8,397.2,722.9,396.3,722,395.3z"/>
					<path fill="#D3C5F9" d="M758.9,464.2v8.3c0,3.8-2.8,7-6.2,7h-91.2c-3.4,0-6.2-3.1-6.2-7v-8.3c0-3.8,2.8-7,6.2-7h91.2
						C756.1,457.3,758.9,460.4,758.9,464.2z"/>
					<polygon fill="#D3C5F9" points="748.1,479.5 747.7,483.4 747.1,489.3 739,565 737.5,579.1 674.7,579.1 673.2,564.9 
						665.2,489.4 664.5,483.4 664.1,479.5 					"/>
					<path fill="#BEA6F4" d="M678,564.5l-4.7,0.5l-8.1-75.6c7.6,0.4,13.9,7.1,14.6,15.9l4,51.4C684.1,560.6,681.5,564.1,678,564.5z"
						/>
					<path fill="#BEA6F4" d="M747.1,489.4L739,565l-5.4-0.5c-3.5-0.3-6.1-3.8-5.8-7.8l4-51.4C732.5,496.2,739.2,489.4,747.1,489.4z"
						/>
					<polygon fill="#BEA6F4" points="748.1,479.5 747.7,483.4 664.5,483.4 664.1,479.5 					"/>
					<path fill="#CAB7F7" d="M758.9,470.3v2.2c0,3.8-2.8,7-6.2,7h-91.2c-3.4,0-6.2-3.1-6.2-7v-2.2H758.9z"/>
					<path fill="#EAE5FD" d="M720.3,507.7v51.5c0,1.8-1.4,3.2-3.2,3.2h-23.5c-1.8,0-3.2-1.4-3.2-3.2v-51.5c0-8.3,6.7-15,15-15
						c4.1,0,7.9,1.7,10.6,4.4C718.6,499.9,720.3,503.6,720.3,507.7z"/>
					<path fill="#BEA6F4" d="M716.9,510.9v43.4c0,1.5-1.1,2.7-2.5,2.7h-18.2c-1.4,0-2.5-1.2-2.5-2.7v-43.4c0-7,5.2-12.6,11.6-12.6
						c3.2,0,6.1,1.4,8.2,3.7C715.6,504.2,716.9,507.4,716.9,510.9z"/>
				</g>
				<g>
					<path fill="#EAE5FD" d="M740.3,593.7c3.6,0,6.5-3.3,6.5-7.4v-8.8c0-4.1-2.9-7.4-6.5-7.4h-66.5c-3.6,0-6.5,3.3-6.5,7.4v8.8
						c0,4.1,2.9,7.4,6.5,7.4H740.3z"/>
					<path fill="#D3C5F9" d="M740.3,593.7c3.6,0,6.5-3.3,6.5-7.4V582h-79.6v4.4c0,4.1,2.9,7.4,6.5,7.4H740.3z"/>
				</g>
			</g>
			<g>
				<g>
					<path fill="#EAE5FD" d="M1969.9,897.5l2.1,9c0,0-14.4-1.4-29.3-23.4c-6.7-9.8-9.9-22.3-11.5-33.3l0-0.2c0,0.2,0,0.4,0,0.6v0
						c0,0.6,0.1,1.2,0.2,1.8c0,0.2,0,0.3,0,0.5c0.1,1.6,0.3,3.3,0.4,5.1c0.5,5.3,1.5,11.5,2.7,18c4.7,24.5,13.2,53.3,13.2,53.3
						l-13.9-3.9l-4.3,10.5c0,0-10.5-18.6-10-44.9c0.1-7.1,0.7-15.1,1.4-23v-0.1c0,0,0,0,0,0c0,0,0,0,0,0c0-0.4,0.1-0.8,0.1-1.2
						c-2.7,11.5-6.7,22.8-12.8,29.8c-16.4,18.6-39.8,19.7-39.8,19.7l6.1-13.1L1864,895c0,0,11.1-0.2,32.4-13.5
						c15.9-10,22-36.5,24.1-49.3c0.7-4.3,0.9-7.1,0.9-7.1h12.9c0,0,0.3,3.6,1.6,9.2c2,8.6,6.4,21.9,15.8,34.4
						c15.6,20.7,31.4,26.6,31.4,26.6L1969.9,897.5z"/>
					<path fill="#FFFFFF" d="M1920.9,867.7C1920.9,867.7,1920.9,867.7,1920.9,867.7C1920.9,867.7,1920.9,867.7,1920.9,867.7
						C1920.9,867.7,1920.9,867.7,1920.9,867.7L1920.9,867.7C1920.9,867.7,1920.9,867.8,1920.9,867.7
						C1920.9,867.8,1920.9,867.7,1920.9,867.7z"/>
					<path fill="#D3C5F9" d="M1931.9,857.7c0.5,5.3,1.5,11.5,2.7,18c-6.4-21.6-5.3-40.9-7.1-40.2c-1.7,0.7-6.2,29.3-6.6,32
						c0.3-2.6,3.7-29.3,3.2-32c-0.2-0.9-1.7-2.1-3.7-3.3c0.7-4.3,0.9-7.1,0.9-7.1h12.9c0,0,0.3,3.6,1.6,9.2
						c-4.8,0.8-5.2,5.3-4.7,15.5c0,0.1,0,0.3,0,0.4v0c0,0.6,0.1,1.2,0.2,1.8c0,0.2,0,0.3,0,0.5
						C1931.6,854.2,1931.7,855.9,1931.9,857.7z"/>
					<circle fill="#EAE5FD" cx="1927.1" cy="651.2" r="46.2"/>
					<path fill="#D3C5F9" d="M1944,586.7c-0.5,3.1-1.7,6-3.6,8.3c-0.5,0.7-1.1,1.3-1.8,1.9h4.5c0.2-0.3,0.4-0.6,0.7-0.9
						c1.4-2,2.4-4.3,3-6.7C1945.8,588.6,1944.8,587.7,1944,586.7z M1947.1,580.3c-0.7-4.2-2.7-7.9-5.4-10.8c-0.9-0.9-1.9-1.8-3-2.6
						c-2.8-2-6.3-3.3-10-3.6c0,0-0.1,0-0.1,0c-0.1,0-0.1,0-0.2,0c-0.1,0-0.1,0-0.2,0c-0.1,0-0.2,0-0.3,0c-0.2,0-0.4,0-0.6,0
						c-0.2,0-0.4,0-0.6,0c-0.1,0-0.2,0-0.3,0c-0.1,0-0.2,0-0.3,0h-0.1c0,0-0.1,0-0.1,0c-0.1,0-0.3,0-0.4,0
						c-8.9,0.8-16.1,7.6-17.8,16.4c-0.3,1.4-0.4,2.8-0.4,4.2c0,4.2,1.2,8.2,3.3,11.5c2.1,3.3,5.1,5.9,8.6,7.5h0
						c2.1,1,4.5,1.6,6.9,1.7c0.3,0,0.7,0,1,0h0.2c0.3,0,0.6,0,0.9,0c2.6-0.1,5-0.7,7.2-1.7h0c3-1.4,5.6-3.5,7.6-6.1
						c0.2-0.3,0.4-0.6,0.7-0.9c1.4-2,2.4-4.3,3-6.7c0.3-1.3,0.6-2.6,0.6-4c0-0.4,0-0.9,0-1.3
						C1947.5,582.8,1947.4,581.6,1947.1,580.3z M1940.4,595.1c-0.5,0.7-1.1,1.3-1.8,1.9c-0.9,0.9-2,1.6-3.1,2.3c0,0,0,0,0,0
						c-1.8,1-3.8,1.7-5.9,2c-0.4,0-0.9,0.1-1.4,0.1c-0.3,0-0.6,0-0.9,0c-0.4,0-0.8,0-1.2,0c-2.5-0.2-4.8-0.9-6.9-2.1c0,0,0,0,0,0
						c-2-1.2-3.8-2.7-5.2-4.6c-2.2-2.9-3.5-6.6-3.5-10.6c0-1.7,0.2-3.4,0.7-4.9c1.9-6.6,7.5-11.6,14.3-12.3c0.1,0,0.3,0,0.4,0
						c0,0,0.1,0,0.1,0c0.1,0,0.2,0,0.4,0c0.3,0,0.6,0,0.9,0c0.3,0,0.6,0,0.9,0c0,0,0.1,0,0.1,0h0.1c0.1,0,0.2,0,0.3,0
						c3.7,0.3,7,1.8,9.6,4.2c1.5,1.3,2.8,2.9,3.7,4.8c0.7,1.2,1.2,2.5,1.5,3.8c0.1,0.3,0.2,0.7,0.2,1c0.2,1.1,0.4,2.3,0.4,3.6
						c0,0.9-0.1,1.8-0.2,2.6C1943.5,589.9,1942.2,592.7,1940.4,595.1z M1944,586.7c-0.5,3.1-1.7,6-3.6,8.3c-0.5,0.7-1.1,1.3-1.8,1.9
						h4.5c0.2-0.3,0.4-0.6,0.7-0.9c1.4-2,2.4-4.3,3-6.7C1945.8,588.6,1944.8,587.7,1944,586.7z M1944,586.7c-0.5,3.1-1.7,6-3.6,8.3
						c-0.5,0.7-1.1,1.3-1.8,1.9h4.5c0.2-0.3,0.4-0.6,0.7-0.9c1.4-2,2.4-4.3,3-6.7C1945.8,588.6,1944.8,587.7,1944,586.7z"/>
					<path fill="#D3C5F9" d="M1981.7,657.2v8.5c0,3.9-2.8,7.1-6.3,7.1h-93.3c-3.5,0-6.3-3.2-6.3-7.1v-8.5c0-3.9,2.8-7.1,6.3-7.1
						h93.3C1978.8,650.1,1981.7,653.3,1981.7,657.2z"/>
					<path fill="#EAE5FD" d="M1967.2,781.5v8.5c0,3.9-2.8,7.1-6.3,7.1h-64.3c-3.5,0-6.3-3.2-6.3-7.1v-8.5c0-3.9,2.8-7.1,6.3-7.1
						h64.3C1964.4,774.3,1967.2,777.5,1967.2,781.5z"/>
					<path fill="#BEA6F4" d="M1929.9,818.7h-4.4c-1.1,0-2.1-0.9-2.1-2.1v-21h8.5v21C1932,817.8,1931.1,818.7,1929.9,818.7z"/>
					<polygon fill="#D3C5F9" points="1970.7,672.8 1970.3,676.8 1969.6,682.9 1961.4,760.3 1959.8,774.7 1895.6,774.7 1894.1,760.2 
						1885.8,682.9 1885.2,676.8 1884.7,672.8 					"/>
					<path fill="#BEA6F4" d="M1898.9,759.8l-4.9,0.5l-8.2-77.3c7.8,0.4,14.3,7.3,15,16.2l4.1,52.6
						C1905.2,755.8,1902.5,759.4,1898.9,759.8z"/>
					<path fill="#BEA6F4" d="M1969.6,682.9l-8.2,77.4l-5.5-0.5c-3.6-0.4-6.3-3.9-6-8l4.1-52.6C1954.7,689.9,1961.5,683,1969.6,682.9
						z"/>
					<polygon fill="#BEA6F4" points="1970.7,672.8 1970.3,676.8 1885.2,676.8 1884.7,672.8 					"/>
					<path fill="#CAB7F7" d="M1981.7,663.4v2.3c0,3.9-2.8,7.1-6.3,7.1h-93.3c-3.5,0-6.3-3.2-6.3-7.1v-2.3H1981.7z"/>
					<path fill="#D3C5F9" d="M1967.2,785.7v4.2c0,3.9-2.8,7.1-6.3,7.1h-64.3c-3.5,0-6.3-3.2-6.3-7.1v-4.2H1967.2z"/>
					<path fill="#EAE5FD" d="M1942.2,701.7v52.7c0,1.8-1.5,3.3-3.3,3.3h-24.1c-1.8,0-3.3-1.5-3.3-3.3v-52.7
						c0-8.5,6.9-15.3,15.3-15.3c4.2,0,8.1,1.7,10.8,4.5C1940.5,693.7,1942.2,697.5,1942.2,701.7z"/>
					<path fill="#BEA6F4" d="M1938.7,704.9v44.4c0,1.5-1.1,2.8-2.5,2.8h-18.7c-1.4,0-2.5-1.2-2.5-2.8v-44.4
						c0-7.1,5.3-12.9,11.9-12.9c3.3,0,6.2,1.4,8.4,3.8C1937.4,698.1,1938.7,701.4,1938.7,704.9z"/>
					<rect x="1918.6" y="816.1" fill="#D3C5F9" width="17.8" height="13.1"/>
				</g>
			</g>
			<rect x="548.7" y="501.1" fill="#D3C5F9" width="3.3" height="298.7"/>
			<rect x="1925.4" y="496.3" fill="#D3C5F9" width="3.3" height="70.4"/>
			<g>
				<path fill="#EAE5FD" d="M605.4,1177.2c5.7,0,10.4-5.2,10.4-11.7v-13.9c0-6.5-4.7-11.7-10.4-11.7H499.7
					c-5.7,0-10.4,5.2-10.4,11.7v13.9c0,6.5,4.7,11.7,10.4,11.7H605.4z"/>
				<path fill="#D3C5F9" d="M605.4,1177.2c5.7,0,10.4-5.2,10.4-11.7v-7H489.2v7c0,6.5,4.7,11.7,10.4,11.7H605.4z"/>
			</g>
		</g>
		<g>
			<path fill="#D3C5F9" d="M1049.4,178.2c-2.1,3.2-4.2,6.4-6.5,9.6c-0.4,0.6-0.8,1.2-1.3,1.8c-6.5,9.1-13.4,18-20.5,26.5
				c-0.8,0.9-1.6,1.9-2.4,2.8v0c-1.1,1.3-2.3,2.7-3.4,4c-27.7,31.7-59.1,60.4-95.1,84.4c-34.6,23-73.5,41.5-116.8,53.5
				C770,370,734,375.4,695.9,376c-1.3,0-2.7,0-4,0.1c-6.1,0.1-12.3,0-18.5-0.2c-14.4-0.4-29.1-1.5-44-3.3c1-0.9,1.9-1.8,2.9-2.6
				c20,2.3,39.7,3.3,58.9,3.1c0.9,0,1.8,0,2.7,0c1.3,0,2.7,0,4-0.1c42.7-1,82.9-8.1,119.6-19.8c42.5-13.6,80.4-33.7,114.1-58
				c30.9-22.3,58.4-48.1,82.7-76.5c0.8-0.9,1.6-1.8,2.4-2.8c2.2-2.6,4.3-5.1,6.4-7.7c5.5-6.8,10.8-13.7,15.8-20.8
				c0.4-0.6,0.8-1.2,1.3-1.8c1.5-2.1,2.9-4.2,4.3-6.3h0C1046,178.8,1047.7,178.5,1049.4,178.2z"/>
			<path fill="#D3C5F9" d="M731.3,295.2c-3.8,13.2-8.4,26.2-13.8,38.9c-5.7,13.4-12.3,26.3-19.7,38.8c-0.6,1-1.2,2.1-1.9,3.1
				c-7.8,12.8-16.5,25.1-25.9,36.8c-19.7,24.3-43,45.5-68.9,63.1c-25.9,17.6-54.4,31.4-84.3,41c-3.1,1-6.3,2-9.5,2.9
				c0.9-1.5,1.8-2.9,2.7-4.4c5.5-1.7,10.9-3.4,16.2-5.4c29.2-10.5,57-25.2,82.1-43.4c24.8-18.1,47-39.8,65.6-64.3
				c6.4-8.4,12.4-17.2,17.9-26.2c0.6-1,1.3-2,1.9-3.1c9.7-16.1,18-33,24.8-50.4c3.1-8.1,6-16.3,8.5-24.6
				C728.4,297,729.8,296.1,731.3,295.2z"/>
			<path fill="#D3C5F9" d="M1971.2,509.3c-43-7.3-85.2-20.5-124.6-41.6c-13.6-7.3-26.8-15.5-39.6-24.4c-1.4-0.9-2.7-1.9-4.1-2.9
				c-23.1-16.6-44.7-35.7-64.8-56.6c-1.5-1.6-3-3.1-4.5-4.7h0c-1.6-1.7-3.3-3.5-4.9-5.3c-29.5-32.4-55.3-68.9-77.8-107.8
				c-8.1-14.1-15.8-28.5-23.1-43.2c2.2,0.9,4.4,1.8,6.6,2.7c9.3,18.5,19.3,36.5,30,54c20.8,34.1,44.5,66,71,94.5
				c1.6,1.8,3.3,3.5,5,5.3c4.2,4.5,8.6,8.8,13,13.1c15.6,15.2,32.2,29.3,49.5,41.9c1.4,1,2.7,2,4.1,2.9c18.3,13.1,37.6,24.5,57.5,34
				c33,15.7,67.7,26,103,32.3C1968.7,505.4,1970,507.3,1971.2,509.3z"/>
		</g>
	</g>
</g>
</svg>
