<?xml version="1.0" encoding="utf-8"?>
<!-- Generator: Adobe Illustrator 27.9.3, SVG Export Plug-In . SVG Version: 9.03 Build 53313)  -->
<svg version="1.1" id="Layer_1" xmlns="http://www.w3.org/2000/svg" xmlns:xlink="http://www.w3.org/1999/xlink" x="0px" y="0px"
	 viewBox="0 0 2340 1560" enable-background="new 0 0 2340 1560" xml:space="preserve">
<g>
	<g id="Layer_2_00000022537696531120869600000008403650901658547376_">
		<g>
			<g>
				<g>
					<defs>
						<rect id="SVGID_1_" width="2341" height="1560"/>
					</defs>
					<clipPath id="SVGID_00000127735844455190837180000006681354044236388773_">
						<use xlink:href="#SVGID_1_"  overflow="visible"/>
					</clipPath>
					<g clip-path="url(#SVGID_00000127735844455190837180000006681354044236388773_)">
						<g>
							<g>
								<g>
									<g>
										<rect x="505.6" y="6.1" fill="#D1AEA6" width="251.6" height="312.7"/>
									</g>
								</g>
							</g>
							<g>
								<path fill="#D1AEA6" d="M979.4,265.5c0.9,0.5,1.5,1.5,1.3,2.6c-0.2,1.3-1.3,2.3-2.6,2.3c-0.1,0-0.2,0-0.3,0L0,162.8V223
									l974.9,100.2c1.4,0.1,2.5,1.4,2.3,2.8c-0.1,1.2-1.2,2.3-2.6,2.3c-0.1,0-0.2,0-0.3,0L0,228.1v72l859.4,84.3
									c1.4,0.1,2.5,1.4,2.3,2.8c-0.1,1.2-1.2,2.3-2.6,2.3c-0.1,0-0.2,0-0.2,0L0,305.2V541l818.5,64.2c1.4,0.1,2.5,1.3,2.4,2.8
									c-0.1,1.3-1.2,2.4-2.6,2.4c-0.1,0-0.1,0-0.2,0L0,546.2v51.2l808.3,68.9c1.4,0.1,2.5,1.3,2.4,2.8c-0.1,1.3-1.2,2.4-2.6,2.4
									c-0.1,0-0.1,0-0.2,0L0,602.6V660l777.6,47.2c1.4,0.1,2.5,1.3,2.4,2.7c0,1.3-1.1,2.4-2.5,2.4c-0.1,0-0.1,0-0.2,0L0,665.1
									v343.7l1124.2-23.7V281.5L979.4,265.5z"/>
								<path fill="#3F3631" d="M978.1,270.4c1.2,0,2.4-0.9,2.6-2.3c0.2-1.1-0.4-2.1-1.3-2.6L0,157.9v4.9l977.8,107.5
									C977.9,270.4,978,270.4,978.1,270.4z"/>
								<path fill="#3F3631" d="M974.6,328.2c1.3,0,2.5-1,2.6-2.3c0.2-1.3-0.8-2.7-2.3-2.8L0,223v5.1l974.3,100.1
									C974.4,328.2,974.5,328.2,974.6,328.2z"/>
								<path fill="#3F3631" d="M859,389.4c1.3,0,2.5-1,2.6-2.3c0.2-1.3-0.8-2.7-2.3-2.8L0,300.1v5.1l858.8,84.2
									C858.8,389.4,858.9,389.4,859,389.4z"/>
								<path fill="#3F3631" d="M818.3,610.4c1.3,0,2.5-1,2.6-2.4c0.1-1.4-0.9-2.7-2.4-2.8L0,541v5.2l818.1,64.2
									C818.2,610.4,818.2,610.4,818.3,610.4z"/>
								<path fill="#3F3631" d="M808.1,671.5c1.3,0,2.5-1,2.6-2.4c0.1-1.4-0.9-2.7-2.4-2.8L0,597.4v5.2l807.9,68.9
									C808,671.5,808,671.5,808.1,671.5z"/>
								<path fill="#3F3631" d="M777.5,712.3c1.3,0,2.5-1,2.5-2.4c0.1-1.3-0.9-2.6-2.4-2.7L0,660v5.1l777.3,47.2
									C777.4,712.3,777.4,712.3,777.5,712.3z"/>
							</g>
							<g>
								<g>
									<g>
										<polygon fill="#3F3631" points="126.6,352.1 126.6,515 61.9,510 61.9,345.8 										"/>
									</g>
								</g>
							</g>
							<g>
								<g>
									<g>
										<polygon fill="#3F3631" points="271,366.3 271,526.3 209.9,521.6 209.9,360.2 										"/>
									</g>
								</g>
							</g>
							<g>
								<g>
									<g>
										<polygon fill="#3F3631" points="413.8,380.3 413.8,537.5 352.6,532.8 352.6,374.3 										"/>
									</g>
								</g>
							</g>
							<g>
								<g>
									<g>
										<polygon fill="#3F3631" points="583.1,395.3 583.1,549.5 522,544.7 522,389.3 										"/>
									</g>
								</g>
							</g>
							<g>
								<g>
									<g>
										<polygon fill="#3F3631" points="126.6,737.9 126.6,957.9 61.9,957.9 61.9,726.4 										"/>
									</g>
								</g>
							</g>
							<g>
								<g>
									<g>
										<polygon fill="#3F3631" points="271,763.7 271,957.9 209.9,957.9 209.9,752.8 										"/>
									</g>
								</g>
							</g>
							<g>
								<g>
									<g>
										<polygon fill="#3F3631" points="413.8,789.2 413.8,957.9 352.6,957.9 352.6,778.3 										"/>
									</g>
								</g>
							</g>
							<g>
								<g>
									<g>
										<polygon fill="#3F3631" points="583.1,812.4 583.1,953.8 522,953.8 522,801.4 										"/>
									</g>
								</g>
							</g>
						</g>
						<g>
							<polygon fill="#D1AEA6" points="1842.6,301.6 2336.3,250.9 2336,190.9 1842.6,245.1 							"/>
							<path fill="#D1AEA6" d="M1540,698.2c-1.3,0-2.5-1-2.6-2.4c-0.1-1.4,0.9-2.7,2.4-2.8l799-68.1l-0.3-51.3L1530,637.1
								c0-0.1-0.1,0-0.2,0c-1.3,0-2.5-1-2.6-2.4c-0.1-1.4,0.9-2.7,2.4-2.8l808.8-63.5l-1.5-235.6L1489.2,416c0,0.1-0.1,0.1-0.2,0.1
								c-1.3,0-2.5-1-2.6-2.4c-0.1-1.4,0.9-2.7,2.3-2.8l848.1-83.2l-0.5-71.8l-493.8,50.7v38.7H1591v-12.9l-217.4,22.3
								c0,0-0.1,0-0.2,0c-1.3,0-2.5-1-2.6-2.3c-0.1-1.4,0.9-2.7,2.3-2.8l217.9-22.4v-54.7l-220.6,24.3c-0.1,0-0.2,0-0.3,0
								c-1.3,0-2.4-0.9-2.6-2.3c-0.2-1.1,0.4-2,1.2-2.5l-144.8,15.9v703.6l1116,24.3l-0.7-343.7L1570.6,739c0.1,0,0.1,0,0.1,0
								s0,0-0.1,0c-1.3,0-2.5-1-2.6-2.4c-0.1-1.4,1-2.7,2.4-2.7l768.8-46.7l-0.4-57.2l-798.6,68.1
								C1540.2,698.2,1540.1,698.2,1540,698.2z M2221.5,378.8l64.6-6.4v164.2l-64.6,5V378.8z M2077.2,393l61-6.1v161.4l-61,4.7V393z
								 M1934.4,407l61-6v158.5l-61,4.7V407z M1781.5,422l61-6v155.4l-61,4.8V422z M2221.5,764.6l64.6-11.5v231.4h-64.6V764.6z
								 M2077.2,790.4l61-10.9v205h-61V790.4z M1934.4,815.9l61-10.9v179.6h-61V815.9z M1781.5,843.2l61-11v152.3h-61V843.2z"/>
							<polygon fill="#D1AEA6" points="1842.6,-16.5 1591,-16.5 1591,267.6 1842.6,239.9 							"/>
							<polygon fill="#D1AEA6" points="1842.6,245.1 1591,272.8 1591,327.5 1842.6,301.6 							"/>
							<polygon fill="#D1AEA6" points="1591,345.4 1842.6,345.4 1842.6,306.7 1591,332.6 							"/>
							<path fill="#3F3631" d="M1591,267.6l-221.3,24.3c-0.4,0.1-0.7,0.2-1.1,0.4L1591,268V267.6z"/>
							<path fill="#3F3631" d="M1367.5,294.8c0.2,1.3,1.2,2.3,2.6,2.3c0.1,0,0.2,0,0.3,0l220.6-24.3V268l-222.3,24.3
								C1367.9,292.8,1367.4,293.8,1367.5,294.8z"/>
							<polygon fill="#3F3631" points="1842.6,240.4 1842.6,245.1 2336,190.9 2335.9,186.4 							"/>
							<polygon fill="#3F3631" points="1842.6,240.4 1842.6,239.9 1591,267.6 1591,268 							"/>
							<polygon fill="#3F3631" points="1842.6,240.4 1591,268 1591,272.8 1842.6,245.1 							"/>
							<path fill="#3F3631" d="M1373.2,349.9c-1.3,0.1-2.4,1.3-2.3,2.8c0.1,1.2,1.2,2.3,2.6,2.3c0.1,0,0.2,0,0.2,0l217.4-22.3v-5.1
								L1373.2,349.9z"/>
							<polygon fill="#3F3631" points="1842.6,306.7 2336.4,256 2336.3,250.9 1842.6,301.6 							"/>
							<polygon fill="#3F3631" points="1591,327.5 1591,332.6 1842.6,306.7 1842.6,301.6 							"/>
							<path fill="#3F3631" d="M1486.5,413.8c0.1,1.3,1.2,2.4,2.6,2.4c0.1,0,0.2,0,0.2-0.1l847.7-83.1l0-5.1L1488.7,411
								C1487.4,411.1,1486.4,412.3,1486.5,413.8z"/>
							<path fill="#3F3631" d="M1527.2,634.7c0.1,1.3,1.2,2.4,2.6,2.4c0.1,0,0.2-0.1,0.2,0l808.4-63.4l0-5.2l-808.8,63.5
								C1528.2,632,1527.1,633.3,1527.2,634.7z"/>
							<path fill="#3F3631" d="M1539.8,693c-1.4,0.1-2.5,1.3-2.4,2.8c0.1,1.3,1.2,2.4,2.6,2.4c0.1,0,0.2,0,0.2,0l798.6-68.1l0-5.2
								L1539.8,693z"/>
							<path fill="#3F3631" d="M1568,736.6c0.1,1.3,1.2,2.4,2.6,2.4l768.6-46.6l0-5l-768.8,46.7C1569,733.9,1567.9,735.2,1568,736.6
								z"/>
							<polygon fill="#3F3631" points="2286.1,372.5 2221.5,378.8 2221.5,541.7 2286.1,536.7 							"/>
							<polygon fill="#3F3631" points="2138.2,386.9 2077.2,393 2077.2,553 2138.2,548.3 							"/>
							<polygon fill="#3F3631" points="1995.4,401 1934.4,407 1934.4,564.2 1995.4,559.5 							"/>
							<polygon fill="#3F3631" points="1842.5,416 1781.5,422 1781.5,576.3 1842.5,571.4 							"/>
							<polygon fill="#3F3631" points="2286.1,753.1 2221.5,764.6 2221.5,984.6 2286.1,984.6 							"/>
							<polygon fill="#3F3631" points="2138.2,779.5 2077.2,790.4 2077.2,984.6 2138.2,984.6 							"/>
							<polygon fill="#3F3631" points="1995.4,805 1934.4,815.9 1934.4,984.6 1995.4,984.6 							"/>
							<polygon fill="#3F3631" points="1842.5,832.2 1781.5,843.2 1781.5,984.6 1842.5,984.6 							"/>
						</g>
						<g>
							<g>
								<g>
									<g>
										<g>
											<g>
												<polygon fill="#3F3631" points="1728.2,366.6 1728.2,1026.7 1352,1124.4 1210.9,1159.4 1168.7,1169.9 634.2,991.3 
													634.2,360.3 1166.7,157 												"/>
											</g>
										</g>
									</g>
								</g>
							</g>
							<g>
								<g>
									<g>
										<g>
											<polygon fill="#F4C52F" points="1727.7,474.3 1727.7,530.9 1167.4,361.9 634.7,533.3 634.7,465.1 1169.3,286.3 
																							"/>
										</g>
									</g>
								</g>
								<g>
									<g>
										<g>
											<polygon fill="#F4C52F" points="820,515.3 820,578.2 714.9,607.3 714.9,549.2 											"/>
										</g>
									</g>
								</g>
								<g>
									<g>
										<g>
											<polygon fill="#F4C52F" points="1067.9,435.6 1067.9,509.5 910.3,553.1 910.3,486.3 											"/>
										</g>
									</g>
								</g>
								<g>
									<g>
										<g>
											<polygon fill="#F4C52F" points="1454.9,493.2 1454.9,560.1 1280.7,507.4 1280.7,436.5 											"/>
										</g>
									</g>
								</g>
								<g>
									<g>
										<g>
											<polygon fill="#F4C52F" points="1652.1,557.3 1652.1,619.9 1543.4,586.9 1543.4,521.9 											"/>
										</g>
									</g>
								</g>
								<g>
									<g>
										<g>
											<path fill="#F4C52F" d="M693.8,584.9c0,14.3-7.8,25.8-17.5,25.8s-17.5-11.5-17.5-25.8c0-14.3,7.8-25.8,17.5-25.8
												C685.9,559.1,693.8,570.6,693.8,584.9z"/>
										</g>
									</g>
								</g>
								<g>
									<g>
										<g>
											<path fill="#3F3631" d="M1167.7,511.1c-1.4,0-2.6-1.1-2.6-2.6V238.2c0-1.4,1.1-2.6,2.6-2.6s2.6,1.1,2.6,2.6v270.4
												C1170.3,510,1169.2,511.1,1167.7,511.1z"/>
										</g>
									</g>
								</g>
								<g>
									<g>
										<g>
											<path fill="#F4C52F" d="M884.5,530.5c0,13.8-8.2,24.9-18.4,24.9s-18.4-11.1-18.4-24.9s8.2-24.9,18.4-24.9
												C876.2,505.6,884.5,516.8,884.5,530.5z"/>
										</g>
									</g>
								</g>
								<g>
									<g>
										<g>
											<ellipse fill="#F4C52F" cx="1119.4" cy="460.5" rx="20.2" ry="32.3"/>
										</g>
									</g>
								</g>
								<g>
									<g>
										<g>
											<path fill="#F4C52F" d="M1252.1,458.6c0,17.8-9.5,32.3-21.2,32.3c-11.7,0-21.2-14.5-21.2-32.3s9.5-32.3,21.2-32.3
												C1242.7,426.4,1252.1,440.8,1252.1,458.6z"/>
										</g>
									</g>
								</g>
								<g>
									<g>
										<g>
											<path fill="#F4C52F" d="M1523.7,544.3c0,17.3-9.2,31.3-20.5,31.3c-11.4,0-20.5-14.1-20.5-31.3c0-17.3,9.2-31.3,20.5-31.3
												C1514.5,513,1523.7,527.1,1523.7,544.3z"/>
										</g>
									</g>
								</g>
								<g>
									<g>
										<g>
											<path fill="#F4C52F" d="M1711.2,597.8c0,16.3-8.6,29.5-19.4,29.5c-10.7,0-19.4-13.3-19.4-29.5c0-16.3,8.6-29.5,19.4-29.5
												C1702.5,568.3,1711.2,581.5,1711.2,597.8z"/>
										</g>
									</g>
								</g>
							</g>
						</g>
					</g>
					<g clip-path="url(#SVGID_00000127735844455190837180000006681354044236388773_)">
						<path fill="#F1A983" d="M1091.8,928.2c-23-16.8-36.8,4.6-36.8,4.6c-7.7-11.7-26.2-15.5-49.7-1.5
							c-30.4,18.1-8.6,325.3-8.6,325.3l187.4-98.4l17.9-150.6C1201.9,1007.6,1114.9,945,1091.8,928.2z"/>
						<g>
							<g>
								<path fill="#3F3631" d="M1044.1,1027c-0.4,0-0.9-0.1-1.3-0.3c-1.2-0.7-1.6-2.3-0.9-3.5c18.9-31.9,15.8-39.4,14.5-41
									c-2-2.2-7.4-0.8-10.2,0.3c-22.5,24.2-23.1,24.7-23.4,25c-0.8,0.5-1.7,0.5-2.6,0.1c-0.8-0.4-1.3-1.2-1.4-2.2
									c-2.5-64.5-13.5-71.3-14.1-71.6c-1.2-0.3-2.1-1.5-2-2.9c0.2-1.4,1.5-2.4,2.9-2.2c2.5,0.3,14.8,5.4,18,70.5
									c4.8-5.1,13.1-14.1,19.1-20.5c0.2-0.2,0.5-0.4,0.8-0.6c1.1-0.5,11.4-4.9,16.5,0.7c5.8,6.4,1.3,21.4-13.9,47
									C1045.9,1026.6,1045.1,1027,1044.1,1027z M1005.1,933.7L1005.1,933.7L1005.1,933.7z M1005.1,933.7L1005.1,933.7
									L1005.1,933.7z M1005,933.7C1005,933.7,1005.1,933.7,1005,933.7L1005,933.7z M1004.8,933.7L1004.8,933.7L1004.8,933.7z"/>
							</g>
						</g>
						<g>
							<g>
								<path fill="#3F3631" d="M1037.3,989.8c-0.1,0-0.2,0-0.3,0c-1.4-0.2-2.5-1.4-2.3-2.9c4.7-42.7-16.4-62.7-16.6-62.9
									c-1-0.9-1.1-2.6-0.1-3.6c0.9-1,2.6-1.1,3.6-0.1c0.9,0.9,23.3,22,18.3,67.2C1039.6,988.9,1038.6,989.8,1037.3,989.8z"/>
							</g>
						</g>
						<g>
							<g>
								<path fill="#3F3631" d="M1054.5,979.4L1054.5,979.4c-1.5-0.1-2.6-1.2-2.6-2.7c1.4-32.3-13.5-53.2-13.7-53.4
									c-0.8-1.1-0.6-2.8,0.6-3.6c1.1-0.8,2.8-0.6,3.6,0.5c0.6,0.9,16.1,22.5,14.6,56.7C1057.1,978.4,1056,979.4,1054.5,979.4z"/>
							</g>
						</g>
					</g>
					<g clip-path="url(#SVGID_00000127735844455190837180000006681354044236388773_)">
						<g>
							<path fill="#3F3631" d="M1070.6,991c-0.1,0-0.1,0-0.2,0c-1.4-0.1-2.5-1.3-2.4-2.8c2-30.3-17.4-61.3-17.6-61.6
								c-0.7-1.2-0.4-2.8,0.8-3.5c1.2-0.7,2.8-0.4,3.5,0.8c0.8,1.3,20.4,32.8,18.4,64.7C1073.1,990,1072,991,1070.6,991z"/>
						</g>
					</g>
					<g clip-path="url(#SVGID_00000127735844455190837180000006681354044236388773_)">
						<g>
							<path fill="#3F3631" d="M1083.5,988.5c-0.1,0-0.1,0-0.2,0c-1.4-0.1-2.5-1.3-2.4-2.8c2-30.3-17.4-61.3-17.6-61.6
								c-0.7-1.2-0.4-2.8,0.8-3.5c1.2-0.7,2.8-0.4,3.5,0.8c0.8,1.3,20.4,32.8,18.4,64.7C1085.9,987.4,1084.8,988.5,1083.5,988.5z"/>
						</g>
					</g>
					<g clip-path="url(#SVGID_00000127735844455190837180000006681354044236388773_)">
						<g>
							<path fill="#3F3631" d="M1095.3,983.8c-0.1,0-0.1,0-0.2,0c-1.4-0.1-2.5-1.3-2.4-2.8c2-30.3-17.4-61.3-17.6-61.6
								c-0.7-1.2-0.4-2.8,0.8-3.5c1.2-0.7,2.8-0.4,3.5,0.8c0.8,1.3,20.4,32.8,18.4,64.7C1097.8,982.8,1096.6,983.8,1095.3,983.8z"/>
						</g>
					</g>
					<path clip-path="url(#SVGID_00000127735844455190837180000006681354044236388773_)" fill="#F4E4D1" d="M963.3,1543.5
						c-8,2.4-59.7,16.8-85.4-48.7c-1.5-4-16.6-10.3-11.9-30.9c3.3-13,25.3-9,31.6-7.6c-45.1-69-53.4-83.3-28.5-128.5
						c30.9-59.6,91.6-61.9,91.6-61.9l15.5-16.6l14.3-15.5l22-77c37.7-139.7,73.3-201.5,95.9-221.8c22.6-20.2,84.5-28.6,84.5-28.6
						l3.6-0.8c6.1-4,14.3-10.3,13.8-14.6c-0.7-5.5-5.5-15-6.8-17.6c0,0-0.1,0-0.1,0c-42.8,11.5-49-14.8-49.9-22.5
						c-3-7.8-9.7-25.9-9.7-25.9s-5.5,3.2-9.6-1.1H0v736.2h980C970.2,1550.9,964.4,1544.6,963.3,1543.5z"/>
					<path clip-path="url(#SVGID_00000127735844455190837180000006681354044236388773_)" fill="#F4E4D1" d="M2339.9,823.7H1278.6
						c-1.4,1.8-2.4,2.8-2.4,2.8l-2.4,3.8c2.3-1.5,3.6-2.9,4.1-3.7c0.9-1.5,19.8,47.7,19.8,47.7s83.3,23,120.6,49.2
						c23.6,19,75.4,147.6,99.9,227.5c0.7,1,1.4,1.9,2.1,2.9c1.2,1.7,2.4,3.6,3.6,5.6c1.4-0.1,2.5,0.9,2.7,2.3
						c0.1,0.7-0.1,1.3-0.5,1.8c38.5,74.7,45.6,304.4-6.2,396.3h820.1V823.7z"/>
					<path clip-path="url(#SVGID_00000127735844455190837180000006681354044236388773_)" fill="#FFFFFF" d="M1523.6,1159.5
						c0.1,0,0.1,0,0.2,0c-1.2-2-2.4-3.9-3.6-5.6c-0.7-0.9-1.3-1.9-2.1-2.9c0.9,3,1.8,5.9,2.6,8.8
						C1521.8,1159.7,1522.7,1159.6,1523.6,1159.5z"/>
					<path clip-path="url(#SVGID_00000127735844455190837180000006681354044236388773_)" fill="#FFFFFF" d="M1328.3,987.9
						c0.8,1,1.5,1.9,2.3,2.8C1329.9,989.8,1329.1,988.8,1328.3,987.9z"/>
					<path clip-path="url(#SVGID_00000127735844455190837180000006681354044236388773_)" fill="#FFFFFF" d="M1526.1,1163.6
						c-0.4,0.6-1,0.9-1.8,1.1c-1.3,0.2-2.5,0.3-3.7,0.3c-2,0.9-5.7,1.4-11.9,0.6c-2.4-0.3-5.7-1.6-9.8-3.6
						c-47.9-14.9-102.2-81.6-163.6-157.2c-7.2-8.8-14.4-17.8-21.8-26.7c-37.7-46-70.1-60.8-90.6-65c-22.1-4.6-35.4,1.6-35.5,1.7
						c-1.2,0.6-2.8,0.1-3.4-1.2c-0.6-1.2-0.1-2.8,1.2-3.4c0.3-0.1,3-1.4,7.9-2.5c1-0.6,2.1-1.3,3.3-2.1l-3.6,0.8
						c0,0-61.9,8.3-84.5,28.6c-22.6,20.2-58.2,82.1-95.9,221.8l-22,77l-14.3,15.5l-15.5,16.6c0,0-60.7,2.4-91.6,61.9
						c-24.9,45.2-16.6,59.5,28.5,128.5c1.1,0.2,1.7,0.4,1.7,0.4s42.1,69.8,65.1,86.5c-0.1,0-0.4,0.1-1,0.3
						c1.1,1.2,6.9,7.4,16.7,16.4h539.9C1571.7,1468,1564.5,1238.3,1526.1,1163.6z M1481.6,1501.1c-8.9,0.4-18.1,0.8-26.9,1.3
						c-27,1.2-54.5,2.7-82,2.7c-32.8,0-65.5-2-97.4-8.3c-38.7-7.7-69.2-25.4-98.9-57c-0.9-1-0.9-2.7,0.1-3.6c1-0.9,2.7-0.9,3.6,0.1
						c28.9,30.8,58.6,48,96.1,55.5c57.9,11.6,119.1,8.5,178.2,5.5c8.8-0.4,18-0.9,26.9-1.3c1.4-0.1,2.6,1,2.7,2.5
						C1484.2,1499.9,1483.1,1501,1481.6,1501.1z M1500.7,1249.5c-0.2,1.3-1.3,2.2-2.5,2.2c-0.2,0-0.3,0-0.5,0
						c-31.5-6.5-62.4-13-91.9-24c-92.8-34.1-171.7-106.5-241.3-221.3c-0.7-1.2-0.3-2.8,0.8-3.5c1.2-0.7,2.8-0.3,3.5,0.8
						c68.9,113.7,147,185.4,238.6,219.1c29.3,10.8,59.9,17.4,91.2,23.7C1500.1,1246.8,1500.9,1248.1,1500.7,1249.5z"/>
					<path clip-path="url(#SVGID_00000127735844455190837180000006681354044236388773_)" fill="#FFFFFF" d="M1165,785.2
						c3.5,15.5,5.9,28.3,6.5,38.5h24c-1.1-1.8-5.8-9.6-10.5-16.7c-1.2,0-2.3-0.8-2.6-2.2c-0.1-0.7-0.2-1.4-0.4-2.2
						c-3.4-4.9-6.4-8.7-7.6-8.7c0,0-1.5-29.4,17.5-27.7c13.8,3.1,20.2,37.9,10.6,57.5h75.9c4.5-5.6,13.6-19.1,11.8-35.3
						c-2.4-21.5,7.9-142.9-61.1-123.8c0,0.8-44.5-58.8-102.4,21.5c-29.9,49.5-20.1,72.5-2.2,68.4c0.1-0.7,0.3-1.3,0.6-1.8
						C1125.4,752.6,1155.6,743.1,1165,785.2z"/>
					<path clip-path="url(#SVGID_00000127735844455190837180000006681354044236388773_)" fill="#FFFFFF" d="M1201.6,825.8
						c39.9,19,63.2,10.7,72.1,4.6l2.4-3.8c0,0,1-1,2.4-2.8h-75.9C1202.4,824.4,1202,825.1,1201.6,825.8z"/>
					<path clip-path="url(#SVGID_00000127735844455190837180000006681354044236388773_)" fill="#FFFFFF" d="M1211.8,854.3
						c-2.4-11.9-15.9-30.2-15.9-30.2s-0.1-0.2-0.2-0.4h-24c1,17.6-3.3,27.5-16.8,30.5c-0.2-0.3-0.7-1.6-1.4-3.4
						c0.9,7.8,7,34.1,49.9,22.5c0,0,0.1,0,0.1,0c-0.2-0.4-0.4-0.7-0.4-0.7S1213.2,861.3,1211.8,854.3z"/>
					<path clip-path="url(#SVGID_00000127735844455190837180000006681354044236388773_)" fill="#F1A983" d="M1150,779.6
						c0,0-15.9-25.4-24.7-25.4c-0.2,0.1-0.4,0.1-0.6,0.1c-1.8,9.1,8.4,32.5,6.2,34.7c-2.9,21.6-0.4,30.9,3.1,34.6h19.4L1150,779.6z"
						/>
					<path clip-path="url(#SVGID_00000127735844455190837180000006681354044236388773_)" fill="#F1A983" d="M1143.7,824.8
						c0,0,6.7,18.1,9.7,25.9c-0.1-1.3-0.1-2.1-0.1-2.1l1.5-7.9l-1.3-17.1h-19.4C1138.2,828,1143.7,824.8,1143.7,824.8z"/>
					<path clip-path="url(#SVGID_00000127735844455190837180000006681354044236388773_)" fill="#F1A983" d="M1150,779.6l3.4,44.1
						h18.1c-0.6-10.2-3-23-6.5-38.5c-9.5-42.1-39.6-32.6-39.6-32.6c-0.3,0.5-0.5,1.1-0.6,1.8c0.2,0,0.4-0.1,0.6-0.1
						C1134.1,754.3,1150,779.6,1150,779.6z"/>
					<path clip-path="url(#SVGID_00000127735844455190837180000006681354044236388773_)" fill="#F1A983" d="M1171.6,823.7h-18.1
						l1.3,17.1l-1.5,7.9c0,0,0,0.8,0.1,2.1c0.7,1.9,1.2,3.1,1.4,3.4C1168.3,851.2,1172.6,841.3,1171.6,823.7z"/>
					<path clip-path="url(#SVGID_00000127735844455190837180000006681354044236388773_)" fill="#F1A983" d="M1222.3,853.5
						c0,0-3.1,15-18.9,19.8c1.3,2.6,6.1,12.1,6.8,17.6c0.5,4.2-7.7,10.6-13.8,14.6l27.4-6.4c0,0,79.8,23.8,88.1,23.8
						c8.2,0,158.6,161.8,206.3,228c-24.6-79.9-76.4-208.5-99.9-227.5c-37.3-26.2-120.6-49.2-120.6-49.2s-18.9-49.2-19.8-47.7
						c-0.5,0.8-1.8,2.2-4.1,3.7l-8.7,13.6L1222.3,853.5z"/>
					<path clip-path="url(#SVGID_00000127735844455190837180000006681354044236388773_)" fill="#F1A983" d="M1311.9,922.9
						c-8.3,0-88.1-23.8-88.1-23.8l-27.4,6.4c-1.2,0.8-2.4,1.5-3.3,2.1c6.6-1.4,17-2.5,30.5,0.2c21.5,4.3,55.2,19.4,94,66.9
						c3.6,4.4,7.2,8.8,10.8,13.2c0.8,0.9,1.6,1.9,2.3,2.8c2.9,3.6,5.8,7.1,8.7,10.7c70.2,86.3,131,161.2,181.5,158.3
						c-0.8-2.9-1.7-5.8-2.6-8.8C1470.6,1084.7,1320.1,922.9,1311.9,922.9z"/>
					<path clip-path="url(#SVGID_00000127735844455190837180000006681354044236388773_)" fill="#F1A983" d="M1498.8,1161.9
						c4.1,2,7.5,3.3,9.8,3.6c6.2,0.8,9.9,0.3,11.9-0.6c-0.9,0-1.7,0.1-2.6,0.1C1511.7,1165,1505.3,1164,1498.8,1161.9z"/>
					<path clip-path="url(#SVGID_00000127735844455190837180000006681354044236388773_)" fill="#F1A983" d="M1192.1,766.2
						c-19-1.6-17.5,27.7-17.5,27.7c1.1,0,4.1,3.8,7.6,8.7c-1.1-7.3-0.9-15.2,5-23.6c0.8-1.1,2.5-1.4,3.6-0.6
						c1.1,0.8,1.4,2.5,0.6,3.6c-3.3,4.7-4.5,9.1-4.5,13.8c1.9-2.8,4.4-5.2,9-6.4c1.3-0.3,2.8,0.5,3.1,2c0.3,1.3-0.5,2.8-2,3.1
						c-4.4,1-5.8,3.6-7.9,7.5c-0.5,0.8-0.9,1.7-1.4,2.6c-0.1,1.2-0.9,2.2-2.1,2.4c-0.2,0.1-0.3,0.1-0.5,0.1c0,0,0,0,0,0
						c4.7,7.2,9.4,14.9,10.5,16.7h7.1C1212.2,804.1,1205.8,769.3,1192.1,766.2z"/>
					<path clip-path="url(#SVGID_00000127735844455190837180000006681354044236388773_)" fill="#F1A983" d="M1201.6,825.8
						c0.4-0.7,0.7-1.4,1.1-2.1h-7.1c0.2,0.3,0.2,0.4,0.2,0.4s13.6,18.3,15.9,30.2c1.4,7-8.7,18.3-8.7,18.3s0.1,0.2,0.4,0.7
						c15.8-4.8,18.9-19.8,18.9-19.8l42.8-9.6l8.7-13.6C1264.8,836.4,1241.6,844.8,1201.6,825.8z"/>
					<path clip-path="url(#SVGID_00000127735844455190837180000006681354044236388773_)" fill="#F1A983" d="M865.9,1463.9
						c-4.7,20.6,10.4,26.9,11.9,30.9c25.7,65.5,77.5,51.1,85.4,48.7c-0.1-0.1-0.2-0.2-0.2-0.2l-46.4-33.4l-11.9-14.3
						c0,0-4.8-17.8-7.2-39.2c0,0,0-0.1-0.1-0.1C891.2,1454.8,869.3,1450.9,865.9,1463.9z"/>
					<path clip-path="url(#SVGID_00000127735844455190837180000006681354044236388773_)" fill="#F1A983" d="M904.8,1495.6l11.9,14.3
						l46.4,33.4c0,0,0.1,0.1,0.2,0.2c0.6-0.2,1-0.3,1-0.3c-23-16.6-65.1-86.5-65.1-86.5s-0.6-0.2-1.7-0.4c0,0,0,0.1,0.1,0.1
						C899.9,1477.8,904.8,1495.6,904.8,1495.6z"/>
					<path clip-path="url(#SVGID_00000127735844455190837180000006681354044236388773_)" fill="#3F3631" d="M1498.7,1246.5
						c-31.3-6.4-61.9-12.9-91.2-23.7c-91.6-33.7-169.7-105.4-238.6-219.1c-0.7-1.1-2.3-1.5-3.5-0.8c-1.1,0.7-1.5,2.3-0.8,3.5
						c69.5,114.7,148.5,187.2,241.3,221.3c29.6,11,60.4,17.6,91.9,24c0.2,0,0.3,0,0.5,0c1.1,0,2.3-0.8,2.5-2.2
						C1500.9,1248.1,1500.1,1246.8,1498.7,1246.5z"/>
					<path clip-path="url(#SVGID_00000127735844455190837180000006681354044236388773_)" fill="#3F3631" d="M1481.4,1496
						c-8.9,0.4-18.1,0.9-26.9,1.3c-59.2,3-120.3,6.1-178.2-5.5c-37.6-7.5-67.3-24.7-96.1-55.5c-0.9-1-2.6-1-3.6-0.1
						c-1,0.9-1,2.6-0.1,3.6c29.7,31.6,60.2,49.3,98.9,57c31.8,6.4,64.6,8.3,97.4,8.3c27.4,0,55-1.4,82-2.7c8.8-0.5,18-0.9,26.9-1.3
						c1.4-0.1,2.6-1.2,2.5-2.7C1484,1497,1482.9,1495.9,1481.4,1496z"/>
					<path clip-path="url(#SVGID_00000127735844455190837180000006681354044236388773_)" fill="#3F3631" d="M1183.7,806
						c-1-0.6-1.4-1.7-1.2-2.8c-0.1-0.2-0.3-0.4-0.4-0.6c0.1,0.7,0.2,1.4,0.4,2.2c0.3,1.3,1.3,2.2,2.6,2.2c-0.1-0.2-0.2-0.4-0.4-0.5
						C1184.4,806.4,1184,806.3,1183.7,806z"/>
					<path clip-path="url(#SVGID_00000127735844455190837180000006681354044236388773_)" fill="#3F3631" d="M1182.9,802.5
						c0.6-1,1.1-2.1,1.7-3.1c0.7-1.2,1.4-2.5,2.2-3.7c0-4.7,1.2-9.1,4.5-13.8c0.8-1.1,0.5-2.8-0.6-3.6c-1.1-0.8-2.8-0.5-3.6,0.6
						c-5.9,8.4-6.1,16.3-5,23.6c0.1,0.2,0.3,0.4,0.4,0.6C1182.7,803,1182.8,802.8,1182.9,802.5z"/>
					<path clip-path="url(#SVGID_00000127735844455190837180000006681354044236388773_)" fill="#3F3631" d="M1185.6,806.9
						c1.1-0.2,2-1.2,2.1-2.4c-0.1,0.2-0.3,0.5-0.4,0.7c-0.4,0.7-1.2,1.2-2.2,1.2c-0.1,0-0.2,0-0.4,0c0.1,0.2,0.2,0.4,0.4,0.5
						c0,0,0,0,0,0C1185.3,807,1185.4,807,1185.6,806.9z"/>
					<path clip-path="url(#SVGID_00000127735844455190837180000006681354044236388773_)" fill="#3F3631" d="M1187.7,804.5
						c0.5-0.9,0.9-1.8,1.4-2.6c2.2-3.9,3.5-6.5,7.9-7.5c1.4-0.3,2.3-1.7,2-3.1c-0.3-1.4-1.7-2.3-3.1-2c-4.7,1.1-7.2,3.6-9,6.4
						c0,2.6,0.3,5.3,0.8,8.1C1187.7,804.1,1187.7,804.3,1187.7,804.5z"/>
					<path clip-path="url(#SVGID_00000127735844455190837180000006681354044236388773_)" fill="#3F3631" d="M1183.7,806
						c0.3,0.2,0.6,0.3,1,0.4c-0.7-1.1-1.4-2.1-2.1-3.2C1182.3,804.3,1182.8,805.5,1183.7,806z"/>
					<path clip-path="url(#SVGID_00000127735844455190837180000006681354044236388773_)" fill="#3F3631" d="M1182.9,802.5
						c-0.2,0.2-0.3,0.5-0.3,0.7c0.7,1,1.4,2.1,2.1,3.2c0.1,0,0.2,0,0.4,0c0.9,0,1.7-0.5,2.2-1.2c0.2-0.2,0.3-0.5,0.4-0.7
						c0-0.2,0-0.4,0-0.6c-0.5-2.8-0.8-5.5-0.8-8.1c-0.8,1.2-1.5,2.4-2.2,3.7C1184,800.5,1183.5,801.5,1182.9,802.5z"/>
					<path clip-path="url(#SVGID_00000127735844455190837180000006681354044236388773_)" fill="#3F3631" d="M1526.5,1161.8
						c-0.2-1.4-1.3-2.4-2.7-2.3c0.8,1.3,1.5,2.7,2.2,4.1C1526.4,1163.1,1526.6,1162.4,1526.5,1161.8z"/>
					<path clip-path="url(#SVGID_00000127735844455190837180000006681354044236388773_)" fill="#3F3631" d="M1520.8,1159.7
						c0.2,0.6,0.4,1.2,0.5,1.8c1-1.6,3.1,1.7-0.8,3.4c1.2-0.1,2.4-0.2,3.7-0.3c0.8-0.1,1.4-0.5,1.8-1.1c-0.7-1.4-1.5-2.8-2.2-4.1
						c-0.1,0-0.1,0-0.2,0C1522.7,1159.6,1521.8,1159.7,1520.8,1159.7z"/>
					<path clip-path="url(#SVGID_00000127735844455190837180000006681354044236388773_)" fill="#3F3631" d="M1378.5,1055.2
						c-12.2-16.7-28.5-40.7-47.8-64.5c-0.8-1-1.5-1.9-2.3-2.8c-38.1-46.4-87.2-91.1-137.9-78.7c0.3-0.2,1.3-0.7,2.7-1.6
						c-4.9,1.1-7.7,2.4-7.9,2.5c-1.3,0.6-1.8,2.2-1.2,3.4c0.6,1.3,2.2,1.8,3.4,1.2c0.1-0.1,13.5-6.4,35.5-1.7
						c20.5,4.2,52.9,19,90.6,65c7.4,8.9,14.6,17.9,21.8,26.7c61.4,75.6,115.6,142.4,163.6,157.2
						C1471.4,1148.2,1410.2,1098.8,1378.5,1055.2z"/>
					<path clip-path="url(#SVGID_00000127735844455190837180000006681354044236388773_)" fill="#3F3631" d="M1521.4,1161.6
						c-0.2-0.6-0.4-1.2-0.5-1.8c-50.5,2.8-111.3-72-181.5-158.3c-2.9-3.5-5.8-7.1-8.7-10.7c19.3,23.8,35.6,47.8,47.8,64.5
						c31.7,43.5,92.9,93,120.3,106.7c6.5,2,12.9,3.1,19.2,3.1c0.9,0,1.7,0,2.6-0.1C1524.5,1163.2,1522.4,1160,1521.4,1161.6z"/>
					<path clip-path="url(#SVGID_00000127735844455190837180000006681354044236388773_)" fill="#3F3631" d="M1328.3,987.9
						c-3.6-4.4-7.2-8.8-10.8-13.2c-38.8-47.5-72.5-62.6-94-66.9c-13.5-2.7-23.9-1.7-30.5-0.2c-1.4,0.8-2.4,1.4-2.7,1.6
						C1241.2,896.8,1290.2,941.4,1328.3,987.9z"/>
					<g clip-path="url(#SVGID_00000127735844455190837180000006681354044236388773_)">
						<g>
							<g>
								<path fill="#FFFFFF" d="M1946,754.2l-19.9-2.1c0,0-14.6,2.5-21,4.2c-23.3,6.2-94.2,41.1-63.4,213.7
									c-7.2,71.9-20.5,98.6-20.5,98.6s-20.5,8-31.8,25.7c-1-1-14.4,13.7-14.4,13.7s-52.5,14.7-60.9,21
									c-8.4,6.3-121.7,145.9,110.2,214.1c23.1,4.2,325.3,0,325.3,0s33.6-88.1-25.2-115.5c8.4-11.5-10.5-24.1-10.5-24.1l-14.7-1
									l7.4-7.4l-5.2-2.1c0,0,22.9-66.8,2.4-162.3c-14.3-66.4-54.9-180.9-54.9-180.9L1946,754.2z"/>
							</g>
						</g>
						<g>
							<g>
								<path fill="#3F3631" d="M1886.1,632.1c0,0-9.8-30.8,22.4-49.7c33.6-21.7,121,6.3,92.3,84.6c-6.3,25.2-14.7,28.7-25.2,32.2
									c-10.5,3.5-39.9-15.4-39.9-15.4L1886.1,632.1z"/>
							</g>
						</g>
						<g>
							<g>
								<path fill="#B77B5E" d="M1945.5,926.8c0,0-13.7,0.9,18.5,22.6c32.2,21.7,58.7-28.4,74.1-19.2c0-1.4-2.8-21.7-2.8-21.7
									s-65-32.9-111.2-151.8c0-2.8-3.5-16.1-3.5-16.1v-4.9c0,0-48.3,0-42.7-36.4c5.5-36.4,6.3-67.9,10.5-76.9
									c3.5-9.1,27.9-30.1,53.8-3.5c1.4,4.2,2.8,24.4,13.3,32.9c1.4,4.2,5.5,20.3,5.5,20.3s16.7-23.8,35-9.1
									c9.8,7,18.9,25.2-8.4,38.5c-0.7,4.9,4.9,39.9,9.1,45.5c4.2,5.5,94.6,1.2,125.2,156.7c20.7,103.3-39.1,84.7-88.1,93.1
									c-17.5,3.5-33.6,28.7-118.2-77.7c-14-15.4-38.5-18.2-51.8-56.7c2.1-7.7,0.7-14.7,4.2-11.9c0,0.7-21.8-5.5-7.8,1.4
									c1.4-0.7-15.7-18.4-1-7.2c-30.2,23.4-12.6,11.1,2.1,21.6c-0.7-0.7,15.6,22.9,20.5,25.7
									C1880.4,891.2,1931.4,932.5,1945.5,926.8z"/>
							</g>
						</g>
						<g>
							<g>
								<path fill="#B77B5E" d="M2101,1193.3l-3.5,11.2c0,0,18.2,2.8,25.9,20.3c0,1.4,45.5,15.4,34.3,86.8
									c2.8,1.4,14.7-8.4,31.5,2.1c16.7,10.5,51.8,23.1,79.8,9.1c-0.7-2.8,12.6,2.1-28.7-32.2c-17.5-24.4-39.1-70.7-60.9-70
									c-15.4,0-21.7,1.4-21.7,1.4s-21-25.2-30.8-26.6C2117,1194,2101,1193.3,2101,1193.3z"/>
							</g>
						</g>
						<g>
							<g>
								<path fill="#3F3631" d="M1917,734.2c0,0,39.1-2.1,50.3-25.9c0.7,0.7-4.9,31.5-47.6,35.6C1919.1,743.4,1917,734.2,1917,734.2
									z"/>
							</g>
						</g>
						<g>
							<g>
								<path fill="#3F3631" d="M1772.8,1110.5c-1.1,0-2.3-0.8-2.5-2.1c-0.3-1.3,0.5-2.8,2-3.1c3.2-0.7,8.4-2.5,14.4-4.4
									c11.5-3.8,25.9-8.6,37.8-10.3c38.2-5.2,120.6,6.9,124.1,7.4c1.4,0.2,2.4,1.5,2.2,2.9c-0.2,1.4-1.5,2.4-2.9,2.2
									c-0.8-0.1-85.1-12.5-122.5-7.3c-11.4,1.5-25.5,6.3-36.9,10.1c-6.2,2.1-11.4,3.8-14.9,4.6
									C1773.2,1110.5,1773,1110.5,1772.8,1110.5z"/>
							</g>
						</g>
						<g>
							<g>
								<path fill="#3F3631" d="M1901.4,872.7c-0.5,0-1-0.2-1.5-0.5c-22.1-16.1-26.1-37-26.2-37.8c-0.2-1.4,0.7-2.8,2.1-3
									c1.4-0.2,2.8,0.7,3,2.1c0,0.2,3.9,19.7,24.1,34.6c1.1,0.8,1.4,2.5,0.5,3.6C1903,872.4,1902.2,872.7,1901.4,872.7z"/>
							</g>
						</g>
						<g>
							<g>
								<path fill="#3F3631" d="M1891.5,883.3c-0.4,0-0.8-0.1-1.2-0.3c-13.1-7.1-24.8-29.5-25.2-30.5c-0.6-1.2-0.1-2.8,1.1-3.5
									c1.2-0.7,2.8-0.1,3.5,1.1c0.1,0.2,11.3,22,23.1,28.2c1.2,0.7,1.7,2.3,1,3.5C1893.2,882.8,1892.3,883.3,1891.5,883.3z"/>
							</g>
						</g>
						<g>
							<g>
								<path fill="#3F3631" d="M2033.6,910c-0.4,0-0.9-0.1-1.3-0.3c-34.1-20-62.7-60.6-80.6-91.1c-19.4-32.9-31-61.5-31.1-61.8
									c-0.5-1.3,0.1-2.8,1.4-3.4c1.3-0.5,2.8,0.1,3.4,1.4c0.4,1.1,46.1,113,109.6,150.4c1.2,0.7,1.6,2.3,0.9,3.5
									C2035.4,909.6,2034.6,910,2033.6,910z"/>
							</g>
						</g>
						<g>
							<g>
								<path fill="#3F3631" d="M2086.1,989.3c-0.9,0-1.7-0.4-2.3-1.2c-9.1-15.8-46.4-54.2-46.8-54.6c-1-1-0.9-2.7,0-3.6
									c1-1,2.7-0.9,3.6,0c1.5,1.6,38.1,39.2,47.6,55.6c0.7,1.2,0.3,2.8-0.9,3.5C2087,989.2,2086.5,989.3,2086.1,989.3z"/>
							</g>
						</g>
						<g>
							<g>
								<path fill="#3F3631" d="M1940.3,1247.2c-9.8,0-15.8-0.3-15.9-0.3c-1.4-0.1-2.5-1.2-2.5-2.7c0.1-1.4,1.2-2.5,2.7-2.5
									c1.5,0.1,154.7,6.6,174.8-50.7c0.5-1.3,2-2.1,3.3-1.5c1.3,0.5,2.1,2,1.5,3.3c-9,25.8-42.2,42.7-98.6,50.3
									C1980.2,1246.5,1955.7,1247.2,1940.3,1247.2z"/>
							</g>
						</g>
						<g>
							<g>
								<path fill="#3F3631" d="M2149.6,1344.5c-0.3,0-0.6,0-0.9-0.2c-1.3-0.5-2.1-2-1.5-3.3c26.7-73.8-7-102.7-22.7-111.9
									c-0.7-0.4-1.8-1-2.1-2.2c-7.9-16.5-26.7-21.2-26.9-21.2c-1.3-0.3-2.3-1.7-2-3.1c0.3-1.3,1.6-2.3,3.1-2
									c0.9,0.2,21.4,5.1,30.3,23.8l0,0c14.6,8.4,22.7,20.2,26.9,28.7c11.7,23.4,11.1,53.5-1.8,89.4
									C2151.7,1343.9,2150.6,1344.5,2149.6,1344.5z"/>
							</g>
						</g>
						<g>
							<g>
								<path fill="#3F3631" d="M2125,1229c-1.2,0-2.4-0.9-2.6-2.2c-0.2-1.4,0.7-2.7,2.2-2.9c5.3-0.8,52.6-7.9,59.1-6.8
									c1.4,0.2,2.4,1.5,2.2,3c-0.2,1.4-1.5,2.4-3,2.2c-4.3-0.7-37.5,3.8-57.4,6.8C2125.2,1229,2125.1,1229,2125,1229z"/>
							</g>
						</g>
						<g>
							<g>
								<path fill="#3F3631" d="M1977.5,690.7c-1.2,0-2.4-0.9-2.6-2.3c-0.7-5.8,0.4-10.4,3.4-13.9c4.6-5.2,12-5.3,12.3-5.3
									c1.4,0,2.6,1.1,2.6,2.6c0,1.4-1.1,2.6-2.6,2.6c0,0-5.3,0.1-8.4,3.6c-2,2.3-2.7,5.5-2.2,9.8c0.2,1.4-0.8,2.7-2.3,2.9
									C1977.7,690.7,1977.6,690.7,1977.5,690.7z"/>
							</g>
						</g>
						<g>
							<g>
								<path fill="#3F3631" d="M1978.6,688.5c-0.2,0-0.4,0-0.5-0.1c-1.3-0.3-2.3-1.6-2-3.1c1.4-6.5,11.7-7.2,12.8-7.3
									c1.4-0.1,2.7,1,2.7,2.5c0.1,1.4-1,2.7-2.5,2.7c-3.1,0.2-7.7,1.4-8.1,3.3C1980.7,687.7,1979.7,688.5,1978.6,688.5z"/>
							</g>
						</g>
						<g>
							<g>
								<path fill="#3F3631" d="M1894.2,708.4c-1.1,0-2.2-0.3-3.1-0.9c-2.9-1.8-5.8-6.4-1.3-26c2.3-10.2,5.3-19.6,5.5-20
									c0.4-1.3,2-2.1,3.3-1.6c1.3,0.4,2.1,2,1.6,3.3c0,0.1-3.2,9.6-5.3,19.5c-4,18.3-0.9,20.4-0.9,20.4s2.5,1.1,11-7.4
									c1-1,2.7-1,3.6,0c1,1,1,2.7,0,3.6C1902.4,705.5,1897.8,708.4,1894.2,708.4z"/>
							</g>
						</g>
						<g>
							<g>
								<path fill="#3F3631" d="M1911.8,719.9c-4.5,0-7.5-1.6-7.5-1.6c-1.2-0.7-1.6-2.3-0.9-3.5c0.7-1.2,2.3-1.6,3.5-0.9
									c0.4,0.2,9.5,4.9,19.3-7.3c0.9-1.1,2.5-1.2,3.6-0.4c1.1,0.8,1.2,2.5,0.4,3.6C1923.5,717.8,1916.7,719.9,1911.8,719.9z"/>
							</g>
						</g>
						<g>
							<g>
								<path fill="#3F3631" d="M1924.6,668.2c-5.2,0-9.5-2.1-11.6-3.8c-1.1-0.9-1.2-2.6-0.3-3.6c0.9-1.1,2.5-1.2,3.6-0.3
									c0.3,0.3,7.7,6.1,17.5-0.2c1.2-0.7,2.8-0.4,3.6,0.8c0.7,1.2,0.4,2.8-0.8,3.6C1932.2,667.3,1928,668.2,1924.6,668.2z"/>
							</g>
						</g>
						<g>
							<g>
								<path fill="#3F3631" d="M1888.7,666.5c-4.2,0-6.4-2.6-7-4.3l4.8-1.8v-0.1c0.1,0.3,1,1.8,4.7,0.6c1.3-0.4,2.8,0.3,3.3,1.6
									c0.4,1.3-0.3,2.8-1.6,3.3C1891.3,666.3,1889.9,666.5,1888.7,666.5z"/>
							</g>
						</g>
						<g>
							<g>
								<g>
									<path fill="#B77B5E" d="M1863.1,794.9c0,0-12,2.1-1.3,30.3c-0.7-1.3-24.3-16.2-38.6-37.6c-1-1.3-8-6.7-10.8,3.3
										c0.1,0.5-8.1-4.6-10.9,2.2c-0.1-0.6-7.8-7.2-11.8-0.8c-0.5,0.3-7.9-2.4-9.7,2.9c-1.7,5.3-4.1,38,30.2,82.9
										c0.2-0.3,23.4,75.4,46,101.1c4.1-40.1,6.2-53.4,6.2-53.4s44.6,48.5,55.3,52.9c0.3,0-4.3-101.9-4.3-101.9l-2-2.7
										c0,0-11.7-9.5-13-11.6C1896.8,860.4,1865.3,795.9,1863.1,794.9z"/>
								</g>
							</g>
							<g>
								<g>
									<path fill="#3F3631" d="M1869.6,937.4c-0.7,0-1.4-0.3-2-0.8c-41.8-46.7-72.4-103.7-74.7-109.8l0,0
										c-0.9-3.3-1.1-7.8,3.3-11.4c-0.2-6.7,3-10.2,5.4-11.7c-0.1-4.7,1.4-9.8,7.9-11.3c0.4-3.8,2.2-7.9,5.4-9.5
										c2.1-0.9,5.4-1.3,9.8,2.6c0.2,0.1,0.3,0.3,0.4,0.5c13.4,19.4,24.9,28.6,31.6,33.1c-4.3-14.2-1.1-22.8,2.8-25.4
										c2.3-1.5,4.8-1.2,6.7,0.6c0.1,0.1,0.1,0.1,0.2,0.2c2.6,3.4,8.9,16.5,16.3,31.7c7,14.4,14.9,30.7,17.9,34.7
										c0.8,1.1,0.6,2.8-0.5,3.6c-1.1,0.8-2.8,0.6-3.6-0.5c-3.2-4.4-10.6-19.5-18.4-35.5c-6.5-13.4-13.3-27.2-15.6-30.6
										c-0.2,0.1-0.7,0.5-1.2,1.5c-2.1,4-2.4,12.5,2.9,24.5c0.2,0.3,0.3,0.7,0.4,1.2c0.1,1.2-0.7,2.4-2,2.8
										c-1,0.3-2.1-0.1-2.7-0.9c-0.3-0.2-0.8-0.5-1.3-0.8c-5.4-3.2-19.9-11.8-37.4-37.1c-1-0.9-2.8-2.1-3.9-1.5
										c-1.4,0.7-2.7,3.8-2.7,6.9c0,0.6-0.2,1.2-0.6,1.6c-0.7,0.8-1.6,0.9-2.4,1c-2.1,0.3-5.4,0.8-4.7,7.8c0.1,1.3-0.7,2.5-2,2.8
										c-0.4,0.2-4.1,2-3.5,8.6c0.1,0.7-0.1,1.3-0.6,1.8c-0.3,0.3-0.6,0.5-0.9,0.7c-1.1,0.8-3.3,2.3-2.1,6.4l0,0
										c1.6,4.1,30.9,60.1,73.5,107.9c0.9,1,0.8,2.7-0.2,3.6C1870.8,937.2,1870.2,937.4,1869.6,937.4z M1798.1,825.8L1798.1,825.8
										L1798.1,825.8z M1798.1,825.8L1798.1,825.8L1798.1,825.8z M1804.7,807.7L1804.7,807.7L1804.7,807.7z M1804.7,807.7
										L1804.7,807.7L1804.7,807.7z M1805,807.6L1805,807.6L1805,807.6z"/>
								</g>
							</g>
							<g>
								<g>
									<path fill="#3F3631" d="M1839.5,833.9c-0.6,0-1.2-0.2-1.7-0.6c-19.7-17.9-27.8-37.1-28.1-37.9c-0.5-1.3,0.1-2.8,1.4-3.4
										c1.3-0.5,2.8,0.1,3.4,1.4c0.1,0.2,8,19,26.8,36.1c1,0.9,1.1,2.6,0.2,3.6C1840.9,833.7,1840.2,833.9,1839.5,833.9z"/>
								</g>
							</g>
							<g>
								<g>
									<path fill="#3F3631" d="M1829.6,844.5c-0.5,0-1.1-0.2-1.5-0.5c-22.6-17.1-26.1-37.5-26.3-38.4c-0.2-1.4,0.7-2.7,2.2-3
										c1.4-0.2,2.7,0.7,3,2.2c0.1,0.3,3.5,19.4,24.2,35.1c1.1,0.8,1.3,2.5,0.5,3.6C1831.2,844,1830.5,844.5,1829.6,844.5z"/>
								</g>
							</g>
							<g>
								<g>
									<path fill="#3F3631" d="M1819.6,853.3c-0.6,0-1.3-0.2-1.8-0.7c-15.7-15.8-21.1-34.5-21.4-35.2c-0.4-1.3,0.4-2.8,1.7-3.2
										c1.3-0.4,2.8,0.4,3.2,1.7c0.1,0.3,5.3,18.3,20,33.1c1,1,1,2.7,0,3.6C1820.9,853,1820.3,853.3,1819.6,853.3z"/>
								</g>
							</g>
							<g>
								<g>
									<path fill="#3F3631" d="M1801.3,795c-0.9,0-1.6-0.4-2.5-0.9c-3.2-1.7-5.2-2.3-7.3-0.2c-1,1-2.6,1-3.6,0c-1-1-1-2.6,0-3.6
										c4.6-4.7,10.1-2.6,12.6-1.1c3.3-3.3,9.2-2.2,12.6-0.7c1.3,0.5,2,2.1,1.4,3.4c-0.5,1.3-2.1,2-3.4,1.4
										c-1.2-0.5-6.5-2.1-7.4,0.1c-0.2,0.6-0.8,1.2-1.5,1.4C1801.9,794.9,1801.6,795,1801.3,795z M1799.1,791.2
										c0,0.1-0.1,0.1-0.1,0.2C1799,791.4,1799.1,791.2,1799.1,791.2z"/>
								</g>
							</g>
							<g>
								<g>
									<path fill="#3F3631" d="M1795.3,822.1c-0.9,0-1.8-0.5-2.3-1.4c-0.5-0.9-4.5-9-4.6-14.3c0-0.1,0-0.3,0-0.4
										c1.5-9.6-1.2-12.4-1.2-12.4c-1.1-0.8-1.4-2.5-0.6-3.6c0.8-1.1,2.5-1.4,3.6-0.6c0.9,0.6,5.3,4.5,3.4,17.2
										c0.1,3.5,2.9,9.7,4,11.7c0.6,1.2,0.1,2.8-1.1,3.5C1796.2,822,1795.7,822.1,1795.3,822.1z"/>
								</g>
							</g>
							<g>
								<g>
									<path fill="#3F3631" d="M1801.9,809.2c-0.1,0-0.2,0-0.3,0c-1.4-0.2-2.4-1.4-2.3-2.9c1.1-8.7-0.3-11.5-0.5-11.7
										c-0.8-1-0.8-2.5,0-3.5c0.9-1,2.6-1.1,3.6-0.1c1,0.9,3.3,4.4,1.8,15.9C1804.3,808.3,1803.2,809.2,1801.9,809.2z M1799,794.7
										L1799,794.7L1799,794.7z M1799,794.7L1799,794.7L1799,794.7z M1798.9,794.5L1798.9,794.5L1798.9,794.5z"/>
								</g>
							</g>
							<path fill="#B77B5E" d="M2119.1,889.9c-23.6-75-72.9-61.6-72.9-61.6l9.5,66.7l-32-59.5c0,0,16.2,53.8,5.9,88.2
								c-45.8-7.4-118.2-49.5-118.2-49.5l-3.8,97.9c143.8,109.9,204.4,26.7,204.4,26.7S2142.7,964.8,2119.1,889.9z"/>
							<g>
								<g>
									<path fill="#3F3631" d="M2060.6,958.2c-1,0-2.1-0.6-2.4-1.6c-10.6-27.8-29.9-30.1-30.7-30.2c-1.4-0.1-2.5-1.4-2.3-2.8
										c0.1-1.4,1.4-2.5,2.8-2.3c0.9,0.1,23.3,2.6,35,33.5c0.5,1.3-0.2,2.8-1.5,3.3C2061.2,958.1,2060.9,958.2,2060.6,958.2z"/>
								</g>
							</g>
							<g>
								<g>
									<path fill="#3F3631" d="M2029.7,924.3c-0.4,0-0.7-0.1-1.1-0.2c-1.2-0.6-1.8-2.2-1.2-3.4c13.7-28.4-12.1-89.7-12.3-90.3
										c-0.5-1.3,0-2.8,1.3-3.4c1.3-0.5,2.8,0,3.4,1.3c1.1,2.6,27,64.1,12.3,94.6C2031.6,923.8,2030.7,924.3,2029.7,924.3z"/>
								</g>
							</g>
						</g>
						<g>
							<g>
								<path fill="#3F3631" d="M1847.9,1037.3c-0.4,0-0.8-0.1-1.2-0.3c-1.2-0.7-1.7-2.3-1-3.5c4.8-8.8,11.8-80.8,14.1-107.9
									c0.1-1.4,1.3-2.5,2.8-2.4c1.4,0.1,2.5,1.3,2.4,2.8c-0.8,10.1-8.4,98.4-14.7,109.9
									C1849.7,1036.7,1848.7,1037.3,1847.9,1037.3z"/>
							</g>
						</g>
						<path fill="#3F3631" d="M1883.1,901.7c-2.1-21.4-8.7-72.6-25.4-85.8c-1.1-0.9-2.8-0.7-3.6,0.4c-0.9,1.1-0.7,2.8,0.4,3.6
							c21,16.5,29.2,114.1,24.2,155c-1.5,13.4-3.9,15.7-4.4,16c-1.2-0.5-9.1-6.4-23-79c-0.3-1.4-1.6-2.3-3-2.1
							c-1.4,0.3-2.3,1.6-2.1,3c5.2,27.6,10.3,48.7,14.8,62.6c4.6,14.1,8.1,18.6,10.9,20v24.8c0,1.4,1.1,2.6,2.6,2.6s2.6-1.1,2.6-2.6
							v-25c1.3-0.9,2.6-2.6,3.5-5C1885.8,977.6,1886.9,940.3,1883.1,901.7z"/>
					</g>
					<g clip-path="url(#SVGID_00000127735844455190837180000006681354044236388773_)">
						<g>
							<g>
								<path fill="#FFFFFF" d="M448.1,668.7c0,0,14.2-23.9,9.9-48c-4.3-23.9-28.4-95.9-123.2-85.1c-66.5,10.9-73,109-86.1,171.1
									c-13,62.1-77.5,428.4-58.9,461.1c18.5,32.7,36,12,49.1,15.3c-1.1,1.1-30.5,17.5-30.5,17.5l-27.2,16.3
									c0,0-27.2,22.9-30.5,28.4s-10.9,21.8-12,27.2s10.9,25.1,10.9,25.1s296.6,64.3,449.2-14.2c16.3-9.9,70.9-27.2,31.6-99.2
									c-42.5-67.6-52.3-66.5-52.3-66.5s12-16.3-26.2-61c-15.6-38.1-48.3-159.7-54.4-217.3c0-1.1-71.2,66.9-71.2,66.9l-14.2-33.8
									l69.6-31l10.3-6.2l10.3-1.3l-24.8-80.2l-16.3-38.1c0,0-3.3-22.9-25.1-29.5C414.3,679.7,448.1,668.7,448.1,668.7z"/>
							</g>
						</g>
						<g>
							<g>
								<path fill="#F9C6AD" d="M406.3,583.8c0,0,38.5,21.8,45.8,53.8c2.2,5.9,7.3,70.5-27.6,85.1c-10.9,5.1-50.1,3.6-63.3-53.8
									C359,654.9,380.8,581.5,406.3,583.8z"/>
							</g>
						</g>
						<g>
							<g>
								<path fill="#F9C6AD" d="M231.1,1188.5c0,0-7.3,13.8-19.6,21.1c-12.3,7.3-49.4,24-62.5,86.5c0-2.9-40.7,1.4-46.5-3.6
									c-1.4-5.9,13.8-15.3,29.8-34.2s29.1-58.9,58.1-56c0-0.7,16-16,22.5-16C219.5,1186.2,231.1,1188.5,231.1,1188.5z"/>
							</g>
						</g>
						<g>
							<g>
								<path fill="#3F3631" d="M395.7,662.2c-4.5-1.3-7.9-0.7-7.8-3.5c0.1-2.8,4.1-4.7,8.8-4.5s8.5,2.7,8.3,5.4
									C405,662.3,401.1,663.9,395.7,662.2z"/>
							</g>
						</g>
						<g>
							<g>
								<path fill="#3F3631" d="M443.1,650.2c-2,3.9-5.1,4.7-7,3c-1.7-1.7-0.8-5.6,2.3-8.7c3-3.1,6.9-4.2,8.6-2.5
									C448.9,643.6,445.3,645.9,443.1,650.2z"/>
							</g>
						</g>
						<g>
							<g>
								<path fill="#3F3631" d="M441.9,706.5c0,0-14,28.1-52.2,10.7C389.7,716.6,421.9,757,441.9,706.5z"/>
							</g>
						</g>
						<g>
							<g>
								<path fill="#3F3631" d="M358.1,678.4c-0.2,0-0.3,0-0.5,0c-1.4-0.3-2.3-1.6-2.1-3c10.6-53.3,31.8-85.4,38-90.3
									c6.5-5.3,21.3-5.4,22.9-5.4c1.4,0,2.6,1.1,2.6,2.6c0,1.4-1.1,2.6-2.6,2.6c-4,0-15.3,0.8-19.6,4.3
									c-4.9,4.1-25.8,34.9-36.2,87.3C360.3,677.5,359.3,678.4,358.1,678.4z"/>
							</g>
						</g>
						<g>
							<g>
								<path fill="#3F3631" d="M425.2,690.1c-2.2,0-4.6-0.5-7.4-1.4c-1.3-0.4-2.1-2-1.6-3.3c0.4-1.3,2-2.1,3.3-1.6
									c3.2,1.1,7.4,2,9,0c4.1-4.8-3.1-23.7-9.3-35.6c-0.6-1.2-0.2-2.8,1-3.5c1.2-0.6,2.8-0.2,3.5,1c2.9,5.3,16.5,32.3,8.7,41.4
									C430.7,689,428.3,690.1,425.2,690.1z"/>
							</g>
						</g>
						<g>
							<g>
								<path fill="#3F3631" d="M415.2,709.9c-14.4,0-19.1-12.3-19.2-12.4c-0.5-1.3,0.2-2.8,1.5-3.3c1.3-0.5,2.8,0.2,3.3,1.5
									c0.2,0.6,5.5,13.9,23.9,7.2c1.3-0.5,2.8,0.2,3.3,1.5c0.5,1.3-0.2,2.8-1.5,3.3C422.3,709.3,418.5,709.9,415.2,709.9z"/>
							</g>
						</g>
						<g>
							<g>
								<path fill="#3F3631" d="M219.1,1190.2c-1.1,0-2.1-0.7-2.5-1.7c-0.4-1.3,0.3-2.8,1.6-3.3c3.4-1.1,6.8-2.3,10.2-3.4
									c16.7-5.5,34.2-11.3,51.7-15.5c21.1-5,45.5-6.5,69.1-7.9c25.7-1.5,52.2-3.1,74.7-9.2c13.8-3.8,25-8.7,35.7-13.5
									c11.7-5.1,23.8-10.5,39.3-14.4c23.4-5.9,47.7-7.4,78.5-4.9c1.4,0.1,2.5,1.3,2.4,2.8c-0.1,1.4-1.3,2.5-2.8,2.4
									c-30.3-2.4-54-0.9-76.8,4.8c-15,3.7-26.4,8.7-38.5,14.1c-10.9,4.8-22.2,9.9-36.5,13.8c-23,6.4-49.8,7.9-75.7,9.5
									c-23.4,1.3-47.6,2.8-68.2,7.7c-17.3,4.2-34.6,9.9-51.3,15.4c-3.4,1.1-6.8,2.3-10.2,3.4
									C219.6,1190.2,219.4,1190.2,219.1,1190.2z"/>
							</g>
						</g>
						<g>
							<g>
								<path fill="#3F3631" d="M453.7,1241c-14.5,0-27.8-0.5-41.1-3.8c-6.9-1.6-13.6-4-20.1-6.3c-5.3-1.8-10.9-3.8-16.4-5.3
									c-16.8-4.6-34.6-6.5-50.2-8.1c-34.5-3.6-65.3-8.4-93.7-32.8c-1-0.9-1.2-2.6-0.3-3.6s2.6-1.2,3.6-0.3
									c27.2,23.3,57.3,28,90.9,31.5c15.8,1.6,33.8,3.5,51.2,8.2c5.6,1.5,11.3,3.5,16.7,5.4c6.4,2.3,13,4.5,19.6,6.2
									c14.4,3.5,29.2,3.7,45.6,3.6l0,0c1.4,0,2.6,1.1,2.6,2.6c0,1.4-1.1,2.6-2.6,2.6C457.5,1241,455.6,1241,453.7,1241z"/>
							</g>
						</g>
						<g>
							<g>
								<path fill="#3F3631" d="M401.7,1220.8c-0.9,0-1.7-0.4-2.2-1.2c-0.7-1.2-0.3-2.8,0.9-3.5c12.6-7.5,25.2-14.4,40.4-15.6
									c1.4-0.1,2.7,0.9,2.8,2.4c0.1,1.4-0.9,2.7-2.4,2.8c-14.1,1.1-26.1,7.7-38.1,14.9C402.7,1220.6,402.1,1220.8,401.7,1220.8z"
									/>
							</g>
						</g>
						<g>
							<g>
								<path fill="#3F3631" d="M609.9,1209.3c-0.9,0-1.8-0.5-2.3-1.4c-9.8-19.9-19.5-32.9-41-40.2c-1.3-0.4-2.1-2-1.6-3.3
									c0.4-1.3,2-2.1,3.3-1.6c23.1,7.7,34,22.1,44,42.7c0.6,1.2,0.1,2.8-1.2,3.4C610.7,1209.2,610.4,1209.3,609.9,1209.3z"/>
							</g>
						</g>
						<g>
							<g>
								<path fill="#3F3631" d="M218,1206.2c-0.1,0-0.1,0-0.2,0c-12-1-25.5-1.8-27.4-1.5c-1.3,0.4-2.7-0.3-3.1-1.6s0.3-2.8,1.6-3.3
									c2.3-0.7,17.2,0.3,29.4,1.3c1.4,0.1,2.5,1.3,2.4,2.8C220.4,1205.2,219.3,1206.2,218,1206.2z M190.4,1204.7L190.4,1204.7
									L190.4,1204.7z"/>
							</g>
						</g>
					</g>
				</g>
			</g>
		</g>
	</g>
	<g id="Layer_7_00000053547034303961512340000005681204559221024913_">
		<g>
			<g>
				<g>
					<path fill="#EFBA9E" d="M493.5,731.7c0,0,10.8-1,8,25.9c0.3-1.3,17.3-19.5,24.7-41.2c0.5-1.3,5.4-7.6,10,0.4
						c0.1,0.5,6-5.9,9.9-0.6c-0.1-0.5,5-8,9.9-3.4c0.5,0.2,6.3-3.8,8.9,0.3c2.7,4.2,12,31.8-7.2,78.4c-0.3-0.2-7.4,64.3-28,106.8
						c-0.2,0.3-10.4-43.5-10.4-43.5s-22.8,41.4-31,47.7c-0.2,0-19.2-88.9-19.2-88.9l1.1-2.8c0,0,7.9-10.8,8.6-12.9
						C479.4,795.8,491.8,732.9,493.5,731.7z"/>
				</g>
			</g>
			<path fill="#FFFFFF" d="M554.6,814.7c-7.8,37.2-32.5,137.8-7.8,244.7L506.7,933c-0.7-9.5-15-12.9-14.4-29.8
				c0.2-4.7,19.3-19.8,19.3-19.8l4.2-22.2c0,0,0.6-1.2,1.6-3.2l0,0c0.4-0.7,0.8-1.6,1.3-2.7c0,0,0-0.1,0.1-0.1c0,0,0-0.1,0.1-0.1
				c0,0,0-0.1,0.1-0.1l0.1-0.1c4.5-8.6,12.2-23.2,14.2-25.1l0,0c0.1-0.1,0.2-0.1,0.2-0.2c5.6-2.2,16.9-11.4,20.1-14.2
				C554.2,815.1,554.5,814.9,554.6,814.7L554.6,814.7L554.6,814.7z"/>
			<g>
				<path fill="#3F3631" d="M555.8,733.5c-1-4.1-3.1-6.4-4.7-7.6c-0.8-0.6-1.7-1-2.6-1.3c-1-4-3.5-8-9.2-8h-0.1
					c-1.3-3.2-3.8-6.4-7-7c-2.1-0.4-5.1,0.1-8,4.5c-0.1,0.2-0.2,0.4-0.3,0.5c-6.8,19-14.2,29.4-19,35c0.3-12.8-4.4-19.3-8.3-20.7
					c-2.4-0.8-4.7,0-6,2.2c0,0.1-0.1,0.2-0.1,0.3c-1.4,3.5-4,16.3-6.9,31.1c-2.8,14-5.9,29.8-7.5,33.9c-0.5,1.3,0.1,2.8,1.4,3.3
					s2.8-0.1,3.3-1.4c1.7-4.5,4.7-19.2,7.7-34.8c2.5-12.6,5-25.8,6.4-29.6c0.3,0.2,0.8,0.5,1.3,1.2c1.1,1.5,4.8,7.4,2.7,21.3
					c-0.1,0.4-0.1,0.7-0.1,1.2c0.2,1.2,1.2,2.2,2.6,2.2l0,0c1,0,2-0.6,2.4-1.5c0.2-0.2,0.6-0.6,0.9-0.9c3.9-4,14.4-14.7,23.7-40.5
					c1-1.4,2-2.2,2.7-2.1c1.1,0.2,2.6,2.1,3.3,4.2c0,0.1-0.1,0.2-0.1,0.3c0,0.2-2.6,18.1-14.8,37.1c-0.8,1.2-0.4,2.8,0.7,3.6
					c0.4,0.3,0.9,0.4,1.4,0.4c0.8,0,1.6-0.4,2.2-1.1c10.8-16.6,14.4-32.3,15.3-37.4c1.5,0,3.5,0.5,4.3,4.5c-0.1,0.3-0.2,0.7-0.2,1.1
					c0,0.2,1.4,17.4-12.8,35.5c-0.9,1.1-0.7,2.8,0.4,3.6c0.5,0.4,1,0.5,1.5,0.5c0.7,0,1.5-0.3,2.1-1c11.7-14.9,13.8-29.1,14-35.5
					c0.8,0.8,1.7,2.2,2.3,4.3c-0.1,0.3-0.2,0.5-0.2,0.8c0,0.2-0.4,16.8-9.7,32.9c-0.7,1.2-0.3,2.8,0.9,3.5c0.4,0.2,0.8,0.3,1.2,0.3
					c0.9,0,1.7-0.4,2.3-1.3c7.2-12.5,9.3-25.1,10.1-31.3c0.4,0.7,0.6,1.5,0.6,2.9l0,0c-0.8,7.5-24.3,104.3-69.6,157.5
					c-0.9,1.1-0.8,2.7,0.3,3.6c0.5,0.4,1,0.6,1.6,0.6c0.7,0,1.4-0.3,2-0.9c46.8-55.1,70-152.6,70.8-160.7l0,0
					C561.3,739.7,560.4,735.7,555.8,733.5z"/>
			</g>
			<g>
				<g>
					<path fill="#3F3631" d="M536.2,719.1c-0.8,0-1.5-0.3-2.1-1c-0.8-1.1-0.6-2.8,0.5-3.6c2.7-2.1,7.5-4.4,11.2-2.4
						c2.1-1.8,6.2-4.8,11.3-1.7c1.2,0.7,1.6,2.4,0.8,3.5c-0.7,1.2-2.4,1.6-3.5,0.8c-2.1-1.2-3.6-0.4-5.9,1.7
						c-0.8,0.8-1.7,1.6-3.1,1.4c-0.7-0.1-1.5-0.5-2-1.1c-1-1.2-4.7,0.8-5.9,1.7C537.2,719,536.7,719.1,536.2,719.1z"/>
				</g>
			</g>
			<g>
				<g>
					<path fill="#3F3631" d="M557,740c-0.2,0-0.4,0-0.5-0.1c-1.3-0.3-2.3-1.6-2-3.1c0.4-2.1,1.4-7.9,0.8-10.9
						c-4.6-10.6-1.5-15.1-0.9-15.8l3.9,3.3c0,0,0,0,0.1-0.1c0,0-1.7,3,1.6,10.8c0.1,0.1,0.1,0.3,0.1,0.4c1.1,4.6-0.5,12.5-0.7,13.5
						C559.3,739.2,558.2,740,557,740z"/>
				</g>
			</g>
			<g>
				<path fill="#3F3631" d="M548.5,730.4c-1,0-2-0.6-2.4-1.6c-3.8-9.8-2.7-13.4-2-14.5c0.7-1.2,2.4-1.5,3.5-0.8
					c1.1,0.7,1.5,2.2,0.9,3.3c-0.1,0.3-0.6,3,2.3,10.1c0.5,1.3-0.1,2.8-1.4,3.3C549.1,730.4,548.8,730.4,548.5,730.4z M548.5,717.1
					C548.5,717.2,548.5,717.2,548.5,717.1C548.5,717.2,548.5,717.2,548.5,717.1z M548.5,717.1L548.5,717.1L548.5,717.1z"/>
			</g>
			<path fill="#FFFFFF" d="M531.1,906.7l2.3,23.4l-239.8,36.2l-5.2-29.1c0,0,49.4-37.5,52.1-38.6s69.5-75.9,69.5-75.9l32.9-25.5
				l27.8-1.5l4.6-0.2l0,0c0,0,0,0,0,0.1l0,0c0.2,0.4,1,2,2.3,4.2c6.9,12.4,27,48,39.6,58.1c0,0,0.1,0,0.1,0.1c0,0,0,0,0.1,0.1
				c0.1,0.1,0.1,0.1,0.2,0.2l0,0c0.5,0.4,0.9,0.7,1.4,1c0,0,0.1,0.3,0.2,0.7C520.8,865.8,531.1,906.7,531.1,906.7z"/>
			<g>
				<g>
					<path fill="#3F3631" d="M408.7,1010.5c-19,0-37.9-9.7-56.3-28.8c-1-1-0.9-2.7,0.1-3.6c1-1,2.7-0.9,3.6,0.1
						c20.2,21.1,41,30,61.5,26.4c47.4-8.2,79.8-79.7,80.1-80.4c0.6-1.3,2.1-1.8,3.4-1.3c1.3,0.6,1.8,2.1,1.3,3.4
						c-1.3,3.1-33.9,74.7-83.9,83.4C415.3,1010.1,412,1010.5,408.7,1010.5z"/>
				</g>
				<g>
					<path fill="#3F3631" d="M360.5,823.6c-1.1,0-2.2-0.7-2.5-1.8c-0.4-1.3,0.4-2.8,1.7-3.2c43.6-12.8,64.6-37.7,74.5-56.3
						c10.8-20.2,11.3-37.7,11.3-37.8c0-1.4,1.2-2.5,2.7-2.5c1.4,0,2.6,1.2,2.5,2.6c0,0.7-0.5,18.7-11.8,40
						c-10.4,19.6-32.3,45.7-77.8,59.1C361,823.6,360.8,823.6,360.5,823.6z"/>
				</g>
			</g>
			<path fill="#3F3631" d="M524.2,861c-12.7-10.3-39.8-55.2-45.5-64.9c0.5,0,1.1-0.2,1.5-0.6c1.1-0.9,1.2-2.6,0.3-3.6
				c-0.2-0.3-2.5-2.8-6-2.2c-3.4,0.6-6.4,3.9-8.8,10.2c-4.4,2.2-23.1,12.7-64.7,51.6c-1,0.9-1.1,2.6-0.1,3.6
				c0.5,0.5,1.2,0.8,1.8,0.8c0.6,0,1.2-0.2,1.7-0.7c46.4-43.2,64.1-50.9,64.2-51.1c0.6-0.3,1.1-0.8,1.4-1.4c1.1-2.9,2.1-4.7,2.9-5.9
				c1.4,2.5,32.9,56.2,47.9,68.2c0.5,0.4,1,0.6,1.6,0.6c0.7,0,1.5-0.3,2-0.9C525.4,863.5,525.3,861.8,524.2,861z"/>
			<g>
				<path fill="#3F3631" d="M530.9,833.4c-1,0-2.1-0.6-2.5-1.7c-0.5-1.3,0.2-2.8,1.5-3.3c10.8-3.8,22.7-15.4,22.8-15.5
					c1-1,2.7-1,3.6,0c1,1,1,2.7,0,3.6c-0.5,0.5-12.8,12.5-24.7,16.6C531.5,833.3,531.2,833.4,530.9,833.4z"/>
			</g>
		</g>
	</g>
	<g id="Layer_9_00000124846660468813451930000006249436390364768158_">
	</g>
</g>
</svg>
